<svg width="200" height="200" viewBox="0 0 200 200" fill="none" xmlns="http://www.w3.org/2000/svg">
<ellipse cx="100" cy="100" rx="100" ry="100" fill="url(#paint0_linear_2780_18081)"/>
<path d="M40.6336 19.4342C44.4947 16.594 49.6991 16.7652 53.7395 19.3439C72.2393 31.151 94.7134 42.6103 114.797 46.735C128.151 49.4778 141.836 49.2605 152.483 42.0951C158.493 38.0503 162.949 32.2039 165.825 24.6086C186.771 42.8574 200 69.6694 200 99.5575V99.5575C200 104.35 196.832 108.534 192.226 109.862C167.727 116.922 132.784 117.714 94.3661 95.2151C67.906 79.7193 44.437 75.1247 24.841 76.495C14.3141 77.2311 4.44357 68.2749 8.79874 58.663C15.8879 43.017 26.9198 29.5224 40.6336 19.4342Z" fill="url(#paint1_linear_2780_18081)"/>
<path d="M87.4521 106.917C121.805 127.035 153.965 130.286 179.714 126.438C187.652 125.251 194.823 132.266 191.579 139.608C183.904 156.979 171.388 171.751 155.732 182.232C154.376 183.14 152.593 183.043 151.311 182.033V182.033C141.463 174.278 129.214 164.634 110.226 156.658V156.658C109.85 156.5 109.461 156.377 109.063 156.288V156.288C92.342 152.567 79.2704 152.584 69.2708 155.879C58.9554 159.278 52.4624 165.992 48.9389 174.197V174.197C47.114 178.447 41.9362 180.754 38.2925 177.905C14.9773 159.679 0 131.359 0 99.5575V99.5575C0 97.6678 1.12752 95.9642 2.88025 95.2578C22.514 87.3452 51.3604 85.7803 87.4521 106.917Z" fill="url(#paint2_linear_2780_18081)"/>
<path d="M60.8433 181.178C58.9846 186.564 62.5677 192.081 67.9686 193.898C78.0245 197.281 88.7971 199.115 100 199.115C106.285 199.115 112.434 198.538 118.397 197.434C128.606 195.544 130.462 182.812 121.538 177.505C117.187 174.917 112.314 172.37 106.677 169.916C105.89 169.573 105.067 169.311 104.227 169.136C89.7797 166.133 80.0199 166.637 73.5556 168.767C67.1333 170.884 63.5411 174.729 61.4774 179.534C61.2486 180.067 61.0374 180.615 60.8433 181.178Z" fill="url(#paint3_linear_2780_18081)"/>
<path d="M83.6817 20.8285C73.7989 15.8519 75.1748 2.46259 86.1359 0.949086C90.6673 0.3234 95.2957 0 100 0C116.461 0 131.994 3.95984 145.688 10.9749C150.97 13.6806 153.676 20.0887 150.444 25.0656C148.788 27.6137 146.874 29.4833 144.846 30.8478C138.688 34.9925 129.475 35.8877 117.552 33.4389C106.883 31.2477 95.1527 26.6049 83.6817 20.8285Z" fill="url(#paint4_linear_2780_18081)"/>
<defs>
<linearGradient id="paint0_linear_2780_18081" x1="123.76" y1="-8.91653" x2="94.1137" y2="200.375" gradientUnits="userSpaceOnUse">
<stop stop-color="#D0F0B6"/>
<stop offset="0.691654" stop-color="#9FDF6C"/>
</linearGradient>
<linearGradient id="paint1_linear_2780_18081" x1="120.796" y1="-4.96255e-06" x2="86.2832" y2="199.115" gradientUnits="userSpaceOnUse">
<stop offset="0.239583" stop-color="#9FDF6C"/>
<stop offset="1" stop-color="#08B879"/>
</linearGradient>
<linearGradient id="paint2_linear_2780_18081" x1="120.796" y1="-4.96255e-06" x2="86.2832" y2="199.115" gradientUnits="userSpaceOnUse">
<stop offset="0.239583" stop-color="#9FDF6C"/>
<stop offset="1" stop-color="#08B879"/>
</linearGradient>
<linearGradient id="paint3_linear_2780_18081" x1="120.796" y1="-4.96255e-06" x2="86.2832" y2="199.115" gradientUnits="userSpaceOnUse">
<stop offset="0.239583" stop-color="#9FDF6C"/>
<stop offset="1" stop-color="#08B879"/>
</linearGradient>
<linearGradient id="paint4_linear_2780_18081" x1="120.796" y1="-4.96255e-06" x2="86.2832" y2="199.115" gradientUnits="userSpaceOnUse">
<stop offset="0.239583" stop-color="#9FDF6C"/>
<stop offset="1" stop-color="#08B879"/>
</linearGradient>
</defs>
</svg>
