<svg width="211" height="42" viewBox="0 0 211 42" fill="none" xmlns="http://www.w3.org/2000/svg">
<g clip-path="url(#clip0_4496_10053)">
<path fill-rule="evenodd" clip-rule="evenodd" d="M65.3197 10.9056V8.36412C65.3153 8.19814 65.377 8.0372 65.4911 7.91667C65.6053 7.79613 65.7627 7.72587 65.9287 7.72131H77.1017C77.1824 7.71823 77.263 7.73111 77.3388 7.75922C77.4145 7.78733 77.484 7.83011 77.5432 7.88512C77.6024 7.94012 77.6501 8.00627 77.6837 8.07976C77.7173 8.15326 77.736 8.23265 77.7389 8.31341C77.7399 8.32724 77.7399 8.34107 77.7399 8.35438V10.5297C77.6043 11.126 77.3181 11.6776 76.9086 12.1318L71.1095 20.5288C73.3099 20.4058 75.5021 20.8873 77.4597 21.9229C77.6353 22.0224 77.782 22.1658 77.8852 22.3392C77.9885 22.5125 78.0449 22.7097 78.0488 22.9115V25.6215C78.0595 25.9549 77.8044 26.2331 77.4787 26.2438C77.3924 26.2465 77.3067 26.2299 77.2277 26.1952C75.415 25.2379 73.3961 24.7375 71.3462 24.7375C69.2962 24.7375 67.2773 25.2379 65.4646 26.1952C65.0779 26.4031 64.6723 25.978 64.6723 25.602V23.0308C64.6372 22.4223 64.7816 21.8169 65.0877 21.2899L71.7861 11.5187H65.9866C65.6408 11.5356 65.3458 11.2616 65.3294 10.9067V10.8959L65.3197 10.9056ZM19.995 26.2489C19.8375 26.2425 19.6876 26.1791 19.5732 26.0706C19.4588 25.9621 19.3876 25.8159 19.3727 25.6589V7.71465C19.374 7.62773 19.3924 7.54191 19.4269 7.46213C19.4614 7.38234 19.5114 7.31015 19.5738 7.24972C19.6363 7.18928 19.7101 7.14177 19.791 7.10993C19.8719 7.07809 19.9583 7.06254 20.0452 7.06416H23.3258C23.4886 7.07082 23.6435 7.13641 23.7616 7.24872C23.8796 7.36104 23.9528 7.51242 23.9676 7.6747V10.0154H24.0281C24.3195 9.02614 24.9327 8.16235 25.7704 7.56081C26.6082 6.95927 27.6226 6.65436 28.6532 6.69436C30.8505 6.69436 32.2344 7.74436 33.2179 10.0154C34.2561 7.34177 37.2709 6.01314 39.9527 7.04777C40.8138 7.37936 41.5711 7.93409 42.147 8.65504C43.2605 10.165 43.0295 12.3557 43.0295 14.2764V25.6087C43.0268 25.6955 43.0071 25.7809 42.9714 25.86C42.9357 25.9392 42.8848 26.0105 42.8215 26.07C42.7583 26.1295 42.6839 26.1759 42.6027 26.2066C42.5215 26.2373 42.435 26.2517 42.3482 26.2489H38.8361C38.6695 26.2415 38.5118 26.1715 38.3946 26.0527C38.2774 25.934 38.2093 25.7754 38.2041 25.6087V16.0967C38.2563 14.975 38.223 13.8523 38.1037 12.7357C38.0358 12.2569 37.7806 11.8246 37.3943 11.5338C37.008 11.2429 36.522 11.1172 36.0431 11.1843L36.037 11.1853C35.5823 11.1998 35.1417 11.3466 34.7692 11.6078C34.3967 11.869 34.1086 12.2332 33.9401 12.6558C33.6464 13.7777 33.5347 14.9394 33.6092 16.0967V25.6082C33.6078 25.6937 33.5896 25.7782 33.5556 25.8567C33.5216 25.9352 33.4724 26.0063 33.4109 26.0657C33.3494 26.1252 33.2767 26.172 33.1971 26.2033C33.1175 26.2347 33.0325 26.25 32.9469 26.2484H29.4256C29.2589 26.241 29.1012 26.171 28.984 26.0522C28.8668 25.9335 28.7988 25.7749 28.7935 25.6082V16.0967C28.7935 14.0961 29.1244 11.1453 26.6367 11.1453C24.1484 11.1453 24.2089 14.0162 24.2089 16.0967V25.6082C24.2076 25.6938 24.1895 25.7782 24.1556 25.8568C24.1216 25.9353 24.0726 26.0065 24.0112 26.066C23.9498 26.1256 23.8772 26.1726 23.7977 26.2041C23.7182 26.2357 23.6332 26.2513 23.5476 26.25C23.5374 26.25 23.5266 26.25 23.5164 26.2489H19.995ZM86.9963 6.69129C92.2212 6.69129 95.0347 11.0583 95.0347 16.6125C95.0347 21.9906 91.92 26.25 86.9963 26.25C81.8723 26.25 79.0788 21.8733 79.0788 16.4363C79.0788 10.9994 81.8723 6.69129 86.9666 6.69129H86.9963ZM84.2258 15.898C84.2258 18.0492 84.2258 22.6472 86.9901 22.6472C89.7545 22.6472 89.8764 18.9338 89.8764 16.6745C89.9363 15.1026 89.7586 13.5296 89.3478 12.0084C89.1224 10.9568 88.1288 10.228 87.0204 10.2987C84.3984 10.2987 84.2258 13.7468 84.2258 15.898ZM101.954 26.2085H98.7087C98.386 26.1977 98.1278 25.9181 98.1227 25.5713V7.65216C98.1565 7.31258 98.428 7.05802 98.7461 7.06468H101.768C102.046 7.08107 102.283 7.28594 102.354 7.57277V10.3002H102.41C103.34 7.86114 104.605 6.69641 106.856 6.69641C108.384 6.61702 109.834 7.4186 110.659 8.79692C111.505 10.2208 111.505 12.6297 111.505 14.3619V25.6907C111.462 26.0205 111.193 26.2623 110.882 26.2484H107.618C107.322 26.2372 107.077 26.0036 107.032 25.6907V15.9948C107.032 14.0034 107.245 11.1766 104.995 11.1766C104.167 11.2227 103.44 11.7835 103.136 12.6097C102.728 13.6894 102.55 14.8424 102.615 15.9948V25.6113C102.6 25.9785 102.309 26.2653 101.966 26.2495L101.954 26.2484V26.2085ZM59.7777 25.9565C59.6661 26.052 59.5278 26.1107 59.3816 26.1246C59.2354 26.1386 59.0884 26.107 58.9608 26.0343C58.1718 25.4005 57.5049 24.6281 56.9929 23.7551C56.3046 24.5844 55.4316 25.2411 54.4439 25.6726C53.4562 26.104 52.3812 26.2983 51.305 26.2397C48.3532 26.2397 46.139 24.4598 46.139 20.9088C46.077 18.4672 47.5429 16.2427 49.8191 15.3233C51.6886 14.5115 54.306 14.345 56.3035 14.1401V13.6894C56.4134 12.8408 56.266 11.9788 55.8804 11.215C55.6505 10.9168 55.3507 10.6796 55.0076 10.5244C54.6644 10.3692 54.2884 10.3006 53.9126 10.3248C52.5988 10.2183 51.41 11.0977 51.1375 12.3787C51.1196 12.5344 51.0513 12.6799 50.9429 12.793C50.8345 12.9061 50.692 12.9806 50.5372 13.0051L47.2018 12.6527C47.0421 12.6203 46.9017 12.526 46.8114 12.3904C46.7211 12.2547 46.6881 12.0888 46.7198 11.929C47.4871 7.90826 51.1478 6.6959 54.434 6.6959C56.3065 6.63182 58.1408 7.23503 59.6097 8.39792C61.2826 9.95294 61.1253 12.0268 61.1253 14.2672V19.5981C61.1423 20.7807 61.6062 21.913 62.4237 22.7676C62.5415 22.8877 62.6075 23.0493 62.6075 23.2175C62.6075 23.3858 62.5415 23.5473 62.4237 23.6675C61.7154 24.2545 60.4559 25.3301 59.7772 25.9468L59.7777 25.9565ZM56.3926 17.6963V16.9854C53.9023 16.9854 51.2845 17.4904 51.2845 20.2793C51.2845 21.6925 52.0492 22.6472 53.3732 22.6472C54.3976 22.6124 55.3181 22.0408 55.7652 21.1593C56.309 20.0915 56.5272 18.887 56.3926 17.6963ZM14.4428 25.957C14.3311 26.0514 14.1932 26.1095 14.0476 26.1235C13.902 26.1375 13.7556 26.1067 13.6279 26.0354C12.8439 25.3977 12.1791 24.626 11.6647 23.7561C10.9798 24.5833 10.1108 25.2388 9.12721 25.6702C8.14365 26.1015 7.07282 26.2967 6.00032 26.2402C3.10437 26.2407 0.846615 24.4609 0.846615 20.9098C0.809059 19.7141 1.14154 18.5359 1.79865 17.5362C2.45576 16.5365 3.40546 15.7641 4.51803 15.3243C6.38344 14.5125 8.98437 14.346 10.9871 14.1407V13.6904C11.0922 12.8421 10.9455 11.9815 10.565 11.216C10.3335 10.9207 10.0342 10.6855 9.69239 10.5305C9.3506 10.3756 8.97648 10.3053 8.60176 10.3258C7.97112 10.2757 7.34374 10.4564 6.8363 10.8342C6.32886 11.212 5.97591 11.7612 5.84308 12.3797C5.8256 12.5353 5.75756 12.6808 5.6494 12.794C5.54124 12.9071 5.39893 12.9817 5.24432 13.0061L1.90686 12.6537C1.75095 12.6168 1.61559 12.5206 1.52952 12.3854C1.44344 12.2503 1.41344 12.0869 1.44588 11.93C2.2111 7.90826 5.86305 6.6959 9.1411 6.6959C11.013 6.63 12.8472 7.23345 14.3143 8.39792C15.9932 9.95346 15.8263 12.0273 15.8263 14.2677V19.5986C15.8427 20.7808 16.3056 21.913 17.1221 22.7681C17.3716 23.0088 17.3782 23.4047 17.137 23.6531L17.1221 23.668C16.4255 24.255 15.1589 25.3311 14.4915 25.9473L14.4423 25.957H14.4428ZM11.1023 16.9854C8.61508 16.9854 5.99059 17.4904 5.99059 20.2793C5.99059 21.6925 6.764 22.6472 8.07625 22.6472C9.095 22.6062 10.0088 22.0341 10.4559 21.1593C11.0055 20.0932 11.2303 18.8894 11.1023 17.6968V16.9854ZM45.8517 41.1753C35.0362 41.2358 24.5879 37.024 16.5495 29.3595C15.9379 28.7853 16.4803 27.9914 17.2102 28.4406C26.1619 33.8433 36.289 36.6767 46.5918 36.6614C54.2727 36.6219 61.87 34.9788 68.9506 31.8247C70.0058 31.334 70.9226 32.5879 69.848 33.4227C63.3585 38.4791 53.9592 41.1753 45.8517 41.1753ZM72.4228 30.3117C71.5787 29.2156 66.8368 29.7892 64.7066 30.0561C64.0535 30.1268 63.9537 29.5536 64.536 29.1439C68.3237 26.441 74.5228 27.219 75.246 28.12C75.9692 29.0215 75.055 35.3486 71.5085 38.3588C70.9559 38.83 70.4432 38.5739 70.6849 37.9695C71.4788 35.9525 73.2664 31.4175 72.4228 30.3117ZM181.667 23.269C182.328 22.8101 182.705 22.0612 182.668 21.2766C182.68 21.0127 182.634 20.7495 182.534 20.5052C182.433 20.2609 182.281 20.0414 182.087 19.8619C181.448 19.3656 180.721 18.9935 179.944 18.7648L176.72 17.6092C173.926 16.6468 172.512 14.9146 172.512 12.518C172.464 11.0122 173.177 9.57597 174.426 8.66734C175.874 7.64807 177.641 7.13587 179.434 7.21424C181.075 7.21424 182.704 7.49799 184.241 8.05168C184.488 8.11556 184.713 8.24532 184.892 8.42711C185.027 8.6407 185.09 8.88963 185.071 9.13907V10.102C185.071 10.5348 184.912 10.7561 184.581 10.7561C184.284 10.7342 183.991 10.6727 183.71 10.5732C182.382 10.1894 181.007 9.99509 179.624 9.99597C177.201 9.99597 175.978 10.7755 175.978 12.3541C175.964 12.6325 176.011 12.9108 176.116 13.1688C176.222 13.4268 176.384 13.6581 176.589 13.8461C177.313 14.3724 178.118 14.7757 178.973 15.0396L181.977 16.1269C183.176 16.537 184.259 17.2305 185.132 18.1486C185.822 18.9787 186.179 20.0351 186.134 21.1132C186.195 22.7097 185.447 24.2376 184.131 25.2133C182.575 26.3068 180.676 26.8498 178.753 26.7545C176.799 26.7806 174.858 26.434 173.034 25.7332C172.8 25.6512 172.587 25.5162 172.414 25.3388C172.287 25.1308 172.227 24.8888 172.243 24.6458V23.6265C172.243 23.1922 172.394 22.9709 172.694 22.9709C173.019 23.0042 173.339 23.0786 173.645 23.1922C175.327 23.7036 177.075 23.96 178.833 23.9528C179.827 24.0208 180.817 23.7786 181.667 23.2598V23.269ZM164.975 7.95743C164.951 7.78404 164.997 7.60833 165.103 7.46869C165.208 7.32905 165.365 7.23684 165.538 7.21219C165.597 7.20451 165.657 7.20451 165.716 7.21321H167.89C167.975 7.20139 168.062 7.20659 168.146 7.22851C168.23 7.25043 168.308 7.28865 168.377 7.34095C168.445 7.39326 168.503 7.45863 168.546 7.53331C168.59 7.60799 168.618 7.6905 168.629 7.77612C168.638 7.83655 168.638 7.89802 168.63 7.95743V25.4305C168.683 25.7946 168.436 26.1322 168.079 26.1849C168.016 26.1949 167.952 26.1949 167.889 26.1849H166.3C166.101 26.1955 165.904 26.1436 165.736 26.0364C165.573 25.8909 165.472 25.6889 165.453 25.4714L165.199 24.1602C163.203 25.783 160.723 26.6947 158.151 26.7514C157.408 26.8035 156.662 26.6968 155.963 26.4383C155.263 26.1798 154.627 25.7755 154.096 25.2522C153.103 24.0719 152.6 22.5554 152.692 21.0153V7.95692C152.669 7.78334 152.715 7.60757 152.821 7.46796C152.926 7.32834 153.083 7.23621 153.256 7.21168C153.315 7.2036 153.375 7.20394 153.434 7.2127H155.607C155.708 7.19849 155.811 7.20799 155.908 7.24043C156.004 7.27287 156.092 7.32737 156.164 7.3996C156.236 7.47183 156.29 7.5598 156.321 7.65654C156.353 7.75328 156.362 7.85613 156.348 7.95692V19.8639C156.262 20.9147 156.534 21.9636 157.118 22.8408C157.426 23.187 157.81 23.4569 158.239 23.6291C158.669 23.8013 159.133 23.8711 159.594 23.8329C161.514 23.7795 163.374 23.1546 164.937 22.0382L164.975 7.95692V7.95743ZM145.138 26.2428C145.052 26.2551 144.965 26.2503 144.881 26.2287C144.797 26.2072 144.718 26.1692 144.648 26.1171C144.579 26.0649 144.52 25.9996 144.476 25.9249C144.432 25.8501 144.403 25.7674 144.391 25.6814C144.381 25.6179 144.381 25.5534 144.391 25.4888V13.3606C144.465 12.3819 144.217 11.406 143.683 10.5819C143.408 10.2683 143.062 10.0241 142.675 9.86887C142.287 9.71368 141.868 9.65194 141.452 9.68865C139.509 9.7307 137.616 10.3151 135.988 11.3758C136.004 11.5602 136.004 11.7467 135.988 11.9316V25.4883C136.003 25.5903 135.994 25.6944 135.962 25.7923C135.93 25.8902 135.875 25.9793 135.803 26.0525C135.73 26.1256 135.641 26.1809 135.544 26.2138C135.446 26.2468 135.342 26.2565 135.24 26.2423H133.049C132.963 26.2546 132.876 26.2498 132.792 26.2282C132.708 26.2067 132.629 26.1687 132.559 26.1166C132.49 26.0644 132.432 25.9991 132.388 25.9243C132.343 25.8496 132.315 25.7669 132.303 25.6809C132.292 25.6174 132.292 25.5529 132.303 25.4883V13.3606C132.374 12.3834 132.129 11.4092 131.604 10.5819C131.328 10.2697 130.982 10.0264 130.595 9.87132C130.207 9.71625 129.789 9.6537 129.373 9.68865C127.441 9.70124 125.553 10.2734 123.939 11.3359V25.4878C123.965 25.6618 123.92 25.839 123.816 25.9803C123.711 26.1217 123.555 26.2157 123.381 26.2418C123.321 26.2504 123.261 26.2506 123.201 26.2423H121C120.899 26.2552 120.796 26.2445 120.699 26.2109C120.602 26.1773 120.515 26.1218 120.444 26.0488C120.372 25.9757 120.319 25.8871 120.287 25.7898C120.256 25.6926 120.247 25.5894 120.262 25.4883V8.0107C120.237 7.83963 120.28 7.66537 120.382 7.52594C120.485 7.38652 120.638 7.29325 120.809 7.26648C120.872 7.25652 120.937 7.25652 121 7.26648H122.651C122.851 7.25624 123.05 7.30797 123.221 7.41502C123.383 7.55741 123.485 7.75563 123.506 7.97126L123.722 9.17185C125.733 7.65316 128.163 6.79046 130.681 6.70102C132.989 6.70102 134.543 7.58404 135.369 9.36033C137.474 7.7073 140.055 6.77497 142.73 6.70102C144.185 6.60933 145.611 7.13843 146.661 8.15975C147.641 9.31521 148.135 10.8058 148.038 12.3177V25.4878C148.053 25.5897 148.044 25.6937 148.012 25.7916C147.98 25.8895 147.925 25.9785 147.853 26.0517C147.78 26.1249 147.692 26.1801 147.594 26.2131C147.496 26.2461 147.392 26.2559 147.29 26.2418H145.138V26.2428ZM202.1 11.8301C201.191 12.8745 200.736 14.5448 200.736 16.8404V17.3198C200.736 19.5607 201.204 21.234 202.12 22.2123C202.691 22.7763 203.378 23.2093 204.134 23.4814C204.889 23.7534 205.695 23.858 206.494 23.7878C207.618 23.7725 208.733 23.5983 209.807 23.269C209.988 23.2151 210.174 23.1791 210.363 23.1614C210.684 23.1614 210.84 23.4063 210.84 23.8954V24.8737C210.858 25.1185 210.808 25.3623 210.693 25.5785C210.54 25.7695 210.333 25.9083 210.099 25.9806C208.768 26.5256 207.339 26.7918 205.9 26.7627C202.977 26.7627 200.785 25.9309 199.246 24.2683C197.706 22.6037 196.946 20.1963 196.946 17.0458C196.946 13.8948 197.735 11.4977 199.324 9.78494C200.198 8.90536 201.25 8.22189 202.409 7.77991C203.568 7.33793 204.808 7.14755 206.046 7.22141C207.377 7.22408 208.696 7.4627 209.944 7.92619C210.165 7.99175 210.364 8.11672 210.518 8.2878C210.645 8.51419 210.703 8.77336 210.684 9.03151V10.0098C210.684 10.4995 210.518 10.7443 210.206 10.7443C210.004 10.7344 209.805 10.6983 209.612 10.6367C208.619 10.3448 207.588 10.1962 206.553 10.1962C204.507 10.2649 203.026 10.7832 202.11 11.8301H202.1ZM192.607 8.23965C192.959 8.18843 193.285 8.4348 193.335 8.78924C193.343 8.84712 193.345 8.90653 193.337 8.96543V26.0195C193.351 26.1189 193.343 26.2204 193.311 26.3159C193.28 26.4113 193.227 26.4982 193.156 26.5696C193.085 26.6409 192.999 26.6948 192.904 26.727C192.808 26.7592 192.707 26.7688 192.607 26.755H190.467C190.383 26.7658 190.298 26.7599 190.216 26.7376C190.135 26.7154 190.058 26.6772 189.991 26.6254C189.924 26.5735 189.868 26.5089 189.826 26.4354C189.784 26.3618 189.757 26.2807 189.747 26.1967C189.738 26.1379 189.739 26.0782 189.748 26.0195V8.97516C189.733 8.87703 189.742 8.77685 189.773 8.68257C189.804 8.5883 189.856 8.50253 189.926 8.43208C189.996 8.36163 190.081 8.30844 190.175 8.27672C190.269 8.24501 190.369 8.23565 190.467 8.24938L192.607 8.23965ZM193.245 1.14524C194.063 2.10816 194.063 3.54846 193.245 4.51138C192.773 4.91975 192.17 5.14454 191.547 5.14454C190.923 5.14454 190.32 4.91975 189.849 4.51138C189.018 3.5546 189.018 2.10202 189.849 1.14524C190.32 0.73687 190.923 0.512085 191.547 0.512085C192.17 0.512085 192.773 0.73687 193.245 1.14524Z" fill="#AB9DD4"/>
</g>
<defs>
<clipPath id="clip0_4496_10053">
<rect width="210" height="42" fill="white" transform="translate(0.84375)"/>
</clipPath>
</defs>
</svg>
