<svg width="287" height="40" viewBox="0 0 287 40" fill="none" xmlns="http://www.w3.org/2000/svg">
<path d="M21.9144 23.8727C21.1622 23.0791 19.8409 22.5704 18.2811 22.5704C16.7212 22.5704 15.3999 23.0791 14.6477 23.8727C14.2552 24.2869 14.0476 24.7113 13.9823 25.3161C13.8555 26.4872 13.9267 27.4955 14.0639 29.1076C14.1946 30.6438 14.4429 32.6923 14.7668 34.7787C14.9973 36.2635 15.1846 37.0649 15.3551 37.6388C15.6316 38.5688 16.665 39.3821 18.2811 39.3821C19.8971 39.3821 20.9305 38.5686 21.207 37.6388C21.3775 37.0649 21.5648 36.2635 21.7953 34.7787C22.1192 32.6923 22.3675 30.6438 22.4982 29.1076C22.6354 27.4953 22.7066 26.487 22.5798 25.3161C22.5145 24.7115 22.3069 24.2869 21.9144 23.8727ZM14.1823 16.8066C14.1823 19.0721 16.0191 20.9087 18.2849 20.9087C20.5509 20.9087 22.3878 19.0721 22.3878 16.8066C22.3878 14.541 20.5509 12.7044 18.2849 12.7044C16.0191 12.7044 14.1823 14.541 14.1823 16.8066ZM18.2341 0.617993C8.63882 0.645283 0.77637 8.42847 0.657631 18.0217C0.561206 25.793 5.52273 32.4405 12.4508 34.8771C12.619 34.9363 12.7897 34.7966 12.7632 34.6203C12.6723 34.017 12.5867 33.4106 12.508 32.8144C12.4801 32.6037 12.3458 32.422 12.1512 32.337C6.67525 29.945 2.85151 24.454 2.91287 18.0935C2.99335 9.74635 9.81046 2.94141 18.1588 2.87389C26.6935 2.80496 33.6586 9.72663 33.6586 18.2442C33.6586 24.541 29.8516 29.9647 24.4183 32.3376C24.2237 32.4226 24.0902 32.6049 24.0625 32.8154C23.9838 33.4114 23.8981 34.0176 23.8075 34.6203C23.7808 34.7966 23.9515 34.9363 24.1197 34.8773C30.9816 32.464 35.9142 25.9199 35.9142 18.2444C35.9138 8.50795 27.9781 0.590106 18.2341 0.617993ZM17.9156 8.70435C23.355 8.4938 27.8472 12.857 27.8472 18.2496C27.8472 20.9922 26.6851 23.4682 24.8277 25.2119C24.6701 25.3597 24.5855 25.5697 24.5976 25.7854C24.6347 26.4414 24.6211 27.0788 24.5775 27.7987C24.5657 27.9905 24.7809 28.113 24.9397 28.0048C28.0544 25.8766 30.103 22.2981 30.103 18.2496C30.103 11.5837 24.5498 6.1901 17.8261 6.45065C11.5776 6.69287 6.56448 11.8439 6.48439 18.0958C6.43179 22.2076 8.49298 25.8503 11.6477 28.0052C11.8061 28.1134 12.0207 27.9907 12.0089 27.7991C11.9651 27.0788 11.9517 26.4414 11.9886 25.7854C12.0008 25.5699 11.9163 25.3599 11.7591 25.2123C9.84374 23.4144 8.66751 20.8378 8.74241 17.9933C8.8743 12.9875 12.9108 8.89817 17.9156 8.70435Z" fill="#AB9DD4"/>
<path d="M65.3785 22.7003H55.9483L53.6837 29.3861H49.6895L58.6215 4.64819H62.7714L71.7035 29.3861H67.6411L65.3785 22.7003ZM56.9249 19.615H64.3999L60.715 8.76238H60.6118L56.9249 19.615Z" fill="#AB9DD4"/>
<path d="M90.9935 20.3697C90.9935 25.9741 87.9934 29.5747 83.4662 29.5747C80.8961 29.5747 78.8551 28.4252 77.791 26.4195H77.7053V35.3522H74.0029V11.3515H77.5866V14.3512H77.6547C78.6839 12.4156 80.8786 11.1628 83.398 11.1628C87.9758 11.1628 90.9935 14.781 90.9935 20.3697ZM87.1879 20.3697C87.1879 16.7184 85.3006 14.3179 82.4212 14.3179C79.5924 14.3179 77.6896 16.769 77.6896 20.3697C77.6896 24.0034 79.5924 26.437 82.4212 26.437C85.3008 26.437 87.1879 24.0542 87.1879 20.3697Z" fill="#AB9DD4"/>
<path d="M110.846 20.3697C110.846 25.9741 107.846 29.5747 103.319 29.5747C100.749 29.5747 98.7078 28.4252 97.6436 26.4195H97.5579V35.3522H93.8555V11.3515H97.4391V14.3512H97.5073C98.5365 12.4156 100.731 11.1628 103.251 11.1628C107.829 11.1628 110.846 14.781 110.846 20.3697ZM107.041 20.3697C107.041 16.7184 105.153 14.3179 102.274 14.3179C99.4452 14.3179 97.5423 16.769 97.5423 20.3697C97.5423 24.0034 99.4452 26.437 102.274 26.437C105.153 26.437 107.041 24.0542 107.041 20.3697Z" fill="#AB9DD4"/>
<path d="M113.845 4.64819H117.549V29.3861H113.845V4.64819Z" fill="#AB9DD4"/>
<path d="M136.825 24.0889C136.327 27.3629 133.139 29.6096 129.059 29.6096C123.812 29.6096 120.555 26.0946 120.555 20.4552C120.555 14.7984 123.829 11.1296 128.903 11.1296C133.893 11.1296 137.032 14.5572 137.032 20.0253V21.2936H124.292V21.5173C124.292 24.6025 126.23 26.6257 129.144 26.6257C131.201 26.6257 132.814 25.6492 133.31 24.0891L136.825 24.0889ZM124.31 18.7065H133.327C133.242 15.9462 131.475 14.1291 128.903 14.1291C126.349 14.1291 124.498 15.9811 124.31 18.7065Z" fill="#AB9DD4"/>
<path d="M156.752 4.64819C161.552 4.64819 164.896 7.95704 164.896 12.7756C164.896 17.6097 161.484 20.9341 156.631 20.9341H151.316V29.3863H147.476V4.64819H156.752ZM151.316 17.7127H155.723C159.065 17.7127 160.968 15.9113 160.968 12.7931C160.968 9.67291 159.065 7.88811 155.74 7.88811H151.316V17.7127Z" fill="#AB9DD4"/>
<path d="M166.248 20.3695C166.248 14.6952 169.59 11.1294 174.803 11.1294C180.032 11.1294 183.359 14.695 183.359 20.3695C183.359 26.0593 180.05 29.6096 174.803 29.6096C169.557 29.6096 166.248 26.0595 166.248 20.3695ZM179.587 20.3695C179.587 16.477 177.803 14.1797 174.803 14.1797C171.802 14.1797 170.018 16.4945 170.018 20.3695C170.018 24.2775 171.802 26.5573 174.803 26.5573C177.803 26.5573 179.587 24.2777 179.587 20.3695Z" fill="#AB9DD4"/>
<path d="M185.959 20.3697C185.959 14.7984 189.027 11.1626 193.502 11.1626C196.091 11.1626 198.132 12.3628 199.159 14.351H199.23V4.64795H202.95V29.3859H199.348V26.3183H199.28C198.218 28.3744 196.16 29.5747 193.537 29.5747C189.027 29.5747 185.959 25.941 185.959 20.3697ZM189.747 20.3697C189.747 24.0715 191.634 26.437 194.514 26.437C197.36 26.437 199.263 24.0365 199.263 20.3697C199.263 16.734 197.36 14.3179 194.514 14.3179C191.634 14.3181 189.747 16.7009 189.747 20.3697Z" fill="#AB9DD4"/>
<path d="M218.704 17.5567C218.38 15.6542 216.887 14.2323 214.453 14.2323C211.607 14.2323 209.72 16.6153 209.72 20.3697C209.72 24.2096 211.625 26.5227 214.486 26.5227C216.784 26.5227 218.294 25.3749 218.704 23.2838H222.271C221.86 27.0713 218.825 29.6098 214.453 29.6098C209.309 29.6098 205.949 26.0948 205.949 20.3697C205.949 14.7634 209.309 11.1296 214.418 11.1296C219.047 11.1296 221.928 14.0437 222.238 17.5569L218.704 17.5567Z" fill="#AB9DD4"/>
<path d="M224.539 24.2602C224.539 21.1069 226.955 19.2024 231.242 18.9456L236.179 18.6714V17.2999C236.179 15.2944 234.86 14.1622 232.615 14.1622C230.557 14.1622 229.117 15.1406 228.825 16.7007H225.362C225.465 13.4425 228.498 11.1294 232.716 11.1294C237.02 11.1294 239.866 13.4773 239.866 17.0256V29.3859H236.318V26.4193H236.232C235.185 28.4248 232.905 29.6951 230.539 29.6951C227.008 29.6953 224.539 27.5009 224.539 24.2602ZM236.179 22.632V21.243L231.74 21.5173C229.527 21.6553 228.277 22.6144 228.277 24.157C228.277 25.7346 229.58 26.7637 231.569 26.7637C234.158 26.7637 236.179 24.9799 236.179 22.632Z" fill="#AB9DD4"/>
<path d="M250.201 11.1472C254.197 11.1472 257.059 13.3571 257.145 16.5454H253.664C253.511 14.9523 252.157 13.9758 250.098 13.9758C248.092 13.9758 246.756 14.8999 246.756 16.3062C246.756 17.3858 247.647 18.1055 249.516 18.5685L252.551 19.2726C256.186 20.1461 257.557 21.4825 257.557 24.124C257.557 27.3805 254.472 29.6097 250.065 29.6097C245.812 29.6097 242.95 27.4309 242.676 24.1396H246.343C246.602 25.8708 247.989 26.7968 250.236 26.7968C252.448 26.7968 253.837 25.8883 253.837 24.4489C253.837 23.3342 253.151 22.735 251.265 22.2546L248.042 21.4668C244.783 20.6769 243.137 19.0139 243.137 16.5122C243.137 13.3238 246.001 11.1472 250.201 11.1472Z" fill="#AB9DD4"/>
<path d="M265.602 7.08252V11.3515H269.032V14.2831H265.602V24.2253C265.602 25.7699 266.289 26.4896 267.797 26.4896C268.175 26.4896 268.776 26.437 269.015 26.4039V29.318C268.604 29.4211 267.781 29.4891 266.958 29.4891C263.307 29.4891 261.882 28.1176 261.882 24.6201V14.2829H259.26V11.3515H261.882V7.08252H265.602Z" fill="#AB9DD4"/>
<path d="M278.988 11.1472C282.985 11.1472 285.846 13.3571 285.932 16.5454H282.451C282.298 14.9523 280.944 13.9758 278.885 13.9758C276.879 13.9758 275.543 14.8999 275.543 16.3062C275.543 17.3858 276.434 18.1055 278.303 18.5685L281.339 19.2726C284.973 20.1461 286.344 21.4825 286.344 24.124C286.344 27.3805 283.259 29.6097 278.852 29.6097C274.599 29.6097 271.737 27.4309 271.463 24.1396H275.13C275.389 25.8708 276.776 26.7968 279.023 26.7968C281.235 26.7968 282.625 25.8883 282.625 24.4489C282.625 23.3342 281.938 22.735 280.052 22.2546L276.829 21.4668C273.57 20.6769 271.924 19.0139 271.924 16.5122C271.924 13.3238 274.788 11.1472 278.988 11.1472Z" fill="#AB9DD4"/>
</svg>
