<svg width="1366" height="768" viewBox="0 0 1366 768" fill="none" xmlns="http://www.w3.org/2000/svg">
<g id="Background_Bifrost" clip-path="url(#clip0_1680_8173)">
<rect width="1366" height="768" fill="white"/>
<g id="Background">
<rect id="Rectangle 71" y="1" width="1366" height="768" fill="#190E3D"/>
<g id="Stars" filter="url(#filter0_f_1680_8173)">
<g id="Icons">
<path id="Vector" d="M45.1502 277.6C46.1774 277.6 46.9991 276.765 46.9991 275.722C46.9991 272.383 49.6698 269.878 52.7513 269.878C53.7785 269.878 54.6002 269.043 54.6002 268C54.6002 266.956 53.7785 266.122 52.7513 266.122C49.4643 266.122 46.9991 263.409 46.9991 260.278C46.9991 259.235 46.1774 258.4 45.1502 258.4C44.123 258.4 43.3013 259.235 43.3013 260.278C43.3013 263.617 40.6306 266.122 37.5491 266.122C36.5219 266.122 35.7002 266.956 35.7002 268C35.7002 269.043 36.5219 269.878 37.5491 269.878C40.8361 269.878 43.3013 272.591 43.3013 275.722C43.3013 276.765 44.123 277.6 45.1502 277.6Z" fill="#DFDCE4"/>
</g>
<g id="Icons_2">
<path id="Vector_2" d="M289.15 707.6C290.177 707.6 290.999 706.765 290.999 705.722C290.999 702.383 293.67 699.878 296.751 699.878C297.778 699.878 298.6 699.044 298.6 698C298.6 696.957 297.778 696.122 296.751 696.122C293.464 696.122 290.999 693.409 290.999 690.278C290.999 689.235 290.177 688.4 289.15 688.4C288.123 688.4 287.301 689.235 287.301 690.278C287.301 693.617 284.631 696.122 281.549 696.122C280.522 696.122 279.7 696.957 279.7 698C279.7 699.044 280.522 699.878 281.549 699.878C284.836 699.878 287.301 702.591 287.301 705.722C287.301 706.765 288.123 707.6 289.15 707.6Z" fill="#DFDCE4"/>
</g>
<g id="Icons_3">
<path id="Vector_3" d="M1339.15 92.5999C1340.18 92.5999 1341 91.7651 1341 90.7216C1341 87.3825 1343.67 84.8782 1346.75 84.8782C1347.78 84.8782 1348.6 84.0434 1348.6 82.9999C1348.6 81.9564 1347.78 81.1216 1346.75 81.1216C1343.46 81.1216 1341 78.4086 1341 75.2782C1341 74.2347 1340.18 73.3999 1339.15 73.3999C1338.12 73.3999 1337.3 74.2347 1337.3 75.2782C1337.3 78.6173 1334.63 81.1216 1331.55 81.1216C1330.52 81.1216 1329.7 81.9564 1329.7 82.9999C1329.7 84.0434 1330.52 84.8782 1331.55 84.8782C1334.84 84.8782 1337.3 87.5912 1337.3 90.7216C1337.3 91.7651 1338.12 92.5999 1339.15 92.5999Z" fill="#DFDCE4"/>
</g>
<g id="Icons_4">
<path id="Vector_4" d="M854.15 155.6C855.177 155.6 855.999 154.765 855.999 153.722C855.999 150.383 858.67 147.878 861.751 147.878C862.778 147.878 863.6 147.043 863.6 146C863.6 144.956 862.778 144.122 861.751 144.122C858.464 144.122 855.999 141.409 855.999 138.278C855.999 137.235 855.177 136.4 854.15 136.4C853.123 136.4 852.301 137.235 852.301 138.278C852.301 141.617 849.631 144.122 846.549 144.122C845.522 144.122 844.7 144.956 844.7 146C844.7 147.043 845.522 147.878 846.549 147.878C849.836 147.878 852.301 150.591 852.301 153.722C852.301 154.765 853.123 155.6 854.15 155.6Z" fill="#DFDCE4"/>
</g>
<g id="Icons_5">
<path id="Vector_5" d="M1246.15 303.6C1247.18 303.6 1248 302.765 1248 301.722C1248 298.383 1250.67 295.878 1253.75 295.878C1254.78 295.878 1255.6 295.043 1255.6 294C1255.6 292.956 1254.78 292.122 1253.75 292.122C1250.46 292.122 1248 289.409 1248 286.278C1248 285.235 1247.18 284.4 1246.15 284.4C1245.12 284.4 1244.3 285.235 1244.3 286.278C1244.3 289.617 1241.63 292.122 1238.55 292.122C1237.52 292.122 1236.7 292.956 1236.7 294C1236.7 295.043 1237.52 295.878 1238.55 295.878C1241.84 295.878 1244.3 298.591 1244.3 301.722C1244.3 302.765 1245.12 303.6 1246.15 303.6Z" fill="#DFDCE4"/>
</g>
<g id="Icons_6">
<path id="Vector_6" d="M385.15 610.6C386.177 610.6 386.999 609.765 386.999 608.722C386.999 605.383 389.67 602.878 392.751 602.878C393.778 602.878 394.6 602.044 394.6 601C394.6 599.957 393.778 599.122 392.751 599.122C389.464 599.122 386.999 596.409 386.999 593.278C386.999 592.235 386.177 591.4 385.15 591.4C384.123 591.4 383.301 592.235 383.301 593.278C383.301 596.617 380.631 599.122 377.549 599.122C376.522 599.122 375.7 599.957 375.7 601C375.7 602.044 376.522 602.878 377.549 602.878C380.836 602.878 383.301 605.591 383.301 608.722C383.301 609.765 384.123 610.6 385.15 610.6Z" fill="#DE3D64"/>
</g>
<g id="Icons_7">
<path id="Vector_7" d="M721.15 58.5999C722.177 58.5999 722.999 57.7651 722.999 56.7216C722.999 53.3825 725.67 50.8782 728.751 50.8782C729.778 50.8782 730.6 50.0434 730.6 48.9999C730.6 47.9564 729.778 47.1216 728.751 47.1216C725.464 47.1216 722.999 44.4086 722.999 41.2782C722.999 40.2347 722.177 39.3999 721.15 39.3999C720.123 39.3999 719.301 40.2347 719.301 41.2782C719.301 44.6173 716.631 47.1216 713.549 47.1216C712.522 47.1216 711.7 47.9564 711.7 48.9999C711.7 50.0434 712.522 50.8782 713.549 50.8782C716.836 50.8782 719.301 53.5912 719.301 56.7216C719.301 57.7651 720.123 58.5999 721.15 58.5999Z" fill="#DFDCE4"/>
</g>
<g id="Icons_8">
<path id="Vector_8" d="M28.1502 47.5999C29.1774 47.5999 29.9991 46.7651 29.9991 45.7216C29.9991 42.3825 32.6698 39.8782 35.7513 39.8782C36.7785 39.8782 37.6002 39.0434 37.6002 37.9999C37.6002 36.9564 36.7785 36.1216 35.7513 36.1216C32.4643 36.1216 29.9991 33.4086 29.9991 30.2782C29.9991 29.2347 29.1774 28.3999 28.1502 28.3999C27.123 28.3999 26.3013 29.2347 26.3013 30.2782C26.3013 33.6173 23.6306 36.1216 20.5491 36.1216C19.5219 36.1216 18.7002 36.9564 18.7002 37.9999C18.7002 39.0434 19.5219 39.8782 20.5491 39.8782C23.8361 39.8782 26.3013 42.5912 26.3013 45.7216C26.3013 46.7651 27.123 47.5999 28.1502 47.5999Z" fill="#DFDCE4"/>
</g>
<g id="Icons_9">
<path id="Vector_9" d="M43.1502 734.6C44.1774 734.6 44.9991 733.765 44.9991 732.722C44.9991 729.383 47.6698 726.878 50.7513 726.878C51.7785 726.878 52.6002 726.044 52.6002 725C52.6002 723.957 51.7785 723.122 50.7513 723.122C47.4643 723.122 44.9991 720.409 44.9991 717.278C44.9991 716.235 44.1774 715.4 43.1502 715.4C42.123 715.4 41.3013 716.235 41.3013 717.278C41.3013 720.617 38.6306 723.122 35.5491 723.122C34.5219 723.122 33.7002 723.957 33.7002 725C33.7002 726.044 34.5219 726.878 35.5491 726.878C38.8361 726.878 41.3013 729.591 41.3013 732.722C41.3013 733.765 42.123 734.6 43.1502 734.6Z" fill="#DFDCE4"/>
</g>
<g id="Icons_10">
<path id="Vector_10" d="M772.15 444.6C773.177 444.6 773.999 443.765 773.999 442.722C773.999 439.383 776.67 436.878 779.751 436.878C780.778 436.878 781.6 436.044 781.6 435C781.6 433.957 780.778 433.122 779.751 433.122C776.464 433.122 773.999 430.409 773.999 427.278C773.999 426.235 773.177 425.4 772.15 425.4C771.123 425.4 770.301 426.235 770.301 427.278C770.301 430.617 767.631 433.122 764.549 433.122C763.522 433.122 762.7 433.957 762.7 435C762.7 436.044 763.522 436.878 764.549 436.878C767.836 436.878 770.301 439.591 770.301 442.722C770.301 443.765 771.123 444.6 772.15 444.6Z" fill="#DFDCE4"/>
</g>
<g id="Icons_11">
<path id="Vector_11" d="M809.1 276.4C809.785 276.4 810.332 275.844 810.332 275.148C810.332 272.922 812.113 271.252 814.167 271.252C814.852 271.252 815.4 270.696 815.4 270C815.4 269.304 814.852 268.748 814.167 268.748C811.976 268.748 810.332 266.939 810.332 264.852C810.332 264.157 809.785 263.6 809.1 263.6C808.415 263.6 807.867 264.157 807.867 264.852C807.867 267.078 806.087 268.748 804.032 268.748C803.348 268.748 802.8 269.304 802.8 270C802.8 270.696 803.348 271.252 804.032 271.252C806.224 271.252 807.867 273.061 807.867 275.148C807.867 275.844 808.415 276.4 809.1 276.4Z" fill="#DFDCE4"/>
</g>
<g id="Icons_12">
<path id="Vector_12" d="M1064.15 519.6C1065.18 519.6 1066 518.765 1066 517.722C1066 514.383 1068.67 511.878 1071.75 511.878C1072.78 511.878 1073.6 511.044 1073.6 510C1073.6 508.957 1072.78 508.122 1071.75 508.122C1068.46 508.122 1066 505.409 1066 502.278C1066 501.235 1065.18 500.4 1064.15 500.4C1063.12 500.4 1062.3 501.235 1062.3 502.278C1062.3 505.617 1059.63 508.122 1056.55 508.122C1055.52 508.122 1054.7 508.957 1054.7 510C1054.7 511.044 1055.52 511.878 1056.55 511.878C1059.84 511.878 1062.3 514.591 1062.3 517.722C1062.3 518.765 1063.12 519.6 1064.15 519.6Z" fill="#DFDCE4"/>
</g>
<g id="Icons_13">
<path id="Vector_13" d="M1062.15 302.6C1063.18 302.6 1064 301.765 1064 300.722C1064 297.383 1066.67 294.878 1069.75 294.878C1070.78 294.878 1071.6 294.043 1071.6 293C1071.6 291.956 1070.78 291.122 1069.75 291.122C1066.46 291.122 1064 288.409 1064 285.278C1064 284.235 1063.18 283.4 1062.15 283.4C1061.12 283.4 1060.3 284.235 1060.3 285.278C1060.3 288.617 1057.63 291.122 1054.55 291.122C1053.52 291.122 1052.7 291.956 1052.7 293C1052.7 294.043 1053.52 294.878 1054.55 294.878C1057.84 294.878 1060.3 297.591 1060.3 300.722C1060.3 301.765 1061.12 302.6 1062.15 302.6Z" fill="#DFDCE4"/>
</g>
<g id="Icons_14">
<path id="Vector_14" d="M112.15 640.6C113.177 640.6 113.999 639.765 113.999 638.722C113.999 635.383 116.67 632.878 119.751 632.878C120.778 632.878 121.6 632.044 121.6 631C121.6 629.957 120.778 629.122 119.751 629.122C116.464 629.122 113.999 626.409 113.999 623.278C113.999 622.235 113.177 621.4 112.15 621.4C111.123 621.4 110.301 622.235 110.301 623.278C110.301 626.617 107.631 629.122 104.549 629.122C103.522 629.122 102.7 629.957 102.7 631C102.7 632.044 103.522 632.878 104.549 632.878C107.836 632.878 110.301 635.591 110.301 638.722C110.301 639.765 111.123 640.6 112.15 640.6Z" fill="#DFDCE4"/>
</g>
<g id="Icons_15">
<path id="Vector_15" d="M595.15 524.6C596.177 524.6 596.999 523.765 596.999 522.722C596.999 519.383 599.67 516.878 602.751 516.878C603.778 516.878 604.6 516.044 604.6 515C604.6 513.957 603.778 513.122 602.751 513.122C599.464 513.122 596.999 510.409 596.999 507.278C596.999 506.235 596.177 505.4 595.15 505.4C594.123 505.4 593.301 506.235 593.301 507.278C593.301 510.617 590.631 513.122 587.549 513.122C586.522 513.122 585.7 513.957 585.7 515C585.7 516.044 586.522 516.878 587.549 516.878C590.836 516.878 593.301 519.591 593.301 522.722C593.301 523.765 594.123 524.6 595.15 524.6Z" fill="#DFDCE4"/>
</g>
<g id="Icons_16">
<path id="Vector_16" d="M268.05 18.2C268.392 18.2 268.666 17.9218 268.666 17.574C268.666 16.4609 269.556 15.6261 270.584 15.6261C270.926 15.6261 271.2 15.3479 271.2 15C271.2 14.6522 270.926 14.374 270.584 14.374C269.488 14.374 268.666 13.4696 268.666 12.4261C268.666 12.0783 268.392 11.8 268.05 11.8C267.708 11.8 267.434 12.0783 267.434 12.4261C267.434 13.5392 266.543 14.374 265.516 14.374C265.174 14.374 264.9 14.6522 264.9 15C264.9 15.3479 265.174 15.6261 265.516 15.6261C266.612 15.6261 267.434 16.5305 267.434 17.574C267.434 17.9218 267.708 18.2 268.05 18.2Z" fill="#DFDCE4"/>
</g>
<g id="Icons_17">
<path id="Vector_17" d="M603.1 124.4C603.785 124.4 604.332 123.844 604.332 123.148C604.332 120.922 606.113 119.252 608.167 119.252C608.852 119.252 609.4 118.696 609.4 118C609.4 117.304 608.852 116.748 608.167 116.748C605.976 116.748 604.332 114.939 604.332 112.852C604.332 112.157 603.785 111.6 603.1 111.6C602.415 111.6 601.867 112.157 601.867 112.852C601.867 115.078 600.087 116.748 598.032 116.748C597.348 116.748 596.8 117.304 596.8 118C596.8 118.696 597.348 119.252 598.032 119.252C600.224 119.252 601.867 121.061 601.867 123.148C601.867 123.844 602.415 124.4 603.1 124.4Z" fill="#9FDF6C"/>
</g>
<g id="Icons_18">
<path id="Vector_18" d="M675.05 242.2C675.392 242.2 675.666 241.922 675.666 241.574C675.666 240.461 676.556 239.626 677.584 239.626C677.926 239.626 678.2 239.348 678.2 239C678.2 238.652 677.926 238.374 677.584 238.374C676.488 238.374 675.666 237.47 675.666 236.426C675.666 236.078 675.392 235.8 675.05 235.8C674.708 235.8 674.434 236.078 674.434 236.426C674.434 237.539 673.543 238.374 672.516 238.374C672.174 238.374 671.9 238.652 671.9 239C671.9 239.348 672.174 239.626 672.516 239.626C673.612 239.626 674.434 240.53 674.434 241.574C674.434 241.922 674.708 242.2 675.05 242.2Z" fill="#DFDCE4"/>
</g>
<g id="Icons_19">
<path id="Vector_19" d="M456.05 86.2C456.392 86.2 456.666 85.9218 456.666 85.574C456.666 84.4609 457.556 83.6261 458.584 83.6261C458.926 83.6261 459.2 83.3479 459.2 83C459.2 82.6522 458.926 82.374 458.584 82.374C457.488 82.374 456.666 81.4696 456.666 80.4261C456.666 80.0783 456.392 79.8 456.05 79.8C455.708 79.8 455.434 80.0783 455.434 80.4261C455.434 81.5392 454.543 82.374 453.516 82.374C453.174 82.374 452.9 82.6522 452.9 83C452.9 83.3479 453.174 83.6261 453.516 83.6261C454.612 83.6261 455.434 84.5305 455.434 85.574C455.434 85.9218 455.708 86.2 456.05 86.2Z" fill="#DFDCE4"/>
</g>
<g id="Icons_20">
<path id="Vector_20" d="M583.05 375.2C583.392 375.2 583.666 374.922 583.666 374.574C583.666 373.461 584.556 372.626 585.584 372.626C585.926 372.626 586.2 372.348 586.2 372C586.2 371.652 585.926 371.374 585.584 371.374C584.488 371.374 583.666 370.47 583.666 369.426C583.666 369.078 583.392 368.8 583.05 368.8C582.708 368.8 582.434 369.078 582.434 369.426C582.434 370.539 581.543 371.374 580.516 371.374C580.174 371.374 579.9 371.652 579.9 372C579.9 372.348 580.174 372.626 580.516 372.626C581.612 372.626 582.434 373.53 582.434 374.574C582.434 374.922 582.708 375.2 583.05 375.2Z" fill="#DFDCE4"/>
</g>
<g id="Icons_21">
<path id="Vector_21" d="M966.05 286.2C966.392 286.2 966.666 285.922 966.666 285.574C966.666 284.461 967.556 283.626 968.584 283.626C968.926 283.626 969.2 283.348 969.2 283C969.2 282.652 968.926 282.374 968.584 282.374C967.488 282.374 966.666 281.47 966.666 280.426C966.666 280.078 966.392 279.8 966.05 279.8C965.708 279.8 965.434 280.078 965.434 280.426C965.434 281.539 964.543 282.374 963.516 282.374C963.174 282.374 962.9 282.652 962.9 283C962.9 283.348 963.174 283.626 963.516 283.626C964.612 283.626 965.434 284.53 965.434 285.574C965.434 285.922 965.708 286.2 966.05 286.2Z" fill="#DFDCE4"/>
</g>
<g id="Icons_22">
<path id="Vector_22" d="M984.05 49.2C984.392 49.2 984.666 48.9218 984.666 48.574C984.666 47.4609 985.556 46.6261 986.584 46.6261C986.926 46.6261 987.2 46.3479 987.2 46C987.2 45.6522 986.926 45.374 986.584 45.374C985.488 45.374 984.666 44.4696 984.666 43.4261C984.666 43.0783 984.392 42.8 984.05 42.8C983.708 42.8 983.434 43.0783 983.434 43.4261C983.434 44.5392 982.543 45.374 981.516 45.374C981.174 45.374 980.9 45.6522 980.9 46C980.9 46.3479 981.174 46.6261 981.516 46.6261C982.612 46.6261 983.434 47.5305 983.434 48.574C983.434 48.9218 983.708 49.2 984.05 49.2Z" fill="#FDC500"/>
</g>
<g id="Icons_23">
<path id="Vector_23" d="M80.0499 179.2C80.3923 179.2 80.6662 178.922 80.6662 178.574C80.6662 177.461 81.5564 176.626 82.5836 176.626C82.926 176.626 83.1999 176.348 83.1999 176C83.1999 175.652 82.926 175.374 82.5836 175.374C81.4879 175.374 80.6662 174.47 80.6662 173.426C80.6662 173.078 80.3923 172.8 80.0499 172.8C79.7075 172.8 79.4336 173.078 79.4336 173.426C79.4336 174.539 78.5434 175.374 77.5162 175.374C77.1738 175.374 76.8999 175.652 76.8999 176C76.8999 176.348 77.1738 176.626 77.5162 176.626C78.6119 176.626 79.4336 177.53 79.4336 178.574C79.4336 178.922 79.7075 179.2 80.0499 179.2Z" fill="#DFDCE4"/>
</g>
<g id="Icons_24">
<path id="Vector_24" d="M281.05 418.2C281.392 418.2 281.666 417.922 281.666 417.574C281.666 416.461 282.556 415.626 283.584 415.626C283.926 415.626 284.2 415.348 284.2 415C284.2 414.652 283.926 414.374 283.584 414.374C282.488 414.374 281.666 413.47 281.666 412.426C281.666 412.078 281.392 411.8 281.05 411.8C280.708 411.8 280.434 412.078 280.434 412.426C280.434 413.539 279.543 414.374 278.516 414.374C278.174 414.374 277.9 414.652 277.9 415C277.9 415.348 278.174 415.626 278.516 415.626C279.612 415.626 280.434 416.53 280.434 417.574C280.434 417.922 280.708 418.2 281.05 418.2Z" fill="#DFDCE4"/>
</g>
<g id="Icons_25">
<path id="Vector_25" d="M658.05 336.2C658.392 336.2 658.666 335.922 658.666 335.574C658.666 334.461 659.556 333.626 660.584 333.626C660.926 333.626 661.2 333.348 661.2 333C661.2 332.652 660.926 332.374 660.584 332.374C659.488 332.374 658.666 331.47 658.666 330.426C658.666 330.078 658.392 329.8 658.05 329.8C657.708 329.8 657.434 330.078 657.434 330.426C657.434 331.539 656.543 332.374 655.516 332.374C655.174 332.374 654.9 332.652 654.9 333C654.9 333.348 655.174 333.626 655.516 333.626C656.612 333.626 657.434 334.53 657.434 335.574C657.434 335.922 657.708 336.2 658.05 336.2Z" fill="#DFDCE4"/>
</g>
<g id="Icons_26">
<path id="Vector_26" d="M400.05 291.2C400.392 291.2 400.666 290.922 400.666 290.574C400.666 289.461 401.556 288.626 402.584 288.626C402.926 288.626 403.2 288.348 403.2 288C403.2 287.652 402.926 287.374 402.584 287.374C401.488 287.374 400.666 286.47 400.666 285.426C400.666 285.078 400.392 284.8 400.05 284.8C399.708 284.8 399.434 285.078 399.434 285.426C399.434 286.539 398.543 287.374 397.516 287.374C397.174 287.374 396.9 287.652 396.9 288C396.9 288.348 397.174 288.626 397.516 288.626C398.612 288.626 399.434 289.53 399.434 290.574C399.434 290.922 399.708 291.2 400.05 291.2Z" fill="#DFDCE4"/>
</g>
<g id="Icons_27">
<path id="Vector_27" d="M117.05 485.2C117.392 485.2 117.666 484.922 117.666 484.574C117.666 483.461 118.556 482.626 119.584 482.626C119.926 482.626 120.2 482.348 120.2 482C120.2 481.652 119.926 481.374 119.584 481.374C118.488 481.374 117.666 480.47 117.666 479.426C117.666 479.078 117.392 478.8 117.05 478.8C116.708 478.8 116.434 479.078 116.434 479.426C116.434 480.539 115.543 481.374 114.516 481.374C114.174 481.374 113.9 481.652 113.9 482C113.9 482.348 114.174 482.626 114.516 482.626C115.612 482.626 116.434 483.53 116.434 484.574C116.434 484.922 116.708 485.2 117.05 485.2Z" fill="#DFDCE4"/>
</g>
<g id="Icons_28">
<path id="Vector_28" d="M377.05 434.2C377.392 434.2 377.666 433.922 377.666 433.574C377.666 432.461 378.556 431.626 379.584 431.626C379.926 431.626 380.2 431.348 380.2 431C380.2 430.652 379.926 430.374 379.584 430.374C378.488 430.374 377.666 429.47 377.666 428.426C377.666 428.078 377.392 427.8 377.05 427.8C376.708 427.8 376.434 428.078 376.434 428.426C376.434 429.539 375.543 430.374 374.516 430.374C374.174 430.374 373.9 430.652 373.9 431C373.9 431.348 374.174 431.626 374.516 431.626C375.612 431.626 376.434 432.53 376.434 433.574C376.434 433.922 376.708 434.2 377.05 434.2Z" fill="#DFDCE4"/>
</g>
<g id="Icons_29">
<path id="Vector_29" d="M448.05 713.2C448.392 713.2 448.666 712.922 448.666 712.574C448.666 711.461 449.556 710.626 450.584 710.626C450.926 710.626 451.2 710.348 451.2 710C451.2 709.652 450.926 709.374 450.584 709.374C449.488 709.374 448.666 708.47 448.666 707.426C448.666 707.078 448.392 706.8 448.05 706.8C447.708 706.8 447.434 707.078 447.434 707.426C447.434 708.539 446.543 709.374 445.516 709.374C445.174 709.374 444.9 709.652 444.9 710C444.9 710.348 445.174 710.626 445.516 710.626C446.612 710.626 447.434 711.53 447.434 712.574C447.434 712.922 447.708 713.2 448.05 713.2Z" fill="#DFDCE4"/>
</g>
<g id="Icons_30">
<path id="Vector_30" d="M1344.05 757.2C1344.39 757.2 1344.67 756.922 1344.67 756.574C1344.67 755.461 1345.56 754.626 1346.58 754.626C1346.93 754.626 1347.2 754.348 1347.2 754C1347.2 753.652 1346.93 753.374 1346.58 753.374C1345.49 753.374 1344.67 752.47 1344.67 751.426C1344.67 751.078 1344.39 750.8 1344.05 750.8C1343.71 750.8 1343.43 751.078 1343.43 751.426C1343.43 752.539 1342.54 753.374 1341.52 753.374C1341.17 753.374 1340.9 753.652 1340.9 754C1340.9 754.348 1341.17 754.626 1341.52 754.626C1342.61 754.626 1343.43 755.53 1343.43 756.574C1343.43 756.922 1343.71 757.2 1344.05 757.2Z" fill="#DFDCE4"/>
</g>
<g id="Icons_31">
<path id="Vector_31" d="M1344.05 697.2C1344.39 697.2 1344.67 696.922 1344.67 696.574C1344.67 695.461 1345.56 694.626 1346.58 694.626C1346.93 694.626 1347.2 694.348 1347.2 694C1347.2 693.652 1346.93 693.374 1346.58 693.374C1345.49 693.374 1344.67 692.47 1344.67 691.426C1344.67 691.078 1344.39 690.8 1344.05 690.8C1343.71 690.8 1343.43 691.078 1343.43 691.426C1343.43 692.539 1342.54 693.374 1341.52 693.374C1341.17 693.374 1340.9 693.652 1340.9 694C1340.9 694.348 1341.17 694.626 1341.52 694.626C1342.61 694.626 1343.43 695.53 1343.43 696.574C1343.43 696.922 1343.71 697.2 1344.05 697.2Z" fill="#DFDCE4"/>
</g>
<g id="Icons_32">
<path id="Vector_32" d="M1050.05 755.2C1050.39 755.2 1050.67 754.922 1050.67 754.574C1050.67 753.461 1051.56 752.626 1052.58 752.626C1052.93 752.626 1053.2 752.348 1053.2 752C1053.2 751.652 1052.93 751.374 1052.58 751.374C1051.49 751.374 1050.67 750.47 1050.67 749.426C1050.67 749.078 1050.39 748.8 1050.05 748.8C1049.71 748.8 1049.43 749.078 1049.43 749.426C1049.43 750.539 1048.54 751.374 1047.52 751.374C1047.17 751.374 1046.9 751.652 1046.9 752C1046.9 752.348 1047.17 752.626 1047.52 752.626C1048.61 752.626 1049.43 753.53 1049.43 754.574C1049.43 754.922 1049.71 755.2 1050.05 755.2Z" fill="#DFDCE4"/>
</g>
<g id="Icons_33">
<path id="Vector_33" d="M1238.05 18.2C1238.39 18.2 1238.67 17.9218 1238.67 17.574C1238.67 16.4609 1239.56 15.6261 1240.58 15.6261C1240.93 15.6261 1241.2 15.3479 1241.2 15C1241.2 14.6522 1240.93 14.374 1240.58 14.374C1239.49 14.374 1238.67 13.4696 1238.67 12.4261C1238.67 12.0783 1238.39 11.8 1238.05 11.8C1237.71 11.8 1237.43 12.0783 1237.43 12.4261C1237.43 13.5392 1236.54 14.374 1235.52 14.374C1235.17 14.374 1234.9 14.6522 1234.9 15C1234.9 15.3479 1235.17 15.6261 1235.52 15.6261C1236.61 15.6261 1237.43 16.5305 1237.43 17.574C1237.43 17.9218 1237.71 18.2 1238.05 18.2Z" fill="#DFDCE4"/>
</g>
<g id="Icons_34">
<path id="Vector_34" d="M1346.05 167.2C1346.39 167.2 1346.67 166.922 1346.67 166.574C1346.67 165.461 1347.56 164.626 1348.58 164.626C1348.93 164.626 1349.2 164.348 1349.2 164C1349.2 163.652 1348.93 163.374 1348.58 163.374C1347.49 163.374 1346.67 162.47 1346.67 161.426C1346.67 161.078 1346.39 160.8 1346.05 160.8C1345.71 160.8 1345.43 161.078 1345.43 161.426C1345.43 162.539 1344.54 163.374 1343.52 163.374C1343.17 163.374 1342.9 163.652 1342.9 164C1342.9 164.348 1343.17 164.626 1343.52 164.626C1344.61 164.626 1345.43 165.53 1345.43 166.574C1345.43 166.922 1345.71 167.2 1346.05 167.2Z" fill="#DFDCE4"/>
</g>
<g id="Icons_35">
<path id="Vector_35" d="M1279.05 134.2C1279.39 134.2 1279.67 133.922 1279.67 133.574C1279.67 132.461 1280.56 131.626 1281.58 131.626C1281.93 131.626 1282.2 131.348 1282.2 131C1282.2 130.652 1281.93 130.374 1281.58 130.374C1280.49 130.374 1279.67 129.47 1279.67 128.426C1279.67 128.078 1279.39 127.8 1279.05 127.8C1278.71 127.8 1278.43 128.078 1278.43 128.426C1278.43 129.539 1277.54 130.374 1276.52 130.374C1276.17 130.374 1275.9 130.652 1275.9 131C1275.9 131.348 1276.17 131.626 1276.52 131.626C1277.61 131.626 1278.43 132.53 1278.43 133.574C1278.43 133.922 1278.71 134.2 1279.05 134.2Z" fill="#DFDCE4"/>
</g>
<g id="Icons_36">
<path id="Vector_36" d="M276.05 91.2C276.392 91.2 276.666 90.9218 276.666 90.574C276.666 89.4609 277.556 88.6261 278.584 88.6261C278.926 88.6261 279.2 88.3479 279.2 88C279.2 87.6522 278.926 87.374 278.584 87.374C277.488 87.374 276.666 86.4696 276.666 85.4261C276.666 85.0783 276.392 84.8 276.05 84.8C275.708 84.8 275.434 85.0783 275.434 85.4261C275.434 86.5392 274.543 87.374 273.516 87.374C273.174 87.374 272.9 87.6522 272.9 88C272.9 88.3479 273.174 88.6261 273.516 88.6261C274.612 88.6261 275.434 89.5305 275.434 90.574C275.434 90.9218 275.708 91.2 276.05 91.2Z" fill="#DFDCE4"/>
</g>
<g id="Icons_37">
<path id="Vector_37" d="M1269.05 569.2C1269.39 569.2 1269.67 568.922 1269.67 568.574C1269.67 567.461 1270.56 566.626 1271.58 566.626C1271.93 566.626 1272.2 566.348 1272.2 566C1272.2 565.652 1271.93 565.374 1271.58 565.374C1270.49 565.374 1269.67 564.47 1269.67 563.426C1269.67 563.078 1269.39 562.8 1269.05 562.8C1268.71 562.8 1268.43 563.078 1268.43 563.426C1268.43 564.539 1267.54 565.374 1266.52 565.374C1266.17 565.374 1265.9 565.652 1265.9 566C1265.9 566.348 1266.17 566.626 1266.52 566.626C1267.61 566.626 1268.43 567.53 1268.43 568.574C1268.43 568.922 1268.71 569.2 1269.05 569.2Z" fill="#0FC7D2"/>
</g>
<g id="Icons_38">
<path id="Vector_38" d="M210.05 615.2C210.392 615.2 210.666 614.922 210.666 614.574C210.666 613.461 211.556 612.626 212.584 612.626C212.926 612.626 213.2 612.348 213.2 612C213.2 611.652 212.926 611.374 212.584 611.374C211.488 611.374 210.666 610.47 210.666 609.426C210.666 609.078 210.392 608.8 210.05 608.8C209.708 608.8 209.434 609.078 209.434 609.426C209.434 610.539 208.543 611.374 207.516 611.374C207.174 611.374 206.9 611.652 206.9 612C206.9 612.348 207.174 612.626 207.516 612.626C208.612 612.626 209.434 613.53 209.434 614.574C209.434 614.922 209.708 615.2 210.05 615.2Z" fill="#DFDCE4"/>
</g>
<g id="Icons_39">
<path id="Vector_39" d="M1307.05 463.2C1307.39 463.2 1307.67 462.922 1307.67 462.574C1307.67 461.461 1308.56 460.626 1309.58 460.626C1309.93 460.626 1310.2 460.348 1310.2 460C1310.2 459.652 1309.93 459.374 1309.58 459.374C1308.49 459.374 1307.67 458.47 1307.67 457.426C1307.67 457.078 1307.39 456.8 1307.05 456.8C1306.71 456.8 1306.43 457.078 1306.43 457.426C1306.43 458.539 1305.54 459.374 1304.52 459.374C1304.17 459.374 1303.9 459.652 1303.9 460C1303.9 460.348 1304.17 460.626 1304.52 460.626C1305.61 460.626 1306.43 461.53 1306.43 462.574C1306.43 462.922 1306.71 463.2 1307.05 463.2Z" fill="#DFDCE4"/>
</g>
<g id="Icons_40">
<path id="Vector_40" d="M1278.21 711.44C1279.65 711.44 1280.8 710.271 1280.8 708.81C1280.8 704.136 1284.54 700.63 1288.85 700.63C1290.29 700.63 1291.44 699.461 1291.44 698C1291.44 696.539 1290.29 695.37 1288.85 695.37C1284.25 695.37 1280.8 691.572 1280.8 687.19C1280.8 685.729 1279.65 684.56 1278.21 684.56C1276.77 684.56 1275.62 685.729 1275.62 687.19C1275.62 691.864 1271.88 695.37 1267.57 695.37C1266.13 695.37 1264.98 696.539 1264.98 698C1264.98 699.461 1266.13 700.63 1267.57 700.63C1272.17 700.63 1275.62 704.428 1275.62 708.81C1275.62 710.271 1276.77 711.44 1278.21 711.44Z" fill="#DFDCE4"/>
</g>
</g>
</g>
<g id="Lines" style="mix-blend-mode:lighten">
<g id="Star">
<g id="Star 1">
<path d="M21.2035 564.436L130.93 534.848L236.476 506.388C238.772 505.769 241.129 507.155 241.704 509.462V509.462V509.462C242.279 511.77 240.849 514.1 238.531 514.631L131.977 539.05L21.2035 564.436Z" fill="url(#paint0_linear_1680_8173)" style="mix-blend-mode:overlay"/>
</g>
</g>
<g id="Star_2">
<g id="Star 1_2">
<path d="M220.146 672.266L315.267 610.079L406.764 550.26C408.754 548.959 411.425 549.545 412.688 551.559V551.559V551.559C413.951 553.574 413.315 556.233 411.276 557.458L317.567 613.747L220.146 672.266Z" fill="url(#paint1_linear_1680_8173)" style="mix-blend-mode:overlay"/>
</g>
</g>
<g id="Star_3">
<g id="Star 1_3">
<path d="M484.67 586.99L552.29 517.87L617.333 451.384C618.748 449.937 621.067 449.942 622.476 451.393V451.393V451.393C623.886 452.844 623.837 455.178 622.368 456.569L554.857 520.513L484.67 586.99Z" fill="url(#paint2_linear_1680_8173)" style="mix-blend-mode:overlay"/>
</g>
</g>
<g id="Star_4">
<g id="Star 1_4">
<path d="M333.627 737.286L401.247 668.166L466.291 601.68C467.705 600.234 470.024 600.238 471.433 601.689V601.689V601.689C472.843 603.141 472.794 605.474 471.326 606.865L403.814 670.809L333.627 737.286Z" fill="url(#paint3_linear_1680_8173)" style="mix-blend-mode:overlay"/>
</g>
</g>
<g id="Star_5">
<g id="Star 1_5">
<path d="M201.627 867.286L269.247 798.166L334.291 731.68C335.705 730.234 338.024 730.238 339.433 731.689V731.689V731.689C340.843 733.141 340.794 735.474 339.326 736.865L271.814 800.809L201.627 867.286Z" fill="url(#paint4_linear_1680_8173)" style="mix-blend-mode:overlay"/>
</g>
</g>
<g id="Star_6">
<g id="Star 1_6">
<path d="M509.331 432.833L570.201 414.205L628.751 396.286C630.024 395.897 631.298 396.645 631.576 397.945V397.945V397.945C631.855 399.246 631.029 400.593 629.744 400.934L570.707 416.573L509.331 432.833Z" fill="url(#paint5_linear_1680_8173)" style="mix-blend-mode:overlay"/>
</g>
</g>
<g id="Star_7">
<g id="Star 1_7">
<path d="M-60.7146 286.618L52.011 301.049L160.442 314.931C162.8 315.233 164.452 317.412 164.105 319.764V319.764V319.764C163.758 322.117 161.548 323.727 159.202 323.335L51.3794 305.333L-60.7146 286.618Z" fill="url(#paint6_linear_1680_8173)" style="mix-blend-mode:overlay"/>
</g>
</g>
<g id="Star_8">
<g id="Star 1_8">
<path d="M31.7595 213.798L157.285 245.564L278.029 276.119C280.655 276.784 282.185 279.462 281.422 282.061V282.061V282.061C280.659 284.66 277.9 286.166 275.303 285.403L155.896 250.296L31.7595 213.798Z" fill="url(#paint7_linear_1680_8173)" style="mix-blend-mode:overlay"/>
</g>
</g>
<g id="Star_9">
<g id="Star 1_9">
<path d="M292.842 281.532L394.158 306.76L491.614 331.028C493.734 331.556 494.963 333.707 494.34 335.8V335.8V335.8C493.717 337.893 491.484 339.112 489.388 338.504L393.023 310.571L292.842 281.532Z" fill="url(#paint8_linear_1680_8173)" style="mix-blend-mode:overlay"/>
</g>
</g>
<g id="Star_10">
<g id="Star 1_10">
<path d="M373.656 383.535L443.359 383.197L510.406 382.872C511.865 382.865 513.011 384.054 512.949 385.511V385.511V385.511C512.887 386.967 511.64 388.123 510.184 388.075L443.246 385.849L373.656 383.535Z" fill="url(#paint9_linear_1680_8173)" style="mix-blend-mode:overlay"/>
</g>
</g>
<g id="Star_11">
<g id="Star 1_11">
<path d="M126.656 384.751L196.359 384.413L263.406 384.088C264.865 384.081 266.011 385.271 265.949 386.727V386.727V386.727C265.887 388.183 264.64 389.339 263.184 389.291L196.246 387.065L126.656 384.751Z" fill="url(#paint10_linear_1680_8173)" style="mix-blend-mode:overlay"/>
</g>
</g>
<g id="Star_12">
<g id="Star 1_12">
<path d="M-140.857 385.521L-32.0916 384.063L72.5301 382.661C74.806 382.631 76.5785 384.47 76.4619 386.741V386.741V386.741C76.3452 389.013 74.3848 390.831 72.1134 390.775L-32.304 388.199L-140.857 385.521Z" fill="url(#paint11_linear_1680_8173)" style="mix-blend-mode:overlay"/>
</g>
</g>
<g id="Star_13">
<g id="Star 1_13">
<path d="M49.8959 -250.528L217.653 -87.9311L379.018 68.4703C382.528 71.8726 382.556 77.486 379.078 80.9218V80.9218V80.9218C375.601 84.3575 369.973 84.2776 366.596 80.7444L211.321 -81.6748L49.8959 -250.528Z" fill="url(#paint12_linear_1680_8173)" style="mix-blend-mode:overlay"/>
</g>
</g>
<g id="Star_14">
<g id="Star 1_14">
<path d="M83.5822 43.5387L231.674 123.487L374.123 200.388C377.222 202.061 378.27 205.902 376.448 208.908V208.908V208.908C374.626 211.914 370.643 212.914 367.614 211.126L228.356 128.96L83.5822 43.5387Z" fill="url(#paint13_linear_1680_8173)" style="mix-blend-mode:overlay"/>
</g>
</g>
<g id="Star_15">
<g id="Star 1_15">
<path d="M431.403 245.277L493.74 278.929L553.701 311.3C555.006 312.004 555.447 313.621 554.68 314.886V314.886V314.886C553.913 316.151 552.236 316.572 550.961 315.82L492.343 281.233L431.403 245.277Z" fill="url(#paint14_linear_1680_8173)" style="mix-blend-mode:overlay"/>
</g>
</g>
<g id="Star_16">
<g id="Star 1_16">
<path d="M457.487 161.335L507.981 210.952L556.551 258.678C557.608 259.716 557.581 261.392 556.491 262.394V262.394V262.394C555.402 263.397 553.674 263.336 552.659 262.26L505.997 212.778L457.487 161.335Z" fill="url(#paint15_linear_1680_8173)" style="mix-blend-mode:overlay"/>
</g>
</g>
<g id="Star_17">
<g id="Star 1_17">
<path d="M465.612 7.33045L509.289 81.298L551.301 152.447C552.215 153.995 551.684 156.003 550.125 156.902V156.902V156.902C548.565 157.8 546.583 157.239 545.728 155.657L506.448 82.9341L465.612 7.33045Z" fill="url(#paint16_linear_1680_8173)" style="mix-blend-mode:overlay"/>
</g>
</g>
<g id="Star_18">
<g id="Star 1_18">
<path d="M558.714 177.816L605.066 249.919L649.651 319.275C650.621 320.784 650.115 322.708 648.528 323.544V323.544V323.544C646.941 324.38 644.891 323.801 643.982 322.261L602.176 251.441L558.714 177.816Z" fill="url(#paint17_linear_1680_8173)" style="mix-blend-mode:overlay"/>
</g>
</g>
<g id="Star_19">
<g id="Star 1_19">
<path d="M604.756 101.681L625.784 165.506L646.011 226.899C646.451 228.235 645.695 229.629 644.335 229.991V229.991V229.991C642.974 230.354 641.538 229.544 641.15 228.195L623.306 166.166L604.756 101.681Z" fill="url(#paint18_linear_1680_8173)" style="mix-blend-mode:overlay"/>
</g>
</g>
<g id="Star_20">
<g id="Star 1_20">
<path d="M554.706 -69.8758L575.735 -6.05053L595.962 55.3429C596.402 56.6784 595.646 58.0724 594.285 58.435V58.435V58.435C592.925 58.7976 591.489 57.9875 591.101 56.6382L573.257 -5.3903L554.706 -69.8758Z" fill="url(#paint19_linear_1680_8173)" style="mix-blend-mode:overlay"/>
</g>
</g>
<g id="Star_21">
<g id="Star 1_21">
<path d="M564.143 318.676L595.818 335.776L626.286 352.224C626.949 352.582 627.173 353.403 626.783 354.046V354.046V354.046C626.393 354.689 625.541 354.903 624.893 354.521L595.108 336.946L564.143 318.676Z" fill="url(#paint20_linear_1680_8173)" style="mix-blend-mode:overlay"/>
</g>
</g>
<g id="Star_22">
<g id="Star 1_22">
<path d="M-303.593 22.0659L-28.341 112.057L236.423 198.619C242.183 200.503 244.914 206.586 242.481 212.113V212.113V212.113C240.048 217.64 233.399 220.459 227.732 218.365L-32.7709 122.122L-303.593 22.0659Z" fill="url(#paint21_linear_1680_8173)" style="mix-blend-mode:overlay"/>
</g>
</g>
<g id="Star_23">
<g id="Star 1_23">
<path d="M-427.675 995.03L-133.005 835.04L150.438 681.147C156.604 677.799 163.87 680.352 166.554 686.809V686.809V686.809C169.238 693.267 166.296 701.114 160.028 704.216L-128.117 846.799L-427.675 995.03Z" fill="url(#paint22_linear_1680_8173)" style="mix-blend-mode:overlay"/>
</g>
</g>
<g id="Star_24">
<g id="Star 1_24">
<path d="M1431.06 -228.759L1251.98 -64.0799L1079.72 94.325C1075.97 97.7709 1070.21 97.401 1066.94 93.5046V93.5046V93.5046C1063.67 89.6082 1064.16 83.7028 1068.04 80.4053L1246.02 -71.1749L1431.06 -228.759Z" fill="url(#paint23_linear_1680_8173)" style="mix-blend-mode:overlay"/>
</g>
</g>
<g id="Star_25">
<g id="Star 1_25">
<path d="M1299.66 125.278L1142.8 194.65L991.907 261.379C988.624 262.831 984.866 261.282 983.571 257.944V257.944V257.944C982.275 254.606 983.946 250.779 987.278 249.455L1140.44 188.572L1299.66 125.278Z" fill="url(#paint24_linear_1680_8173)" style="mix-blend-mode:overlay"/>
</g>
</g>
<g id="Star_26">
<g id="Star 1_26">
<path d="M1633 176.164L1395.73 231.092L1167.5 283.928C1162.53 285.077 1157.71 281.917 1156.8 276.919V276.919V276.919C1155.88 271.92 1159.24 267.029 1164.24 266.07L1394.07 221.99L1633 176.164Z" fill="url(#paint25_linear_1680_8173)" style="mix-blend-mode:overlay"/>
</g>
</g>
<g id="Star_27">
<g id="Star 1_27">
<path d="M1455.35 700.397L1305.76 643.411L1161.87 588.597C1158.74 587.405 1157.29 583.922 1158.65 580.873V580.873V580.873C1160.02 577.824 1163.67 576.395 1166.75 577.703L1308.24 637.859L1455.35 700.397Z" fill="url(#paint26_linear_1680_8173)" style="mix-blend-mode:overlay"/>
</g>
</g>
<g id="Star_28">
<g id="Star 1_28">
<path d="M1329.12 853.037L1170.3 747.517L1017.53 646.017C1014.21 643.809 1013.44 639.381 1015.84 636.196V636.196V636.196C1018.23 633.01 1022.85 632.307 1026.08 634.637L1174.66 741.716L1329.12 853.037Z" fill="url(#paint27_linear_1680_8173)" style="mix-blend-mode:overlay"/>
</g>
</g>
<g id="Star_29">
<g id="Star 1_29">
<path d="M322.263 486.281L407.07 459.822L488.645 434.371C490.42 433.817 492.564 434.728 493.402 436.39V436.39V436.39C494.24 438.053 493.445 439.821 491.638 440.311L408.595 462.85L322.263 486.281Z" fill="url(#paint28_linear_1680_8173)" style="mix-blend-mode:overlay"/>
</g>
</g>
<g id="Star_30">
<g id="Star 1_30">
<path d="M678.139 -24.0501L680.119 64.8812L682.023 150.424C682.065 152.285 680.569 153.753 678.706 153.681V153.681V153.681C676.843 153.608 675.337 152.023 675.367 150.165L676.726 64.7494L678.139 -24.0501Z" fill="url(#paint29_linear_1680_8173)" style="mix-blend-mode:overlay"/>
</g>
</g>
<g id="Star_31">
<g id="Star 1_31">
<path d="M817.881 -105.278L790.354 -1.07596L763.877 99.1562C763.301 101.337 761.067 102.547 758.922 101.841V101.841V101.841C756.777 101.135 755.556 98.7873 756.214 96.6338L786.449 -2.36168L817.881 -105.278Z" fill="url(#paint30_linear_1680_8173)" style="mix-blend-mode:overlay"/>
</g>
</g>
<g id="Star_32">
<g id="Star 1_32">
<path d="M750.007 147.37L725.529 233.175L701.983 315.711C701.471 317.507 699.582 318.529 697.794 317.979V317.979V317.979C696.006 317.429 695.014 315.52 695.594 313.746L722.272 232.174L750.007 147.37Z" fill="url(#paint31_linear_1680_8173)" style="mix-blend-mode:overlay"/>
</g>
</g>
<g id="Star_33">
<g id="Star 1_33">
<path d="M800.783 172.058L760.386 251.651L721.528 328.212C720.683 329.878 718.634 330.523 716.983 329.644V329.644V329.644C715.332 328.764 714.723 326.703 715.631 325.071L757.38 250.05L800.783 172.058Z" fill="url(#paint32_linear_1680_8173)" style="mix-blend-mode:overlay"/>
</g>
</g>
<g id="Star_34">
<g id="Star 1_34">
<path d="M861.255 279.83L800.021 318.492L741.12 355.68C739.839 356.489 738.145 356.09 737.362 354.794V354.794V354.794C736.579 353.499 737.013 351.812 738.324 351.052L798.596 316.133L861.255 279.83Z" fill="url(#paint33_linear_1680_8173)" style="mix-blend-mode:overlay"/>
</g>
</g>
<g id="Star_35">
<g id="Star 1_35">
<path d="M859.945 341.112L801.726 355.715L745.725 369.762C744.507 370.068 743.278 369.316 742.998 368.095V368.095V368.095C742.719 366.873 743.498 365.658 744.727 365.399L801.217 353.491L859.945 341.112Z" fill="url(#paint34_linear_1680_8173)" style="mix-blend-mode:overlay"/>
</g>
</g>
<g id="Star_36">
<g id="Star 1_36">
<path d="M970.177 313.896L911.958 328.5L855.957 342.547C854.739 342.852 853.51 342.101 853.23 340.879V340.879V340.879C852.951 339.658 853.73 338.443 854.959 338.183L911.449 326.276L970.177 313.896Z" fill="url(#paint35_linear_1680_8173)" style="mix-blend-mode:overlay"/>
</g>
</g>
<g id="Star_37">
<g id="Star 1_37">
<path d="M909.255 2.65098L863.326 79.2015L819.146 152.835C818.185 154.437 816.096 154.937 814.511 153.943V153.943V153.943C812.927 152.95 812.465 150.85 813.486 149.286L860.441 77.3926L909.255 2.65098Z" fill="url(#paint36_linear_1680_8173)" style="mix-blend-mode:overlay"/>
</g>
</g>
<g id="Star_38">
<g id="Star 1_38">
<path d="M1030.93 -56.6528L937.388 63.1157L847.415 178.321C845.457 180.827 841.824 181.237 839.355 179.23V179.23V179.23C836.886 177.224 836.543 173.582 838.595 171.152L932.893 59.4619L1030.93 -56.6528Z" fill="url(#paint37_linear_1680_8173)" style="mix-blend-mode:overlay"/>
</g>
</g>
<g id="Star_39">
<g id="Star 1_39">
<path d="M909.618 446.07L822.559 426.772L738.816 408.21C736.995 407.806 735.922 406.007 736.437 404.219V404.219V404.219C736.952 402.432 738.854 401.352 740.656 401.824L823.496 423.517L909.618 446.07Z" fill="url(#paint38_linear_1680_8173)" style="mix-blend-mode:overlay"/>
</g>
</g>
<g id="Star_40">
<g id="Star 1_40">
<path d="M1408.96 453.941L1262.76 449.09L1122.13 444.423C1119.07 444.322 1116.8 441.745 1117.09 438.709V438.709V438.709C1117.38 435.672 1120.12 433.357 1123.16 433.574L1263.28 443.56L1408.96 453.941Z" fill="url(#paint39_linear_1680_8173)" style="mix-blend-mode:overlay"/>
</g>
</g>
<g id="Star_41">
<g id="Star 1_41">
<path d="M1446.41 384.497L1325.83 386.769L1209.85 388.955C1207.32 389.003 1205.31 386.978 1205.39 384.463V384.463V384.463C1205.46 381.949 1207.59 379.924 1210.11 379.973L1325.97 382.191L1446.41 384.497Z" fill="url(#paint40_linear_1680_8173)" style="mix-blend-mode:overlay"/>
</g>
</g>
<g id="Star_42">
<g id="Star 1_42">
<path d="M1347.32 335.325L1227.19 345.939L1111.64 356.15C1109.13 356.372 1106.98 354.491 1106.88 351.977V351.977V351.977C1106.78 349.463 1108.77 347.296 1111.28 347.17L1227.01 341.362L1347.32 335.325Z" fill="url(#paint41_linear_1680_8173)" style="mix-blend-mode:overlay"/>
</g>
</g>
<g id="Star_43">
<g id="Star 1_43">
<path d="M853.458 559.425L812.269 517.903L772.649 477.963C771.787 477.094 771.692 475.582 772.439 474.608V474.608V474.608C773.186 473.634 774.483 473.579 775.317 474.485L813.628 516.13L853.458 559.425Z" fill="url(#paint42_linear_1680_8173)" style="mix-blend-mode:overlay"/>
</g>
</g>
<g id="Star_44">
<g id="Star 1_44">
<path d="M1013.08 577.132L935.151 529.349L860.189 483.388C858.559 482.388 858.437 480.591 859.92 479.401V479.401V479.401C861.402 478.212 863.912 478.094 865.486 479.139L937.851 527.184L1013.08 577.132Z" fill="url(#paint43_linear_1680_8173)" style="mix-blend-mode:overlay"/>
</g>
</g>
<g id="Star_45">
<g id="Star 1_45">
<path d="M1115.09 639.704L1064.11 610.722L1015.08 582.843C1014.01 582.237 1013.94 581.14 1014.91 580.41V580.41V580.41C1015.89 579.68 1017.53 579.602 1018.56 580.236L1065.89 609.393L1115.09 639.704Z" fill="url(#paint44_linear_1680_8173)" style="mix-blend-mode:overlay"/>
</g>
</g>
<g id="Star_46">
<g id="Star 1_46">
<path d="M1114.14 498.495L1037.62 480.473L964.01 463.138C962.409 462.761 962.344 461.996 963.865 461.441V461.441V461.441C965.386 460.886 967.902 460.757 969.445 461.156L1040.39 479.463L1114.14 498.495Z" fill="url(#paint45_linear_1680_8173)" style="mix-blend-mode:overlay"/>
</g>
</g>
<g id="Star_47">
<g id="Star 1_47">
<path d="M1235.52 532.46L1169.3 515.772L1105.61 499.72C1104.22 499.371 1104.17 498.671 1105.48 498.168V498.168V498.168C1106.79 497.665 1108.97 497.554 1110.3 497.922L1171.7 514.856L1235.52 532.46Z" fill="url(#paint46_linear_1680_8173)" style="mix-blend-mode:overlay"/>
</g>
</g>
<g id="Star_48">
<g id="Star 1_48">
<path d="M923.845 622.84L892.983 596.171L863.297 570.518C862.651 569.96 862.588 568.981 863.158 568.345V568.345V568.345C863.727 567.71 864.707 567.666 865.331 568.249L894.02 595.014L923.845 622.84Z" fill="url(#paint47_linear_1680_8173)" style="mix-blend-mode:overlay"/>
</g>
</g>
<g id="Star_49">
<g id="Star 1_49">
<path d="M1046.17 739.912L997.179 697.233L950.059 656.181C949.034 655.288 948.934 653.721 949.837 652.705V652.705V652.705C950.74 651.689 952.295 651.62 953.286 652.552L998.824 695.384L1046.17 739.912Z" fill="url(#paint48_linear_1680_8173)" style="mix-blend-mode:overlay"/>
</g>
</g>
</g>
<g id="Planets">
<ellipse id="Ellipse 26" cx="33.5" cy="592.5" rx="116.5" ry="116.5" transform="rotate(-135 33.5 592.5)" fill="url(#paint49_linear_1680_8173)"/>
<path id="Subtract" fill-rule="evenodd" clip-rule="evenodd" d="M33.5 476C35.9211 476 38.3249 476.074 40.7093 476.219C51.0003 476.848 53.1436 490.515 46.1962 498.133C32.7693 512.856 24.5816 532.439 24.5816 553.935C24.5816 599.683 61.6683 636.77 107.417 636.77C111.046 636.77 114.621 636.537 118.126 636.084C128.358 634.764 138.364 644.35 132.985 653.153C112.523 686.646 75.6218 709 33.5 709C-30.8412 709 -83 656.841 -83 592.5C-83 583.682 -82.0202 575.092 -80.1636 566.834C-78.382 558.91 -68.5879 556.545 -60.8821 559.111C-56.7226 560.496 -52.2729 561.246 -47.648 561.246C-24.5295 561.246 -5.78831 542.505 -5.78831 519.386C-5.78831 513.215 -7.1236 507.356 -9.521 502.082C-12.8792 494.695 -11.5443 484.719 -3.85735 482.119C7.86946 478.151 20.4335 476 33.5 476ZM45.5516 553.935C45.5516 525.736 64.4183 501.943 90.2174 494.491C93.0864 493.663 96.1634 494.226 98.6378 495.897C129.626 516.833 150 552.287 150 592.5C150 593.11 149.995 593.719 149.986 594.326C149.94 597.316 148.64 600.162 146.316 602.044C135.689 610.647 122.155 615.8 107.417 615.8C73.2497 615.8 45.5516 588.102 45.5516 553.935ZM-61.1182 524.517C-63.7542 528.179 -63.8465 533.324 -60.2496 536.048C-56.7467 538.702 -52.3812 540.276 -47.648 540.276C-36.1109 540.276 -26.7583 530.923 -26.7583 519.386C-26.7583 513.876 -28.8915 508.865 -32.377 505.132C-35.457 501.834 -40.5643 502.457 -43.935 505.458C-50.3347 511.155 -56.1019 517.548 -61.1182 524.517ZM3.7719 668.908C21.5656 668.908 35.9902 654.483 35.9902 636.69C35.9902 618.896 21.5656 604.471 3.7719 604.471C-14.0218 604.471 -28.4464 618.896 -28.4464 636.69C-28.4464 654.483 -14.0218 668.908 3.7719 668.908ZM15.0202 636.69C15.0202 642.902 9.98415 647.938 3.7719 647.938C-2.44035 647.938 -7.47637 642.902 -7.47637 636.69C-7.47637 630.477 -2.44035 625.441 3.7719 625.441C9.98415 625.441 15.0202 630.477 15.0202 636.69Z" fill="url(#paint50_linear_1680_8173)"/>
</g>
<g id="Ombre" style="mix-blend-mode:multiply">
<circle cx="684" cy="384" r="793" fill="url(#paint51_radial_1680_8173)"/>
</g>
<g id="Bifrost">
<path id="Vector_41" d="M680.025 411C656.874 479.671 627.113 553.679 564.51 624.244C516.218 678.367 448.395 730.509 349 772.465H534.798C632.423 650.375 660.794 524.82 680.025 411Z" fill="#0FC7D2"/>
<path id="Vector_42" d="M680.005 772.487V726.363C680.005 716.701 680.005 707.074 680.005 697.483V626.474C680.005 617.136 688 607.766 688 598.5L680.005 411C660.774 524.82 632.403 650.375 534.778 772.541L680.005 772.487Z" fill="#9FDF6C"/>
<path id="Vector_43" d="M680.025 598.568C680.025 607.82 680.025 617.122 680.025 626.474V697.483C680.025 707.059 680.025 716.686 680.025 726.363V772.487H825.232C819.418 765.22 813.848 757.942 808.521 750.654C806.834 748.352 805.167 746.046 803.521 743.737C798.614 736.816 793.9 729.896 789.38 722.975C787.88 720.659 786.38 718.353 784.93 716.047C782.01 711.429 779.169 706.807 776.409 702.181C769.516 690.635 763.115 679.089 757.208 667.542C754.842 662.924 752.545 658.302 750.318 653.676C741.418 635.209 733.647 616.775 726.797 598.417C724.23 591.532 721.787 584.677 719.467 577.85C718.7 575.57 717.94 573.286 717.187 570.998C715.7 566.43 714.256 561.873 712.856 557.327C711.456 552.78 710.123 548.241 708.856 543.709C707.546 539.174 706.296 534.649 705.076 530.135C704.476 527.869 703.879 525.614 703.286 523.37C701.526 516.608 699.859 509.872 698.286 503.16C697.226 498.679 696.199 494.216 695.206 489.77C693.712 483.095 692.289 476.442 690.935 469.81C690.035 465.393 689.159 460.991 688.305 456.604C687.452 452.216 686.622 447.843 685.815 443.485C685.009 439.155 684.222 434.825 683.455 430.495C682.295 424 681.175 417.542 680.095 411.119V598.568H680.025Z" fill="#FDC500"/>
<path id="Vector_44" d="M680.005 726.363C680.005 716.701 680.005 707.074 680.005 697.483C680.012 707.067 680.012 716.693 680.005 726.363Z" fill="#FDC500"/>
<path id="Vector_45" d="M680.015 626.474C680.015 617.136 680.015 607.834 680.015 598.568C680.022 607.827 680.022 617.129 680.015 626.474Z" fill="#FDC500"/>
<path id="Vector_46" d="M685.745 443.409C686.559 447.739 687.389 452.112 688.235 456.528C689.082 460.945 689.959 465.347 690.865 469.734C692.199 476.359 693.622 483.012 695.136 489.695C696.129 494.147 697.156 498.61 698.216 503.085C699.809 509.796 701.476 516.532 703.216 523.294C703.809 525.546 704.406 527.801 705.006 530.059C706.226 534.573 707.476 539.098 708.786 543.634C710.096 548.169 711.426 552.704 712.786 557.251C714.146 561.797 715.627 566.354 717.117 570.922C717.87 573.21 718.63 575.494 719.397 577.774C721.717 584.63 724.16 591.485 726.727 598.341C733.577 616.743 741.348 635.144 750.248 653.6C752.468 658.219 754.765 662.841 757.138 667.467C763.059 679.013 769.459 690.559 776.339 702.105C779.099 706.731 781.94 711.353 784.86 715.972C786.32 718.277 787.86 720.583 789.31 722.899C793.83 729.827 798.544 736.748 803.451 743.661C805.091 745.97 806.757 748.276 808.451 750.578C813.784 757.866 819.355 765.144 825.161 772.411H1011C911.625 730.531 843.812 678.41 795.53 624.266C732.937 553.679 703.176 479.682 680.025 411.022C681.118 417.444 682.238 423.903 683.385 430.398C684.145 434.713 684.932 439.05 685.745 443.409Z" fill="#DE3D64"/>
<path id="Vector_47" d="M825.212 772.487C819.398 765.22 813.828 757.942 808.501 750.654C813.835 757.942 819.405 765.22 825.212 772.487Z" fill="#DE3D64"/>
<path id="Vector_48" d="M803.511 743.737C798.604 736.816 793.89 729.896 789.37 722.975C793.89 729.903 798.604 736.823 803.511 743.737Z" fill="#DE3D64"/>
<path id="Vector_49" d="M784.92 716.047C782 711.429 779.16 706.807 776.399 702.181C779.16 706.807 782 711.429 784.92 716.047Z" fill="#DE3D64"/>
<path id="Vector_50" d="M757.198 667.51C754.832 662.892 752.535 658.269 750.308 653.644C752.515 658.269 754.812 662.892 757.198 667.51Z" fill="#DE3D64"/>
<rect id="Rectangle 99" x="628" y="377" width="99" height="153" fill="url(#paint52_linear_1680_8173)"/>
</g>
<g id="Planet Yellow">
<circle id="Ellipse 62" cx="229.075" cy="152.075" r="107.436" transform="rotate(11.7586 229.075 152.075)" fill="url(#paint53_linear_1680_8173)"/>
<g id="Union" opacity="0.55" filter="url(#filter1_f_1680_8173)">
<path d="M225.435 253.761C272.658 253.323 314.859 220.142 324.877 172.017C336.266 117.303 301.803 63.7005 247.65 51.1242C246.361 50.8249 245.522 49.5577 245.791 48.2627C246.061 46.9678 247.329 46.1365 248.624 46.4061L249.629 46.6152C258.882 48.5412 267.603 51.6112 275.677 55.6466C319.52 76.1213 345.215 124.679 334.926 174.109C322.911 231.829 266.38 268.88 208.66 256.865L204.975 256.098C203.68 255.829 202.849 254.56 203.119 253.265C203.388 251.97 204.655 251.14 205.955 251.385C212.025 252.526 220.057 253.627 225.435 253.761Z" fill="white"/>
</g>
</g>
<g id="Planet 3" filter="url(#filter2_d_1680_8173)">
<circle id="Ellipse 62_2" cx="934.33" cy="418.107" r="68.0329" transform="rotate(-162.86 934.33 418.107)" fill="#100730"/>
<g id="Union_2" filter="url(#filter3_f_1680_8173)">
<path d="M942.663 354.215C912.865 351.686 884.289 370.1 875.115 399.845C864.686 433.663 883.229 469.504 916.623 480.648C917.418 480.914 917.872 481.762 917.625 482.563C917.378 483.363 916.529 483.812 915.729 483.565L915.108 483.374C909.389 481.61 904.073 479.156 899.222 476.133C872.797 460.621 859.482 428.481 868.904 397.929C879.907 362.253 917.747 342.251 953.423 353.254L955.701 353.957C956.501 354.203 956.95 355.052 956.703 355.853C956.456 356.653 955.608 357.101 954.803 356.87C951.044 355.79 946.046 354.619 942.663 354.215Z" fill="#422A93"/>
</g>
</g>
<g id="Planet 2">
<circle id="Ellipse 62_3" cx="542.607" cy="500.841" r="52.0477" transform="rotate(-45 542.607 500.841)" fill="#100730"/>
<g id="Union_3" filter="url(#filter4_f_1680_8173)">
<path d="M582.841 529.32C595.205 510.07 592.967 484.159 576.128 467.32C556.984 448.175 526.113 447.904 506.636 466.506C506.173 466.949 505.436 466.952 504.983 466.499C504.53 466.046 504.53 465.311 504.983 464.858L505.335 464.507C508.572 461.269 512.132 458.551 515.911 456.351C535.851 444.024 562.349 446.508 579.645 463.803C599.841 484 599.841 516.745 579.645 536.941L578.355 538.23C577.902 538.684 577.167 538.684 576.714 538.23C576.261 537.777 576.261 537.043 576.706 536.582C578.78 534.425 581.359 531.463 582.841 529.32Z" fill="#422A93"/>
</g>
</g>
<g id="Planet 1">
<ellipse id="Ellipse 62_4" cx="870.211" cy="273.048" rx="29.3174" ry="29.3173" transform="rotate(150 870.211 273.048)" fill="#100730"/>
<g id="Union_4" filter="url(#filter5_f_1680_8173)">
<path d="M852.472 251.688C842.938 260.359 840.378 274.783 847.085 286.4C854.71 299.608 871.467 304.256 884.776 296.974C885.093 296.801 885.494 296.906 885.675 297.219C885.855 297.531 885.748 297.931 885.435 298.111L885.193 298.252C882.959 299.541 880.626 300.501 878.249 301.147C865.603 304.947 851.548 299.732 844.659 287.801C836.615 273.868 841.389 256.052 855.322 248.008L856.211 247.494C856.524 247.314 856.924 247.421 857.104 247.733C857.285 248.046 857.178 248.445 856.869 248.632C855.426 249.503 853.591 250.738 852.472 251.688Z" fill="#422A93"/>
</g>
</g>
<g id="Planet 4">
<circle id="Ellipse 62_5" r="20.7291" transform="matrix(0.707106 0.707107 -0.707106 0.707107 588.315 303.316)" fill="#100730"/>
<g id="Union_5" filter="url(#filter6_f_1680_8173)">
<path d="M576.973 319.34C584.64 324.264 594.959 323.372 601.666 316.666C609.291 309.041 609.399 296.746 601.99 288.989C601.814 288.805 601.812 288.511 601.993 288.331C602.173 288.15 602.466 288.15 602.646 288.331L602.786 288.471C604.076 289.76 605.158 291.178 606.034 292.683C610.944 300.625 609.955 311.178 603.066 318.066C595.023 326.11 581.981 326.11 573.938 318.066L573.424 317.553C573.244 317.372 573.244 317.08 573.424 316.899C573.605 316.719 573.897 316.719 574.081 316.896C574.94 317.722 576.119 318.749 576.973 319.34Z" fill="#422A93"/>
</g>
</g>
<g id="Planet Red">
<g id="Planets_2">
<g id="Group 81">
<path id="Subtract_2" fill-rule="evenodd" clip-rule="evenodd" d="M1176.91 427.591C1104.87 427.591 1046.48 485.984 1046.48 558.016C1046.48 630.048 1104.87 688.441 1176.91 688.441C1191.63 688.441 1205.78 686.001 1218.98 681.504C1228.03 678.423 1231.42 668.035 1229.91 658.599C1229.36 655.15 1229.08 651.613 1229.08 648.009C1229.08 611.273 1258.86 581.492 1295.59 581.492V581.492C1300.93 581.492 1305.91 578.035 1306.51 572.735C1307.05 567.903 1307.33 562.992 1307.33 558.016C1307.33 485.984 1248.94 427.591 1176.91 427.591ZM1298.79 604.549C1299.67 602.235 1298.07 599.752 1295.59 599.752V599.752C1268.94 599.752 1247.34 621.357 1247.34 648.009V648.009C1247.34 657.219 1257.94 660.63 1264.75 654.424C1279.68 640.809 1291.44 623.77 1298.79 604.549Z" fill="url(#paint54_linear_1680_8173)"/>
<path id="Ellipse 45" d="M1343.85 648.009C1343.85 674.661 1322.24 696.266 1295.59 696.266C1268.94 696.266 1247.34 674.661 1247.34 648.009C1247.34 621.357 1268.94 599.752 1295.59 599.752C1322.24 599.752 1343.85 621.357 1343.85 648.009Z" fill="url(#paint55_radial_1680_8173)"/>
</g>
</g>
<g id="Union_6" opacity="0.2" filter="url(#filter7_f_1680_8173)">
<path d="M1193.86 438.039C1136.73 433.19 1081.94 468.494 1064.35 525.524C1044.35 590.362 1079.91 659.079 1143.93 680.447C1145.46 680.955 1146.33 682.583 1145.85 684.117C1145.38 685.652 1143.75 686.512 1142.22 686.039L1141.03 685.672C1130.06 682.29 1119.87 677.586 1110.57 671.789C1059.9 642.048 1034.38 580.428 1052.44 521.851C1073.54 453.45 1146.09 415.101 1214.49 436.196L1218.85 437.543C1220.39 438.016 1221.25 439.644 1220.78 441.179C1220.3 442.713 1218.68 443.573 1217.13 443.129C1209.93 441.058 1200.34 438.813 1193.86 438.039Z" fill="white"/>
</g>
</g>
</g>
<defs>
<filter id="filter0_f_1680_8173" x="9" y="6" width="1349" height="757" filterUnits="userSpaceOnUse" color-interpolation-filters="sRGB">
<feFlood flood-opacity="0" result="BackgroundImageFix"/>
<feBlend mode="normal" in="SourceGraphic" in2="BackgroundImageFix" result="shape"/>
<feGaussianBlur stdDeviation="2" result="effect1_foregroundBlur_1680_8173"/>
</filter>
<filter id="filter1_f_1680_8173" x="193.068" y="36.3552" width="154.12" height="232.772" filterUnits="userSpaceOnUse" color-interpolation-filters="sRGB">
<feFlood flood-opacity="0" result="BackgroundImageFix"/>
<feBlend mode="normal" in="SourceGraphic" in2="BackgroundImageFix" result="shape"/>
<feGaussianBlur stdDeviation="5" result="effect1_foregroundBlur_1680_8173"/>
</filter>
<filter id="filter2_d_1680_8173" x="861.884" y="350.056" width="144.497" height="144.102" filterUnits="userSpaceOnUse" color-interpolation-filters="sRGB">
<feFlood flood-opacity="0" result="BackgroundImageFix"/>
<feColorMatrix in="SourceAlpha" type="matrix" values="0 0 0 0 0 0 0 0 0 0 0 0 0 0 0 0 0 0 127 0" result="hardAlpha"/>
<feOffset dy="4"/>
<feGaussianBlur stdDeviation="2"/>
<feComposite in2="hardAlpha" operator="out"/>
<feColorMatrix type="matrix" values="0 0 0 0 0 0 0 0 0 0 0 0 0 0 0 0 0 0 0.25 0"/>
<feBlend mode="normal" in2="BackgroundImageFix" result="effect1_dropShadow_1680_8173"/>
<feBlend mode="normal" in="SourceGraphic" in2="effect1_dropShadow_1680_8173" result="shape"/>
</filter>
<filter id="filter3_f_1680_8173" x="861.884" y="346.234" width="98.8872" height="141.399" filterUnits="userSpaceOnUse" color-interpolation-filters="sRGB">
<feFlood flood-opacity="0" result="BackgroundImageFix"/>
<feBlend mode="normal" in="SourceGraphic" in2="BackgroundImageFix" result="shape"/>
<feGaussianBlur stdDeviation="2" result="effect1_foregroundBlur_1680_8173"/>
</filter>
<filter id="filter4_f_1680_8173" x="500.643" y="444.656" width="98.1489" height="97.9143" filterUnits="userSpaceOnUse" color-interpolation-filters="sRGB">
<feFlood flood-opacity="0" result="BackgroundImageFix"/>
<feBlend mode="normal" in="SourceGraphic" in2="BackgroundImageFix" result="shape"/>
<feGaussianBlur stdDeviation="2" result="effect1_foregroundBlur_1680_8173"/>
</filter>
<filter id="filter5_f_1680_8173" x="836.752" y="243.406" width="53.0103" height="62.9646" filterUnits="userSpaceOnUse" color-interpolation-filters="sRGB">
<feFlood flood-opacity="0" result="BackgroundImageFix"/>
<feBlend mode="normal" in="SourceGraphic" in2="BackgroundImageFix" result="shape"/>
<feGaussianBlur stdDeviation="2" result="effect1_foregroundBlur_1680_8173"/>
</filter>
<filter id="filter6_f_1680_8173" x="570.46" y="285.367" width="41.467" height="41.56" filterUnits="userSpaceOnUse" color-interpolation-filters="sRGB">
<feFlood flood-opacity="0" result="BackgroundImageFix"/>
<feBlend mode="normal" in="SourceGraphic" in2="BackgroundImageFix" result="shape"/>
<feGaussianBlur stdDeviation="1.41412" result="effect1_foregroundBlur_1680_8173"/>
</filter>
<filter id="filter7_f_1680_8173" x="1039.65" y="423.406" width="188.256" height="269.763" filterUnits="userSpaceOnUse" color-interpolation-filters="sRGB">
<feFlood flood-opacity="0" result="BackgroundImageFix"/>
<feBlend mode="normal" in="SourceGraphic" in2="BackgroundImageFix" result="shape"/>
<feGaussianBlur stdDeviation="3.5" result="effect1_foregroundBlur_1680_8173"/>
</filter>
<linearGradient id="paint0_linear_1680_8173" x1="239.826" y1="509.794" x2="56.6363" y2="555.466" gradientUnits="userSpaceOnUse">
<stop offset="0.338542" stop-color="#4F319C"/>
<stop offset="1" stop-color="#5B39B2" stop-opacity="0"/>
</linearGradient>
<linearGradient id="paint1_linear_1680_8173" x1="411.007" y1="552.458" x2="251.044" y2="652.741" gradientUnits="userSpaceOnUse">
<stop offset="0.338542" stop-color="#4F319C"/>
<stop offset="1" stop-color="#5B39B2" stop-opacity="0"/>
</linearGradient>
<linearGradient id="paint2_linear_1680_8173" x1="621.245" y1="452.448" x2="506.02" y2="564.342" gradientUnits="userSpaceOnUse">
<stop offset="0.338542" stop-color="#4F319C"/>
<stop offset="1" stop-color="#5B39B2" stop-opacity="0"/>
</linearGradient>
<linearGradient id="paint3_linear_1680_8173" x1="470.202" y1="602.744" x2="354.977" y2="714.638" gradientUnits="userSpaceOnUse">
<stop offset="0.338542" stop-color="#4F319C"/>
<stop offset="1" stop-color="#5B39B2" stop-opacity="0"/>
</linearGradient>
<linearGradient id="paint4_linear_1680_8173" x1="338.202" y1="732.744" x2="222.977" y2="844.638" gradientUnits="userSpaceOnUse">
<stop offset="0.338542" stop-color="#4F319C"/>
<stop offset="1" stop-color="#5B39B2" stop-opacity="0"/>
</linearGradient>
<linearGradient id="paint5_linear_1680_8173" x1="630.538" y1="398.165" x2="527.492" y2="420.2" gradientUnits="userSpaceOnUse">
<stop offset="0.338542" stop-color="#4F319C"/>
<stop offset="1" stop-color="#5B39B2" stop-opacity="0"/>
</linearGradient>
<linearGradient id="paint6_linear_1680_8173" x1="162.242" y1="319.357" x2="-24.536" y2="291.819" gradientUnits="userSpaceOnUse">
<stop offset="0.338542" stop-color="#4F319C"/>
<stop offset="1" stop-color="#5B39B2" stop-opacity="0"/>
</linearGradient>
<linearGradient id="paint7_linear_1680_8173" x1="279.375" y1="281.346" x2="73.0884" y2="220.779" gradientUnits="userSpaceOnUse">
<stop offset="0.338542" stop-color="#4F319C"/>
<stop offset="1" stop-color="#5B39B2" stop-opacity="0"/>
</linearGradient>
<linearGradient id="paint8_linear_1680_8173" x1="492.688" y1="335.23" x2="326.586" y2="285.772" gradientUnits="userSpaceOnUse">
<stop offset="0.338542" stop-color="#4F319C"/>
<stop offset="1" stop-color="#5B39B2" stop-opacity="0"/>
</linearGradient>
<linearGradient id="paint9_linear_1680_8173" x1="511.786" y1="385.414" x2="396.204" y2="380.47" gradientUnits="userSpaceOnUse">
<stop offset="0.338542" stop-color="#4F319C"/>
<stop offset="1" stop-color="#5B39B2" stop-opacity="0"/>
</linearGradient>
<linearGradient id="paint10_linear_1680_8173" x1="264.786" y1="386.63" x2="149.204" y2="381.686" gradientUnits="userSpaceOnUse">
<stop offset="0.338542" stop-color="#4F319C"/>
<stop offset="1" stop-color="#5B39B2" stop-opacity="0"/>
</linearGradient>
<linearGradient id="paint11_linear_1680_8173" x1="74.6493" y1="386.605" x2="-105.475" y2="377.354" gradientUnits="userSpaceOnUse">
<stop offset="0.338542" stop-color="#4F319C"/>
<stop offset="1" stop-color="#5B39B2" stop-opacity="0"/>
</linearGradient>
<linearGradient id="paint12_linear_1680_8173" x1="376.515" y1="77.957" x2="103.747" y2="-198.113" gradientUnits="userSpaceOnUse">
<stop offset="0.338542" stop-color="#4F319C"/>
<stop offset="1" stop-color="#5B39B2" stop-opacity="0"/>
</linearGradient>
<linearGradient id="paint13_linear_1680_8173" x1="374.098" y1="207.357" x2="135.271" y2="62.573" gradientUnits="userSpaceOnUse">
<stop offset="0.338542" stop-color="#4F319C"/>
<stop offset="1" stop-color="#5B39B2" stop-opacity="0"/>
</linearGradient>
<linearGradient id="paint14_linear_1680_8173" x1="553.69" y1="314.233" x2="453.161" y2="253.289" gradientUnits="userSpaceOnUse">
<stop offset="0.338542" stop-color="#4F319C"/>
<stop offset="1" stop-color="#5B39B2" stop-opacity="0"/>
</linearGradient>
<linearGradient id="paint15_linear_1680_8173" x1="555.723" y1="261.493" x2="476.177" y2="175.044" gradientUnits="userSpaceOnUse">
<stop offset="0.338542" stop-color="#4F319C"/>
<stop offset="1" stop-color="#5B39B2" stop-opacity="0"/>
</linearGradient>
<linearGradient id="paint16_linear_1680_8173" x1="549.504" y1="155.6" x2="478.264" y2="31.929" gradientUnits="userSpaceOnUse">
<stop offset="0.338542" stop-color="#4F319C"/>
<stop offset="1" stop-color="#5B39B2" stop-opacity="0"/>
</linearGradient>
<linearGradient id="paint17_linear_1680_8173" x1="647.864" y1="322.278" x2="581.751" y2="196.73" gradientUnits="userSpaceOnUse">
<stop offset="0.338542" stop-color="#4F319C"/>
<stop offset="1" stop-color="#5B39B2" stop-opacity="0"/>
</linearGradient>
<linearGradient id="paint18_linear_1680_8173" x1="644.079" y1="228.897" x2="615.377" y2="121.184" gradientUnits="userSpaceOnUse">
<stop offset="0.338542" stop-color="#4F319C"/>
<stop offset="1" stop-color="#5B39B2" stop-opacity="0"/>
</linearGradient>
<linearGradient id="paint19_linear_1680_8173" x1="594.029" y1="57.3409" x2="565.327" y2="-50.3725" gradientUnits="userSpaceOnUse">
<stop offset="0.338542" stop-color="#4F319C"/>
<stop offset="1" stop-color="#5B39B2" stop-opacity="0"/>
</linearGradient>
<linearGradient id="paint20_linear_1680_8173" x1="626.28" y1="353.714" x2="575.198" y2="322.747" gradientUnits="userSpaceOnUse">
<stop offset="0.338542" stop-color="#4F319C"/>
<stop offset="1" stop-color="#5B39B2" stop-opacity="0"/>
</linearGradient>
<linearGradient id="paint21_linear_1680_8173" x1="238.045" y1="210.216" x2="-200.219" y2="17.315" gradientUnits="userSpaceOnUse">
<stop offset="0.338542" stop-color="#4F319C"/>
<stop offset="1" stop-color="#5B39B2" stop-opacity="0"/>
</linearGradient>
<linearGradient id="paint22_linear_1680_8173" x1="161.431" y1="689.031" x2="-350.277" y2="901.728" gradientUnits="userSpaceOnUse">
<stop offset="0.338542" stop-color="#4F319C"/>
<stop offset="1" stop-color="#5B39B2" stop-opacity="0"/>
</linearGradient>
<linearGradient id="paint23_linear_1680_8173" x1="1070.17" y1="91.0231" x2="1379.53" y2="-168.55" gradientUnits="userSpaceOnUse">
<stop offset="0.338542" stop-color="#4F319C"/>
<stop offset="1" stop-color="#5B39B2" stop-opacity="0"/>
</linearGradient>
<linearGradient id="paint24_linear_1680_8173" x1="986.288" y1="257.019" x2="1251.69" y2="154.005" gradientUnits="userSpaceOnUse">
<stop offset="0.338542" stop-color="#4F319C"/>
<stop offset="1" stop-color="#5B39B2" stop-opacity="0"/>
</linearGradient>
<linearGradient id="paint25_linear_1680_8173" x1="1160.83" y1="276.352" x2="1558.49" y2="203.763" gradientUnits="userSpaceOnUse">
<stop offset="0.338542" stop-color="#4F319C"/>
<stop offset="1" stop-color="#5B39B2" stop-opacity="0"/>
</linearGradient>
<linearGradient id="paint26_linear_1680_8173" x1="1161.06" y1="582.043" x2="1403.42" y2="690.577" gradientUnits="userSpaceOnUse">
<stop offset="0.338542" stop-color="#4F319C"/>
<stop offset="1" stop-color="#5B39B2" stop-opacity="0"/>
</linearGradient>
<linearGradient id="paint27_linear_1680_8173" x1="1018.33" y1="638.187" x2="1271.25" y2="828.125" gradientUnits="userSpaceOnUse">
<stop offset="0.338542" stop-color="#4F319C"/>
<stop offset="1" stop-color="#5B39B2" stop-opacity="0"/>
</linearGradient>
<linearGradient id="paint28_linear_1680_8173" x1="491.923" y1="436.716" x2="361.873" y2="502.241" gradientUnits="userSpaceOnUse">
<stop offset="0.338542" stop-color="#4F319C"/>
<stop offset="1" stop-color="#5B39B2" stop-opacity="0"/>
</linearGradient>
<linearGradient id="paint29_linear_1680_8173" x1="678.804" y1="152.197" x2="684.533" y2="4.7806" gradientUnits="userSpaceOnUse">
<stop offset="0.338542" stop-color="#4F319C"/>
<stop offset="1" stop-color="#5B39B2" stop-opacity="0"/>
</linearGradient>
<linearGradient id="paint30_linear_1680_8173" x1="759.534" y1="100.146" x2="815.427" y2="-69.6522" gradientUnits="userSpaceOnUse">
<stop offset="0.338542" stop-color="#4F319C"/>
<stop offset="1" stop-color="#5B39B2" stop-opacity="0"/>
</linearGradient>
<linearGradient id="paint31_linear_1680_8173" x1="698.33" y1="316.581" x2="741.911" y2="174.903" gradientUnits="userSpaceOnUse">
<stop offset="0.338542" stop-color="#4F319C"/>
<stop offset="1" stop-color="#5B39B2" stop-opacity="0"/>
</linearGradient>
<linearGradient id="paint32_linear_1680_8173" x1="717.776" y1="328.373" x2="787.493" y2="197.504" gradientUnits="userSpaceOnUse">
<stop offset="0.338542" stop-color="#4F319C"/>
<stop offset="1" stop-color="#5B39B2" stop-opacity="0"/>
</linearGradient>
<linearGradient id="paint33_linear_1680_8173" x1="738.442" y1="354.238" x2="841.409" y2="292.02" gradientUnits="userSpaceOnUse">
<stop offset="0.338542" stop-color="#4F319C"/>
<stop offset="1" stop-color="#5B39B2" stop-opacity="0"/>
</linearGradient>
<linearGradient id="paint34_linear_1680_8173" x1="743.992" y1="367.937" x2="841.19" y2="345.69" gradientUnits="userSpaceOnUse">
<stop offset="0.338542" stop-color="#4F319C"/>
<stop offset="1" stop-color="#5B39B2" stop-opacity="0"/>
</linearGradient>
<linearGradient id="paint35_linear_1680_8173" x1="854.225" y1="340.721" x2="951.422" y2="318.474" gradientUnits="userSpaceOnUse">
<stop offset="0.338542" stop-color="#4F319C"/>
<stop offset="1" stop-color="#5B39B2" stop-opacity="0"/>
</linearGradient>
<linearGradient id="paint36_linear_1680_8173" x1="815.392" y1="152.732" x2="894.175" y2="27.0834" gradientUnits="userSpaceOnUse">
<stop offset="0.338542" stop-color="#4F319C"/>
<stop offset="1" stop-color="#5B39B2" stop-opacity="0"/>
</linearGradient>
<linearGradient id="paint37_linear_1680_8173" x1="841.095" y1="177.367" x2="1000.32" y2="-18.5466" gradientUnits="userSpaceOnUse">
<stop offset="0.338542" stop-color="#4F319C"/>
<stop offset="1" stop-color="#5B39B2" stop-opacity="0"/>
</linearGradient>
<linearGradient id="paint38_linear_1680_8173" x1="737.858" y1="404.669" x2="879.958" y2="445.609" gradientUnits="userSpaceOnUse">
<stop offset="0.338542" stop-color="#4F319C"/>
<stop offset="1" stop-color="#5B39B2" stop-opacity="0"/>
</linearGradient>
<linearGradient id="paint39_linear_1680_8173" x1="1119.52" y1="439.004" x2="1361.02" y2="461.929" gradientUnits="userSpaceOnUse">
<stop offset="0.338542" stop-color="#4F319C"/>
<stop offset="1" stop-color="#5B39B2" stop-opacity="0"/>
</linearGradient>
<linearGradient id="paint40_linear_1680_8173" x1="1207.4" y1="384.603" x2="1407.46" y2="390.544" gradientUnits="userSpaceOnUse">
<stop offset="0.338542" stop-color="#4F319C"/>
<stop offset="1" stop-color="#5B39B2" stop-opacity="0"/>
</linearGradient>
<linearGradient id="paint41_linear_1680_8173" x1="1108.9" y1="351.977" x2="1308.89" y2="343.982" gradientUnits="userSpaceOnUse">
<stop offset="0.338542" stop-color="#4F319C"/>
<stop offset="1" stop-color="#5B39B2" stop-opacity="0"/>
</linearGradient>
<linearGradient id="paint42_linear_1680_8173" x1="773.076" y1="475.372" x2="849.484" y2="533.974" gradientUnits="userSpaceOnUse">
<stop offset="0.338542" stop-color="#4F319C"/>
<stop offset="1" stop-color="#5B39B2" stop-opacity="0"/>
</linearGradient>
<linearGradient id="paint43_linear_1680_8173" x1="861.12" y1="480.285" x2="950.569" y2="591.798" gradientUnits="userSpaceOnUse">
<stop offset="0.338542" stop-color="#4F319C"/>
<stop offset="1" stop-color="#5B39B2" stop-opacity="0"/>
</linearGradient>
<linearGradient id="paint44_linear_1680_8173" x1="1015.7" y1="580.947" x2="1069.21" y2="652.449" gradientUnits="userSpaceOnUse">
<stop offset="0.338542" stop-color="#4F319C"/>
<stop offset="1" stop-color="#5B39B2" stop-opacity="0"/>
</linearGradient>
<linearGradient id="paint45_linear_1680_8173" x1="965.038" y1="461.782" x2="989.603" y2="529.138" gradientUnits="userSpaceOnUse">
<stop offset="0.338542" stop-color="#4F319C"/>
<stop offset="1" stop-color="#5B39B2" stop-opacity="0"/>
</linearGradient>
<linearGradient id="paint46_linear_1680_8173" x1="1106.49" y1="498.483" x2="1129.83" y2="559.415" gradientUnits="userSpaceOnUse">
<stop offset="0.338542" stop-color="#4F319C"/>
<stop offset="1" stop-color="#5B39B2" stop-opacity="0"/>
</linearGradient>
<linearGradient id="paint47_linear_1680_8173" x1="863.634" y1="568.837" x2="914.087" y2="614.072" gradientUnits="userSpaceOnUse">
<stop offset="0.338542" stop-color="#4F319C"/>
<stop offset="1" stop-color="#5B39B2" stop-opacity="0"/>
</linearGradient>
<linearGradient id="paint48_linear_1680_8173" x1="950.593" y1="653.491" x2="1031.26" y2="725.227" gradientUnits="userSpaceOnUse">
<stop offset="0.338542" stop-color="#4F319C"/>
<stop offset="1" stop-color="#5B39B2" stop-opacity="0"/>
</linearGradient>
<linearGradient id="paint49_linear_1680_8173" x1="150" y1="592.174" x2="-49.0616" y2="592.174" gradientUnits="userSpaceOnUse">
<stop offset="0.147202" stop-color="#FDC500"/>
<stop offset="1" stop-color="#FD8630"/>
</linearGradient>
<linearGradient id="paint50_linear_1680_8173" x1="125.093" y1="522.6" x2="-160.131" y2="753.993" gradientUnits="userSpaceOnUse">
<stop offset="0.286458" stop-color="#DE3D64"/>
<stop offset="1" stop-color="#FD8731"/>
</linearGradient>
<radialGradient id="paint51_radial_1680_8173" cx="0" cy="0" r="1" gradientUnits="userSpaceOnUse" gradientTransform="translate(684 384) rotate(90) scale(793)">
<stop offset="0.78125" stop-color="#190E3D" stop-opacity="0"/>
<stop offset="1" stop-color="#190E3D"/>
</radialGradient>
<linearGradient id="paint52_linear_1680_8173" x1="677.5" y1="377" x2="677.5" y2="530" gradientUnits="userSpaceOnUse">
<stop offset="0.26388" stop-color="#190E3D"/>
<stop offset="1" stop-color="#190E3D" stop-opacity="0"/>
</linearGradient>
<linearGradient id="paint53_linear_1680_8173" x1="338.77" y1="183.063" x2="37.0346" y2="95.2098" gradientUnits="userSpaceOnUse">
<stop stop-color="#FDC500"/>
<stop offset="1" stop-color="#FD8630"/>
</linearGradient>
<linearGradient id="paint54_linear_1680_8173" x1="1176.91" y1="688.441" x2="1176.91" y2="427.591" gradientUnits="userSpaceOnUse">
<stop offset="0.182292" stop-color="#DE3D64"/>
<stop offset="1" stop-color="#FD8630"/>
</linearGradient>
<radialGradient id="paint55_radial_1680_8173" cx="0" cy="0" r="1" gradientUnits="userSpaceOnUse" gradientTransform="translate(1295.59 648.009) rotate(90) scale(48.2572)">
<stop stop-color="#F09929"/>
<stop offset="0.895833" stop-color="#FDDA00"/>
</radialGradient>
<clipPath id="clip0_1680_8173">
<rect width="1366" height="768" fill="white"/>
</clipPath>
</defs>
</svg>
