<svg width="426" height="426" viewBox="0 0 426 426" fill="none" xmlns="http://www.w3.org/2000/svg">
<path d="M212.695 0C208.02 0 203.379 0.150944 198.777 0.448329C195.363 0.668969 192.774 3.61566 192.994 7.02994C193.215 10.4442 196.162 13.0332 199.576 12.8125C203.912 12.5323 208.286 12.39 212.695 12.39C217.104 12.39 221.478 12.5323 225.814 12.8125C229.228 13.0332 232.175 10.4442 232.396 7.02994C232.616 3.61566 230.027 0.66897 226.613 0.44833C222.011 0.150944 217.37 0 212.695 0Z" fill="#EDEAF6"/>
<path d="M148.284 22.9692C151.524 21.8697 153.259 18.3518 152.16 15.1119C151.06 11.872 147.542 10.1369 144.303 11.2365C135.458 14.2381 126.876 17.8054 118.598 21.8952C115.531 23.4107 114.273 27.126 115.789 30.1934C117.304 33.2608 121.019 34.5188 124.087 33.0033C131.88 29.1527 139.959 25.7946 148.284 22.9692Z" fill="#EDEAF6"/>
<path d="M281.088 11.2365C277.848 10.1369 274.33 11.872 273.23 15.1119C272.131 18.3518 273.866 21.8697 277.106 22.9692C285.431 25.7946 293.51 29.1527 301.303 33.0033C304.371 34.5188 308.086 33.2608 309.602 30.1934C311.117 27.126 309.859 23.4107 306.792 21.8952C298.514 17.8054 289.932 14.2381 281.088 11.2365Z" fill="#EDEAF6"/>
<path d="M80.6256 62.0934C83.197 59.8365 83.452 55.9223 81.1951 53.3509C78.9382 50.7794 75.0241 50.5244 72.4526 52.7813C65.4763 58.9042 58.9042 65.4763 52.7813 72.4526C50.5244 75.0241 50.7794 78.9382 53.3509 81.1951C55.9223 83.452 59.8365 83.197 62.0934 80.6255C67.8617 74.0533 74.0533 67.8617 80.6256 62.0934Z" fill="#EDEAF6"/>
<path d="M352.937 52.7813C350.366 50.5244 346.452 50.7794 344.195 53.3509C341.938 55.9223 342.193 59.8365 344.764 62.0934C351.337 67.8617 357.528 74.0533 363.297 80.6256C365.554 83.197 369.468 83.452 372.039 81.1951C374.611 78.9382 374.866 75.0241 372.609 72.4526C366.486 65.4763 359.914 58.9042 352.937 52.7813Z" fill="#EDEAF6"/>
<path d="M33.0033 124.087C34.5188 121.019 33.2608 117.304 30.1934 115.788C27.126 114.273 23.4107 115.531 21.8952 118.598C17.8054 126.876 14.2381 135.458 11.2365 144.303C10.1369 147.542 11.872 151.06 15.1119 152.16C18.3518 153.259 21.8697 151.524 22.9692 148.284C25.7946 139.959 29.1527 131.88 33.0033 124.087Z" fill="#EDEAF6"/>
<path d="M403.495 118.598C401.979 115.531 398.264 114.273 395.197 115.789C392.129 117.304 390.871 121.019 392.387 124.087C396.237 131.88 399.595 139.959 402.421 148.284C403.52 151.524 407.038 153.259 410.278 152.16C413.518 151.06 415.253 147.542 414.154 144.303C411.152 135.458 407.585 126.876 403.495 118.598Z" fill="#EDEAF6"/>
<path d="M12.8125 199.576C13.0332 196.162 10.4442 193.215 7.02994 192.994C3.61566 192.774 0.66897 195.363 0.44833 198.777C0.150944 203.379 0 208.02 0 212.695C0 217.37 0.150944 222.011 0.448329 226.613C0.668969 230.027 3.61566 232.616 7.02994 232.396C10.4442 232.175 13.0332 229.228 12.8125 225.814C12.5323 221.478 12.39 217.104 12.39 212.695C12.39 208.286 12.5323 203.912 12.8125 199.576Z" fill="#EDEAF6"/>
<path d="M424.942 198.777C424.721 195.363 421.774 192.774 418.36 192.994C414.946 193.215 412.357 196.162 412.577 199.576C412.858 203.912 413 208.286 413 212.695C413 217.104 412.858 221.478 412.577 225.814C412.357 229.228 414.946 232.175 418.36 232.396C421.774 232.616 424.721 230.027 424.942 226.613C425.239 222.011 425.39 217.37 425.39 212.695C425.39 208.02 425.239 203.379 424.942 198.777Z" fill="#EDEAF6"/>
<path d="M22.9692 277.106C21.8697 273.866 18.3518 272.131 15.1119 273.23C11.872 274.33 10.1369 277.848 11.2365 281.087C14.2381 289.932 17.8054 298.514 21.8952 306.792C23.4107 309.859 27.126 311.117 30.1934 309.602C33.2608 308.086 34.5188 304.371 33.0033 301.303C29.1527 293.51 25.7946 285.431 22.9692 277.106Z" fill="#EDEAF6"/>
<path d="M414.154 281.088C415.253 277.848 413.518 274.33 410.278 273.23C407.038 272.131 403.52 273.866 402.421 277.106C399.595 285.431 396.237 293.51 392.387 301.303C390.871 304.371 392.129 308.086 395.197 309.602C398.264 311.117 401.979 309.859 403.495 306.792C407.585 298.514 411.152 289.932 414.154 281.088Z" fill="#EDEAF6"/>
<path d="M62.0934 344.764C59.8365 342.193 55.9223 341.938 53.3509 344.195C50.7794 346.452 50.5244 350.366 52.7813 352.937C58.9042 359.914 65.4763 366.486 72.4526 372.609C75.0241 374.866 78.9382 374.611 81.1951 372.039C83.452 369.468 83.197 365.554 80.6255 363.297C74.0533 357.528 67.8617 351.337 62.0934 344.764Z" fill="#EDEAF6"/>
<path d="M372.609 352.937C374.866 350.366 374.611 346.452 372.039 344.195C369.468 341.938 365.554 342.193 363.297 344.764C357.528 351.337 351.337 357.528 344.764 363.297C342.193 365.554 341.938 369.468 344.195 372.039C346.452 374.611 350.366 374.866 352.937 372.609C359.914 366.486 366.486 359.914 372.609 352.937Z" fill="#EDEAF6"/>
<path d="M124.087 392.387C121.019 390.871 117.304 392.129 115.788 395.197C114.273 398.264 115.531 401.979 118.598 403.495C126.876 407.585 135.458 411.152 144.303 414.154C147.542 415.253 151.06 413.518 152.16 410.278C153.259 407.038 151.524 403.52 148.284 402.421C139.959 399.595 131.88 396.237 124.087 392.387Z" fill="#EDEAF6"/>
<path d="M306.792 403.495C309.859 401.979 311.117 398.264 309.602 395.197C308.086 392.129 304.371 390.871 301.303 392.387C293.51 396.237 285.431 399.595 277.106 402.421C273.866 403.52 272.131 407.038 273.23 410.278C274.33 413.518 277.848 415.253 281.087 414.154C289.932 411.152 298.514 407.585 306.792 403.495Z" fill="#EDEAF6"/>
<path d="M199.576 412.577C196.162 412.357 193.215 414.946 192.994 418.36C192.774 421.774 195.363 424.721 198.777 424.942C203.379 425.239 208.02 425.39 212.695 425.39C217.37 425.39 222.011 425.239 226.613 424.942C230.027 424.721 232.616 421.774 232.396 418.36C232.175 414.946 229.228 412.357 225.814 412.577C221.478 412.858 217.104 413 212.695 413C208.286 413 203.912 412.858 199.576 412.577Z" fill="#EDEAF6"/>
<path fill-rule="evenodd" clip-rule="evenodd" d="M212.695 64.384C131.652 64.384 65.954 130.082 65.954 211.125C65.954 292.167 131.652 357.865 212.695 357.865C293.737 357.865 359.435 292.167 359.435 211.125C359.435 130.082 293.737 64.384 212.695 64.384ZM78.344 211.125C78.344 136.925 138.495 76.774 212.695 76.774C286.894 76.774 347.045 136.925 347.045 211.125C347.045 285.324 286.894 345.475 212.695 345.475C138.495 345.475 78.344 285.324 78.344 211.125Z" fill="#EDEAF6"/>
</svg>
