<svg width="157" height="457" viewBox="0 0 157 457" fill="none" xmlns="http://www.w3.org/2000/svg">
<g style="mix-blend-mode:lighten" clip-path="url(#clip0_414_682)">
<path d="M67.1101 89.72V400.47H245.59V89.72C141.2 114.68 67.1101 89.72 67.1101 89.72Z" fill="#110241" stroke="#F4F2F6" stroke-width="2" stroke-miterlimit="10"/>
<path d="M156.42 78.5V0.500004C136.226 0.493972 116.628 7.3362 100.825 19.9089C85.0233 32.4816 73.9519 50.0415 69.4199 69.72C80.2899 72.2 112.7 78.64 156.42 78.5Z" fill="#110241" stroke="#F4F2F6" stroke-width="2" stroke-miterlimit="10"/>
<path d="M156.42 78.5V100.79C186.482 100.476 216.412 96.7626 245.64 89.72C245.646 82.8356 244.857 75.9736 243.29 69.27C214.735 75.3689 185.619 78.4624 156.42 78.5Z" fill="#110241" stroke="#F4F2F6" stroke-width="2" stroke-miterlimit="10"/>
<path d="M212.16 20.04C196.353 7.35783 176.686 0.459836 156.42 0.489966V26.34C156.42 26.34 195.1 29.34 212.16 20.04Z" fill="#110241" stroke="#F4F2F6" stroke-width="2" stroke-miterlimit="10"/>
<path d="M212.16 20.04C195.1 29.33 156.42 26.34 156.42 26.34V78.49C185.619 78.4524 214.735 75.3589 243.29 69.26C238.707 49.8347 227.747 32.5055 212.16 20.04Z" fill="#110241" stroke="#F4F2F6" stroke-width="2" stroke-miterlimit="10"/>
<path d="M69.45 69.72C67.9428 76.2797 67.1846 82.9893 67.19 89.72C67.19 89.72 77.25 93.1 95.13 96.13V74.35C83.03 72.64 74.18 70.8 69.45 69.72Z" fill="#110241" stroke="#F4F2F6" stroke-width="2" stroke-miterlimit="10"/>
<path d="M95.1299 74.35V96.13C115.384 99.4756 135.893 101.035 156.42 100.79V78.5C135.917 78.5839 115.434 77.197 95.1299 74.35Z" fill="#110241" stroke="#F4F2F6" stroke-width="2" stroke-miterlimit="10"/>
<path d="M7.58997 418.93H56.8199L63.71 436.93H0.709961L7.58997 418.93Z" fill="#110241" stroke="#F4F2F6" stroke-width="2" stroke-miterlimit="10"/>
<path d="M56.8401 280.37V166.04C37.5901 149.94 17.6501 158.19 7.59009 164.41V278.75C17.6501 272.54 37.5901 264.29 56.8401 280.37Z" fill="#110241" stroke="#F4F2F6" stroke-width="2" stroke-miterlimit="10"/>
<path d="M56.8401 166.04V129.74C56.7102 123.298 54.0598 117.163 49.4578 112.653C44.8557 108.142 38.6688 105.616 32.2251 105.616C25.7814 105.616 19.5945 108.142 14.9924 112.653C10.3904 117.163 7.73997 123.298 7.61011 129.74V164.43C17.6501 158.19 37.5901 149.94 56.8401 166.04Z" fill="#110241" stroke="#F4F2F6" stroke-width="2" stroke-miterlimit="10"/>
<path d="M7.59009 291.29V418.93H56.8201V292.93C37.5901 276.83 17.6501 285.04 7.59009 291.29Z" fill="#110241" stroke="#F4F2F6" stroke-width="2" stroke-miterlimit="10"/>
<path d="M7.59009 278.75V291.29C17.5901 285.07 37.5901 276.83 56.8201 292.9V280.37C37.5901 264.29 17.6501 272.54 7.59009 278.75Z" fill="#110241" stroke="#F4F2F6" stroke-width="2" stroke-miterlimit="10"/>
<path d="M143.17 138.58L126.68 166.76H186.11L172.2 139.6C169.1 133.55 163.48 129.84 157.41 129.84C151.7 129.84 146.37 133.11 143.17 138.58Z" fill="#110241" stroke="#F4F2F6" stroke-width="2" stroke-miterlimit="10"/>
<path d="M126.91 166.76H185.91L209.5 203.68H103.33L126.91 166.76Z" fill="#110241" stroke="#F4F2F6" stroke-width="2" stroke-miterlimit="10"/>
<path d="M103.33 203.83H209.33V215.83H103.33V203.83Z" fill="#110241" stroke="#F4F2F6" stroke-width="2" stroke-miterlimit="10"/>
<path d="M213.58 406.75H99.2L93.5 423.15H219.28L213.58 406.75Z" fill="#110241" stroke="#F4F2F6" stroke-width="2" stroke-miterlimit="10"/>
<path d="M82.1101 455.97H230.68L224.98 439.56H87.8101L82.1101 455.97Z" fill="#110241" stroke="#F4F2F6" stroke-width="2" stroke-miterlimit="10"/>
<path d="M93.5001 423.15L87.8101 439.56H156.68V423.15H93.5001Z" fill="#110241" stroke="#F4F2F6" stroke-width="2" stroke-miterlimit="10"/>
<path d="M219.28 423.15H156.68V439.56H224.98L219.28 423.15Z" fill="#110241" stroke="#F4F2F6" stroke-width="2" stroke-miterlimit="10"/>
<path d="M156.39 234.45C172.98 234.45 187.33 245.45 194.31 261.55C203.308 262.964 212.204 264.969 220.94 267.55L209.46 216.04H103.33L91.8799 267.44C100.593 265.103 109.426 263.237 118.34 261.85C125.28 245.62 139.71 234.45 156.39 234.45Z" fill="#110241" stroke="#F4F2F6" stroke-width="2" stroke-miterlimit="10"/>
<path d="M118.34 261.85C109.426 263.237 100.593 265.103 91.8799 267.44L88.9299 280.68C97.3853 278.283 105.965 276.347 114.63 274.88C115.323 270.4 116.57 266.023 118.34 261.85Z" fill="#110241" stroke="#F4F2F6" stroke-width="2" stroke-miterlimit="10"/>
<path d="M250.2 399.04L230.75 311.65C218.86 307.44 212.84 305.57 201.36 303.65C192.36 321.34 175.36 330.09 157.7 330.09C140.04 330.09 121.47 320.25 113.95 303.43C103.125 305.031 92.4722 307.635 82.1299 311.21L62.5899 399.04C61.7299 402.94 64.2599 406.73 67.7299 406.73H245.06C248.53 406.74 251.06 402.95 250.2 399.04Z" fill="#110241" stroke="#F4F2F6" stroke-width="2" stroke-miterlimit="10"/>
<path d="M113.94 283.67C113.945 280.727 114.176 277.788 114.63 274.88C105.965 276.347 97.3853 278.283 88.9299 280.68L82.1299 311.25C93.6186 307.548 105.382 304.759 117.31 302.91C115.064 296.745 113.923 290.232 113.94 283.67Z" fill="#110241" stroke="#F4F2F6" stroke-width="2" stroke-miterlimit="10"/>
<path d="M46.09 329.84C62.01 317.54 82.09 293.19 89.09 279.84L62.59 399.04L11.8799 400.6C8.87994 400.6 6.39996 397.6 6.64996 394.13C7.94996 376.16 12.83 355.55 46.09 329.84Z" fill="#110241" stroke="#F4F2F6" stroke-width="2" stroke-miterlimit="10"/>
<path d="M213.58 406.75H99.2L93.5 423.15H219.28L213.58 406.75Z" fill="#110241" stroke="#F4F2F6" stroke-width="2" stroke-miterlimit="10"/>
<path d="M193.03 270.15C190.346 261.202 184.377 253.601 176.32 248.872C168.264 244.143 158.717 242.637 149.596 244.655C140.475 246.673 132.455 252.067 127.146 259.753C121.837 267.44 119.632 276.85 120.974 286.095C122.315 295.34 127.104 303.735 134.379 309.595C141.654 315.455 150.876 318.347 160.195 317.689C169.513 317.032 178.238 312.874 184.618 306.05C190.998 299.226 194.56 290.242 194.59 280.9C194.604 277.259 194.078 273.637 193.03 270.15Z" fill="#110241" stroke="#F4F2F6" stroke-width="2" stroke-miterlimit="10"/>
<path d="M206.08 271.84C203.739 259.415 196.7 248.369 186.427 240.999C176.154 233.628 163.436 230.5 150.916 232.262C138.395 234.025 127.036 240.545 119.197 250.465C111.359 260.386 107.644 272.946 108.825 285.534C110.006 298.123 115.992 309.772 125.539 318.062C135.086 326.352 147.46 330.644 160.09 330.048C172.719 329.451 184.634 324.011 193.357 314.858C202.08 305.706 206.941 293.544 206.93 280.9C206.928 277.86 206.644 274.827 206.08 271.84ZM157.7 317.84C149.629 317.836 141.783 315.185 135.362 310.295C128.942 305.405 124.301 298.545 122.152 290.766C120.003 282.986 120.464 274.717 123.464 267.225C126.463 259.732 131.837 253.43 138.761 249.283C145.685 245.136 153.777 243.374 161.798 244.266C169.82 245.158 177.327 248.655 183.171 254.222C189.015 259.789 192.872 267.118 194.153 275.086C195.433 283.054 194.066 291.223 190.26 298.34C187.104 304.23 182.408 309.152 176.674 312.583C170.94 316.013 164.382 317.823 157.7 317.82V317.84Z" fill="#110241" stroke="#F4F2F6" stroke-width="2" stroke-miterlimit="10"/>
<path d="M205.68 271.61C203.338 259.177 196.296 248.124 186.016 240.749C175.737 233.373 163.011 230.242 150.483 232.005C137.955 233.769 126.588 240.292 118.744 250.219C110.9 260.146 107.183 272.713 108.365 285.31C109.547 297.906 115.537 309.563 125.09 317.858C134.643 326.153 147.025 330.448 159.662 329.85C172.3 329.253 184.222 323.809 192.95 314.65C201.678 305.491 206.542 293.322 206.53 280.67C206.529 277.63 206.244 274.597 205.68 271.61ZM157.3 317.61C149.232 317.603 141.388 314.951 134.971 310.061C128.554 305.17 123.917 298.311 121.771 290.534C119.624 282.756 120.087 274.489 123.088 267C126.088 259.51 131.462 253.211 138.385 249.067C145.307 244.923 153.398 243.163 161.416 244.057C169.435 244.95 176.94 248.448 182.78 254.014C188.621 259.58 192.476 266.907 193.755 274.874C195.034 282.84 193.666 291.006 189.86 298.12C186.702 304.008 182.006 308.928 176.272 312.357C170.538 315.786 163.981 317.594 157.3 317.59V317.61Z" fill="#110241" stroke="#F4F2F6" stroke-width="2" stroke-miterlimit="10"/>
</g>
<defs>
<clipPath id="clip0_414_682">
<rect width="312.63" height="456.47" fill="white"/>
</clipPath>
</defs>
</svg>
