<svg width="123" height="42" viewBox="0 0 123 42" fill="none" xmlns="http://www.w3.org/2000/svg">
<g clip-path="url(#clip0_4496_10022)">
<mask id="mask0_4496_10022" style="mask-type:luminance" maskUnits="userSpaceOnUse" x="0" y="0" width="123" height="42">
<path d="M122.656 0H0.15625V42H122.656V0Z" fill="white"/>
</mask>
<g mask="url(#mask0_4496_10022)">
<path d="M18.5941 2.69409C8.44588 2.69409 0.21875 10.921 0.21875 21.0692C0.21875 31.2179 8.44588 39.4441 18.5941 39.4441C28.7434 39.4441 36.9697 31.2179 36.9697 21.0692C36.9697 10.9216 28.7434 2.69497 18.5939 2.69497L18.5941 2.69409ZM27.0209 29.1963C26.6917 29.7361 25.9852 29.9072 25.4455 29.5758C21.1311 26.9406 15.6999 26.3438 9.30364 27.8051C8.68725 27.9455 8.07286 27.5594 7.93243 26.9428C7.79134 26.3262 8.17599 25.7118 8.79389 25.5714C15.7935 23.9722 21.7977 24.6608 26.6413 27.6208C27.1811 27.9521 27.3523 28.6565 27.0209 29.1963ZM29.27 24.1929C28.8553 24.867 27.9732 25.0798 27.2996 24.6652C22.3603 21.6292 14.8312 20.75 8.98899 22.5233C8.23129 22.7522 7.43105 22.3252 7.20109 21.5688C6.97288 20.8111 7.40011 20.0124 8.15647 19.7821C14.8299 17.7572 23.1261 18.738 28.7982 22.2236C29.4719 22.6383 29.6848 23.5201 29.27 24.1929ZM29.4631 18.9829C23.5408 15.4653 13.7698 15.1418 8.11543 16.858C7.20745 17.1333 6.24724 16.6208 5.97208 15.7128C5.69692 14.8044 6.20907 13.8448 7.1177 13.5688C13.6086 11.5984 24.3988 11.9791 31.2172 16.0268C32.0356 16.5115 32.3034 17.5663 31.8184 18.3819C31.3357 19.1986 30.2771 19.4678 29.4631 18.9829ZM50.212 19.657C47.0391 18.9004 46.4751 18.3694 46.4751 17.2537C46.4751 16.1995 47.4669 15.4901 48.9437 15.4901C50.3743 15.4901 51.7918 16.0287 53.2796 17.1377C53.3234 17.1713 53.3805 17.1847 53.4353 17.176C53.4924 17.1676 53.5407 17.1371 53.5736 17.0913L55.1227 14.9075C55.1864 14.8176 55.1688 14.6936 55.0832 14.6249C53.3125 13.2046 51.3201 12.514 48.9898 12.514C45.5645 12.514 43.1706 14.5699 43.1706 17.5113C43.1706 20.6655 45.2354 21.7823 48.8032 22.6444C51.8379 23.3437 52.3514 23.9296 52.3514 24.9768C52.3514 26.1375 51.3156 26.8594 49.6481 26.8594C47.7961 26.8594 46.2842 26.234 44.5947 24.7727C44.553 24.7353 44.496 24.72 44.4433 24.7222C44.3862 24.7266 44.3358 24.7529 44.3007 24.7946L42.5628 26.8616C42.4904 26.9494 42.4991 27.0767 42.5825 27.1512C44.5486 28.9066 46.9666 29.8326 49.5778 29.8326C53.2685 29.8326 55.6537 27.8161 55.6537 24.6937C55.6603 22.0591 54.0826 20.5998 50.2186 19.6598L50.212 19.657ZM64.0051 16.528C62.4055 16.528 61.0932 17.1582 60.0093 18.4495V16.9961C60.0093 16.8813 59.9171 16.7878 59.803 16.7878H56.9615C56.8474 16.7878 56.7552 16.8813 56.7552 16.9961V33.1459C56.7552 33.26 56.8474 33.3544 56.9615 33.3544H59.803C59.9171 33.3544 60.0093 33.26 60.0093 33.1459V28.0487C61.0932 29.2621 62.4055 29.8567 64.0051 29.8567C66.9782 29.8567 69.9887 27.5682 69.9887 23.193C69.9931 18.817 66.9827 16.5278 64.0072 16.5278L64.0051 16.528ZM66.6842 23.193C66.6842 25.4199 65.3128 26.9757 63.3468 26.9757C61.4048 26.9757 59.9391 25.3498 59.9391 23.193C59.9391 21.0361 61.4048 19.4105 63.3468 19.4105C65.2799 19.4104 66.6842 21.0009 66.6842 23.193ZM77.7016 16.528C73.8726 16.528 70.873 19.4762 70.873 23.2407C70.873 26.9648 73.8528 29.8809 77.6555 29.8809C81.4976 29.8809 84.506 26.9428 84.506 23.193C84.506 19.456 81.5174 16.528 77.7016 16.528ZM77.7016 26.9977C75.6653 26.9977 74.1293 25.3607 74.1293 23.1919C74.1293 21.0133 75.6126 19.4323 77.6555 19.4323C79.7049 19.4323 81.2496 21.0686 81.2496 23.2395C81.2496 25.4178 79.7576 26.9977 77.7016 26.9977ZM92.6815 16.7878H89.5551V13.5916C89.5551 13.4771 89.4624 13.3836 89.3486 13.3836H86.5071C86.393 13.3836 86.2987 13.4771 86.2987 13.5916V16.7878H84.9338C84.8197 16.7878 84.7276 16.8813 84.7276 16.9961V19.4376C84.7276 19.5521 84.8197 19.6458 84.9338 19.6458H86.2987V25.9641C86.2987 28.516 87.5692 29.8107 90.0775 29.8107C91.0951 29.8107 91.9404 29.6 92.7366 29.148C92.8023 29.1129 92.8416 29.0427 92.8416 28.9681V26.6421C92.8416 26.572 92.8049 26.5039 92.7428 26.4666C92.6815 26.4272 92.6045 26.425 92.5415 26.4579C91.9946 26.7321 91.4661 26.8594 90.8738 26.8594C89.9629 26.8594 89.5551 26.4447 89.5551 25.5187V19.6469H92.6815C92.7961 19.6469 92.888 19.5534 92.888 19.4386V16.9974C92.8924 16.8826 92.8005 16.7891 92.6841 16.7891L92.6815 16.7878ZM103.574 16.8003V16.4077C103.574 15.2529 104.017 14.7379 105.009 14.7379C105.602 14.7379 106.078 14.8555 106.611 15.0333C106.676 15.0539 106.745 15.0436 106.797 15.0043C106.852 14.965 106.883 14.902 106.883 14.8353V12.4414C106.883 12.3499 106.826 12.269 106.736 12.2419C106.174 12.0745 105.455 11.9027 104.375 11.9027C101.753 11.9027 100.364 13.3803 100.364 16.1743V16.7755H98.999C98.8853 16.7755 98.7908 16.869 98.7908 16.9835V19.4376C98.7908 19.5521 98.8853 19.6458 98.999 19.6458H100.364V29.3894C100.364 29.5057 100.459 29.5978 100.572 29.5978H103.412C103.528 29.5978 103.62 29.5057 103.62 29.3894V19.6464H106.273L110.336 29.3894C109.876 30.4119 109.422 30.616 108.803 30.616C108.303 30.616 107.774 30.4668 107.236 30.1705C107.186 30.1442 107.124 30.1398 107.072 30.1552C107.017 30.175 106.971 30.2144 106.948 30.2671L105.986 32.3801C105.94 32.4811 105.979 32.5974 106.075 32.6501C107.081 33.1942 107.987 33.4268 109.108 33.4268C111.205 33.4268 112.366 32.4481 113.387 29.8194L118.315 17.0847C118.342 17.0206 118.332 16.9482 118.293 16.8913C118.256 16.835 118.192 16.8009 118.124 16.8009H115.166C115.076 16.8009 114.998 16.8574 114.969 16.9405L111.939 25.5933L108.621 16.9348C108.59 16.8543 108.513 16.8009 108.428 16.8009L103.574 16.8003ZM97.2586 16.7878H94.4175C94.3029 16.7878 94.2093 16.8813 94.2093 16.9961V29.3894C94.2093 29.5057 94.3029 29.5978 94.4175 29.5978H97.2586C97.3733 29.5978 97.4678 29.5057 97.4678 29.3894V16.9969C97.4678 16.8821 97.375 16.7887 97.2586 16.7887V16.7878ZM95.8543 11.1444C94.729 11.1444 93.8164 12.0555 93.8164 13.1809C93.8164 14.3069 94.729 15.2191 95.8543 15.2191C96.9804 15.2191 97.8913 14.3069 97.8913 13.1809C97.8913 12.0556 96.9778 11.1444 95.8543 11.1444ZM120.742 20.7727C119.618 20.7727 118.743 19.8698 118.743 18.7734C118.743 17.6769 119.63 16.7637 120.753 16.7637C121.876 16.7637 122.752 17.6664 122.752 18.762C122.752 19.8584 121.865 20.7727 120.742 20.7727ZM120.753 16.9625C119.728 16.9625 118.953 17.7765 118.953 18.7734C118.953 19.7698 119.723 20.5729 120.742 20.5729C121.767 20.5729 122.541 19.7595 122.541 18.762C122.541 17.7655 121.771 16.9625 120.753 16.9625ZM121.196 18.9675L121.762 19.7592H121.284L120.775 19.033H120.339V19.7592H119.939V17.6606H120.873C121.363 17.6606 121.683 17.9102 121.683 18.3301C121.685 18.6742 121.486 18.8844 121.199 18.9675H121.196ZM120.858 18.0208H120.339V18.6845H120.858C121.117 18.6845 121.273 18.5574 121.273 18.3523C121.273 18.1364 121.117 18.0208 120.858 18.0208Z" fill="#AB9DD4"/>
</g>
</g>
<defs>
<clipPath id="clip0_4496_10022">
<rect width="122.5" height="42" fill="white" transform="translate(0.15625)"/>
</clipPath>
</defs>
</svg>
