<svg width="116" height="42" viewBox="0 0 116 42" fill="none" xmlns="http://www.w3.org/2000/svg">
<g clip-path="url(#clip0_4496_10045)">
<mask id="mask0_4496_10045" style="mask-type:luminance" maskUnits="userSpaceOnUse" x="0" y="0" width="116" height="42">
<path d="M115.844 0H0.34375V42H115.844V0Z" fill="white"/>
</mask>
<g mask="url(#mask0_4496_10045)">
<path d="M19.5025 33.226L11.9745 33.0883C9.53698 33.0404 7.09348 33.1362 4.70391 32.6391C1.06864 31.8965 0.811121 28.2553 0.54162 25.2009C0.170307 20.9068 0.314041 16.5349 1.01474 12.2768C1.41001 9.88726 2.96713 8.46189 5.37467 8.30618C13.5016 7.74323 21.6824 7.8091 29.7914 8.07261C30.6478 8.09657 31.5102 8.22833 32.3547 8.37805C36.5229 9.10869 36.6248 13.235 36.8943 16.7086C37.1638 20.2181 37.05 23.7456 36.5349 27.2312C36.1217 30.1178 35.3312 32.5373 31.9953 32.7709C27.8151 33.0763 23.7306 33.3219 19.5384 33.244C19.5384 33.2261 19.5144 33.226 19.5025 33.226ZM15.0767 25.9195C18.2269 24.1109 21.3171 22.3322 24.4493 20.5355C21.2931 18.7269 18.2089 16.9482 15.0767 15.1515V25.9195Z" fill="#AB9DD4"/>
<path d="M97.4714 29.9439C97.3279 30.5307 97.2019 30.9919 97.0767 31.483H94.1297V8.75513H97.5676V17.1396C97.747 16.912 97.8371 16.8162 97.915 16.7144C98.5021 15.9059 99.2625 15.3788 100.244 15.1752C101.808 14.8698 103.143 15.5585 103.616 17.0617C103.922 17.996 104.12 18.9961 104.143 19.9723C104.191 22.4817 104.155 24.9851 104.065 27.4944C104.029 28.261 103.796 29.0455 103.503 29.7641C102.538 32.1357 99.3885 32.4951 97.8249 30.441C97.7295 30.3151 97.6394 30.1774 97.4714 29.9439ZM97.6394 27.8477C97.6394 28.5244 97.999 28.9377 98.6754 29.0934C99.3404 29.2491 99.8794 28.9916 100.149 28.3747C100.263 28.1172 100.376 27.8477 100.382 27.5782C100.448 25.039 100.508 22.4996 100.526 19.9543C100.526 19.4812 100.412 18.9901 100.269 18.529C99.9992 17.6965 99.2564 17.451 98.5257 17.9361C97.9745 18.3074 97.6394 18.8344 97.6394 19.5351V27.8477ZM88.297 15.4986H91.8959V31.495H89.0871C88.9856 30.8901 88.8832 30.2673 88.7642 29.5366C88.5726 29.818 88.4589 29.9978 88.339 30.1774C87.4044 31.5249 86.0809 31.986 84.5178 31.7405C83.1822 31.5249 82.3797 30.4949 82.2 28.8059C82.1461 28.3029 82.1222 27.7938 82.1222 27.2908C82.1102 23.5477 82.1222 19.7926 82.1222 16.0496V15.4866H85.7634V16.1394C85.7634 19.7567 85.7514 23.3681 85.7754 26.9853C85.7754 27.5003 85.8293 28.0334 85.9192 28.5484C86.0209 29.0754 86.4043 29.2671 86.9193 29.2312C87.7518 29.1653 88.3267 28.5484 88.3267 27.722V16.2053C88.297 15.9717 88.297 15.7561 88.297 15.4986ZM63.5146 15.4866H67.132V16.1634C67.132 19.7627 67.12 23.3561 67.144 26.9434C67.144 27.4584 67.1918 27.9915 67.2996 28.4945C67.4373 29.0874 67.7847 29.279 68.3776 29.2012C69.1981 29.0874 69.6952 28.5185 69.7011 27.686V15.5106H73.3005V31.495H70.5037C70.4018 30.9021 70.3001 30.2912 70.1683 29.5186C69.9887 29.7881 69.8868 29.9439 69.7851 30.1056C68.8507 31.477 67.5392 31.9801 65.9401 31.7346C64.6585 31.5428 63.874 30.5966 63.6344 29.0455C63.5685 28.5604 63.5207 28.0813 63.5207 27.5962C63.5087 23.7094 63.5087 19.8046 63.5087 15.9178L63.5146 15.4866ZM61.6581 24.0268C61.6461 24.5658 61.6102 25.1048 61.5803 25.6438C61.4425 27.2609 61.3766 29.5546 60.071 30.7343C59.2386 31.477 58.1845 31.7465 57.0945 31.7824C56.6094 31.7944 56.1183 31.7944 55.6332 31.7285C53.3395 31.3811 52.2734 30.369 51.8902 27.8477C51.453 24.9371 51.4171 21.9786 51.9381 19.068C52.4771 16.0556 54.3336 14.9895 57.2203 15.1872C59.9153 15.3788 61.1191 17.1456 61.4365 19.6609C61.6102 21.1042 61.694 22.5655 61.6581 24.0268ZM57.9929 23.4759C57.9929 22.4517 58.0168 21.4216 57.9809 20.3975C57.9569 19.8046 57.8791 19.2057 57.7533 18.6188C57.6096 17.9421 57.1784 17.6187 56.6394 17.6307C56.1124 17.6426 55.741 17.966 55.5494 18.5949C55.4835 18.8284 55.4116 19.068 55.4116 19.3016C55.4116 20.9066 55.3997 22.5176 55.3877 24.1227C55.3757 25.6199 55.1841 27.1889 55.6572 28.6203C55.8009 29.0575 56.1722 29.2971 56.6573 29.2971C57.1305 29.2971 57.4419 29.0634 57.6156 28.6442C57.7533 28.3208 57.8731 27.9675 57.8731 27.6201C57.915 26.2427 57.9929 24.8592 57.9929 23.4759ZM46.608 20.4634C46.9253 18.9123 47.2248 17.3971 47.5542 15.8759C47.9675 13.9415 48.4286 12.0071 48.8358 10.0667C48.9377 9.59355 49.1293 9.47971 49.5784 9.4917C50.5427 9.52766 51.5249 9.50369 52.5549 9.50369C52.2195 10.7374 51.8902 11.9113 51.5668 13.0671C50.5427 16.6964 49.5186 20.3377 48.5065 23.9789C48.4286 24.2604 48.3926 24.5658 48.3926 24.8653C48.3806 26.8535 48.3926 28.8359 48.3926 30.8242V31.471H44.8771C44.8651 31.2914 44.8413 31.1116 44.8413 30.932C44.8413 29.806 44.7514 28.6742 44.8532 27.5603C45.1108 24.8832 44.2603 22.4218 43.5715 19.9304C42.6613 16.6365 41.7389 13.3306 40.8287 10.0367C40.7807 9.88099 40.7628 9.71334 40.7148 9.52171H44.3023C45.0569 13.1569 45.8174 16.7922 46.608 20.4634ZM115.39 24.6377H109.329C109.396 25.8534 109.419 27.0093 109.545 28.1532C109.636 28.9497 110.072 29.291 110.761 29.2971C111.48 29.309 111.899 28.9497 112.066 28.1591C112.121 27.9016 112.156 27.6441 112.18 27.3806C112.205 27.147 112.217 26.8955 112.234 26.5602C113.258 26.614 114.258 26.6739 115.247 26.7158C115.822 28.4227 114.786 30.6146 113.043 31.2914C111.672 31.8304 110.264 31.8304 108.863 31.4171C107.827 31.1116 107.054 30.4529 106.707 29.4407C106.383 28.4945 106.078 27.5064 106.012 26.5182C105.832 24.0807 105.766 21.6193 106.137 19.1758C106.204 18.7685 106.318 18.3793 106.443 17.984C106.946 16.355 108.042 15.3549 109.737 15.1872C110.659 15.0973 111.611 15.1333 112.522 15.289C113.995 15.5465 114.78 16.6066 115.121 17.996C115.277 18.6488 115.39 19.3195 115.414 19.9843C115.42 21.5115 115.39 23.0266 115.39 24.6377ZM111.947 22.5356C111.947 21.3318 111.959 20.1999 111.935 19.062C111.935 18.7925 111.833 18.511 111.731 18.2535C111.527 17.7504 111.102 17.6127 110.594 17.6127C110.084 17.6127 109.761 17.8702 109.636 18.3314C109.251 19.7148 109.377 21.1282 109.39 22.5476C110.306 22.5356 111.139 22.5356 111.947 22.5356Z" fill="#AB9DD4"/>
<path d="M76.08 12.4382H72.5166V9.55151H83.1529V12.4202H79.6135V31.471H76.086L76.08 12.4382Z" fill="#AB9DD4"/>
</g>
</g>
<defs>
<clipPath id="clip0_4496_10045">
<rect width="115.5" height="42" fill="white" transform="translate(0.34375)"/>
</clipPath>
</defs>
</svg>
