<svg width="1353" height="766" viewBox="0 0 1353 766" fill="none" xmlns="http://www.w3.org/2000/svg">
<rect width="1366" height="768" fill="white"/>
<g filter="url(#filter0_f_528_2019)">
<path d="M45.15 276.6C46.1771 276.6 46.9989 275.765 46.9989 274.722C46.9989 271.383 49.6695 268.878 52.751 268.878C53.7782 268.878 54.6 268.044 54.6 267C54.6 265.957 53.7782 265.122 52.751 265.122C49.4641 265.122 46.9989 262.409 46.9989 259.278C46.9989 258.235 46.1771 257.4 45.15 257.4C44.1228 257.4 43.301 258.235 43.301 259.278C43.301 262.617 40.6304 265.122 37.5489 265.122C36.5217 265.122 35.7 265.957 35.7 267C35.7 268.044 36.5217 268.878 37.5489 268.878C40.8358 268.878 43.301 271.591 43.301 274.722C43.301 275.765 44.1228 276.6 45.15 276.6Z" fill="#ADA6BB"/>
<path d="M289.15 706.6C290.177 706.6 290.999 705.765 290.999 704.722C290.999 701.383 293.67 698.878 296.751 698.878C297.778 698.878 298.6 698.044 298.6 697C298.6 695.957 297.778 695.122 296.751 695.122C293.464 695.122 290.999 692.409 290.999 689.278C290.999 688.235 290.177 687.4 289.15 687.4C288.123 687.4 287.301 688.235 287.301 689.278C287.301 692.617 284.63 695.122 281.549 695.122C280.522 695.122 279.7 695.957 279.7 697C279.7 698.044 280.522 698.878 281.549 698.878C284.836 698.878 287.301 701.591 287.301 704.722C287.301 705.765 288.123 706.6 289.15 706.6Z" fill="#ADA6BB"/>
<path d="M1339.15 91.6C1340.18 91.6 1341 90.7652 1341 89.7218C1341 86.3826 1343.67 83.8783 1346.75 83.8783C1347.78 83.8783 1348.6 83.0435 1348.6 82C1348.6 80.9566 1347.78 80.1218 1346.75 80.1218C1343.46 80.1218 1341 77.4087 1341 74.2783C1341 73.2348 1340.18 72.4 1339.15 72.4C1338.12 72.4 1337.3 73.2348 1337.3 74.2783C1337.3 77.6174 1334.63 80.1218 1331.55 80.1218C1330.52 80.1218 1329.7 80.9566 1329.7 82C1329.7 83.0435 1330.52 83.8783 1331.55 83.8783C1334.84 83.8783 1337.3 86.5913 1337.3 89.7218C1337.3 90.7652 1338.12 91.6 1339.15 91.6Z" fill="#ADA6BB"/>
<path d="M854.15 154.6C855.177 154.6 855.999 153.765 855.999 152.722C855.999 149.383 858.67 146.878 861.751 146.878C862.778 146.878 863.6 146.044 863.6 145C863.6 143.957 862.778 143.122 861.751 143.122C858.464 143.122 855.999 140.409 855.999 137.278C855.999 136.235 855.177 135.4 854.15 135.4C853.123 135.4 852.301 136.235 852.301 137.278C852.301 140.617 849.63 143.122 846.549 143.122C845.522 143.122 844.7 143.957 844.7 145C844.7 146.044 845.522 146.878 846.549 146.878C849.836 146.878 852.301 149.591 852.301 152.722C852.301 153.765 853.123 154.6 854.15 154.6Z" fill="#ADA6BB"/>
<path d="M1246.15 302.6C1247.18 302.6 1248 301.765 1248 300.722C1248 297.383 1250.67 294.878 1253.75 294.878C1254.78 294.878 1255.6 294.044 1255.6 293C1255.6 291.957 1254.78 291.122 1253.75 291.122C1250.46 291.122 1248 288.409 1248 285.278C1248 284.235 1247.18 283.4 1246.15 283.4C1245.12 283.4 1244.3 284.235 1244.3 285.278C1244.3 288.617 1241.63 291.122 1238.55 291.122C1237.52 291.122 1236.7 291.957 1236.7 293C1236.7 294.044 1237.52 294.878 1238.55 294.878C1241.84 294.878 1244.3 297.591 1244.3 300.722C1244.3 301.765 1245.12 302.6 1246.15 302.6Z" fill="#ADA6BB"/>
<path d="M385.15 609.6C386.177 609.6 386.999 608.765 386.999 607.722C386.999 604.383 389.67 601.878 392.751 601.878C393.778 601.878 394.6 601.044 394.6 600C394.6 598.957 393.778 598.122 392.751 598.122C389.464 598.122 386.999 595.409 386.999 592.278C386.999 591.235 386.177 590.4 385.15 590.4C384.123 590.4 383.301 591.235 383.301 592.278C383.301 595.617 380.63 598.122 377.549 598.122C376.522 598.122 375.7 598.957 375.7 600C375.7 601.044 376.522 601.878 377.549 601.878C380.836 601.878 383.301 604.591 383.301 607.722C383.301 608.765 384.123 609.6 385.15 609.6Z" fill="#DE3D64"/>
<path d="M721.15 57.6C722.177 57.6 722.999 56.7652 722.999 55.7218C722.999 52.3826 725.67 49.8783 728.751 49.8783C729.778 49.8783 730.6 49.0435 730.6 48C730.6 46.9566 729.778 46.1218 728.751 46.1218C725.464 46.1218 722.999 43.4087 722.999 40.2783C722.999 39.2348 722.177 38.4 721.15 38.4C720.123 38.4 719.301 39.2348 719.301 40.2783C719.301 43.6174 716.63 46.1218 713.549 46.1218C712.522 46.1218 711.7 46.9566 711.7 48C711.7 49.0435 712.522 49.8783 713.549 49.8783C716.836 49.8783 719.301 52.5913 719.301 55.7218C719.301 56.7652 720.123 57.6 721.15 57.6Z" fill="#ADA6BB"/>
<path d="M28.15 46.6C29.1771 46.6 29.9989 45.7652 29.9989 44.7218C29.9989 41.3826 32.6695 38.8783 35.751 38.8783C36.7782 38.8783 37.6 38.0435 37.6 37C37.6 35.9566 36.7782 35.1218 35.751 35.1218C32.4641 35.1218 29.9989 32.4087 29.9989 29.2783C29.9989 28.2348 29.1771 27.4 28.15 27.4C27.1228 27.4 26.301 28.2348 26.301 29.2783C26.301 32.6174 23.6304 35.1218 20.5489 35.1218C19.5217 35.1218 18.7 35.9566 18.7 37C18.7 38.0435 19.5217 38.8783 20.5489 38.8783C23.8358 38.8783 26.301 41.5913 26.301 44.7218C26.301 45.7652 27.1228 46.6 28.15 46.6Z" fill="#ADA6BB"/>
<path d="M43.15 733.6C44.1771 733.6 44.9989 732.765 44.9989 731.722C44.9989 728.383 47.6695 725.878 50.751 725.878C51.7782 725.878 52.6 725.044 52.6 724C52.6 722.957 51.7782 722.122 50.751 722.122C47.4641 722.122 44.9989 719.409 44.9989 716.278C44.9989 715.235 44.1771 714.4 43.15 714.4C42.1228 714.4 41.301 715.235 41.301 716.278C41.301 719.617 38.6304 722.122 35.5489 722.122C34.5217 722.122 33.7 722.957 33.7 724C33.7 725.044 34.5217 725.878 35.5489 725.878C38.8358 725.878 41.301 728.591 41.301 731.722C41.301 732.765 42.1228 733.6 43.15 733.6Z" fill="#ADA6BB"/>
<path d="M772.15 443.6C773.177 443.6 773.999 442.765 773.999 441.722C773.999 438.383 776.67 435.878 779.751 435.878C780.778 435.878 781.6 435.044 781.6 434C781.6 432.957 780.778 432.122 779.751 432.122C776.464 432.122 773.999 429.409 773.999 426.278C773.999 425.235 773.177 424.4 772.15 424.4C771.123 424.4 770.301 425.235 770.301 426.278C770.301 429.617 767.63 432.122 764.549 432.122C763.522 432.122 762.7 432.957 762.7 434C762.7 435.044 763.522 435.878 764.549 435.878C767.836 435.878 770.301 438.591 770.301 441.722C770.301 442.765 771.123 443.6 772.15 443.6Z" fill="#ADA6BB"/>
<path d="M809.1 275.4C809.785 275.4 810.333 274.843 810.333 274.148C810.333 271.922 812.113 270.252 814.167 270.252C814.852 270.252 815.4 269.696 815.4 269C815.4 268.304 814.852 267.748 814.167 267.748C811.976 267.748 810.333 265.939 810.333 263.852C810.333 263.156 809.785 262.6 809.1 262.6C808.415 262.6 807.867 263.156 807.867 263.852C807.867 266.078 806.087 267.748 804.033 267.748C803.348 267.748 802.8 268.304 802.8 269C802.8 269.696 803.348 270.252 804.033 270.252C806.224 270.252 807.867 272.061 807.867 274.148C807.867 274.843 808.415 275.4 809.1 275.4Z" fill="#ADA6BB"/>
<path d="M1064.15 518.6C1065.18 518.6 1066 517.765 1066 516.722C1066 513.383 1068.67 510.878 1071.75 510.878C1072.78 510.878 1073.6 510.044 1073.6 509C1073.6 507.957 1072.78 507.122 1071.75 507.122C1068.46 507.122 1066 504.409 1066 501.278C1066 500.235 1065.18 499.4 1064.15 499.4C1063.12 499.4 1062.3 500.235 1062.3 501.278C1062.3 504.617 1059.63 507.122 1056.55 507.122C1055.52 507.122 1054.7 507.957 1054.7 509C1054.7 510.044 1055.52 510.878 1056.55 510.878C1059.84 510.878 1062.3 513.591 1062.3 516.722C1062.3 517.765 1063.12 518.6 1064.15 518.6Z" fill="#ADA6BB"/>
<path d="M1062.15 301.6C1063.18 301.6 1064 300.765 1064 299.722C1064 296.383 1066.67 293.878 1069.75 293.878C1070.78 293.878 1071.6 293.044 1071.6 292C1071.6 290.957 1070.78 290.122 1069.75 290.122C1066.46 290.122 1064 287.409 1064 284.278C1064 283.235 1063.18 282.4 1062.15 282.4C1061.12 282.4 1060.3 283.235 1060.3 284.278C1060.3 287.617 1057.63 290.122 1054.55 290.122C1053.52 290.122 1052.7 290.957 1052.7 292C1052.7 293.044 1053.52 293.878 1054.55 293.878C1057.84 293.878 1060.3 296.591 1060.3 299.722C1060.3 300.765 1061.12 301.6 1062.15 301.6Z" fill="#ADA6BB"/>
<path d="M112.15 639.6C113.177 639.6 113.999 638.765 113.999 637.722C113.999 634.383 116.67 631.878 119.751 631.878C120.778 631.878 121.6 631.044 121.6 630C121.6 628.957 120.778 628.122 119.751 628.122C116.464 628.122 113.999 625.409 113.999 622.278C113.999 621.235 113.177 620.4 112.15 620.4C111.123 620.4 110.301 621.235 110.301 622.278C110.301 625.617 107.63 628.122 104.549 628.122C103.522 628.122 102.7 628.957 102.7 630C102.7 631.044 103.522 631.878 104.549 631.878C107.836 631.878 110.301 634.591 110.301 637.722C110.301 638.765 111.123 639.6 112.15 639.6Z" fill="#ADA6BB"/>
<path d="M595.15 523.6C596.177 523.6 596.999 522.765 596.999 521.722C596.999 518.383 599.67 515.878 602.751 515.878C603.778 515.878 604.6 515.044 604.6 514C604.6 512.957 603.778 512.122 602.751 512.122C599.464 512.122 596.999 509.409 596.999 506.278C596.999 505.235 596.177 504.4 595.15 504.4C594.123 504.4 593.301 505.235 593.301 506.278C593.301 509.617 590.63 512.122 587.549 512.122C586.522 512.122 585.7 512.957 585.7 514C585.7 515.044 586.522 515.878 587.549 515.878C590.836 515.878 593.301 518.591 593.301 521.722C593.301 522.765 594.123 523.6 595.15 523.6Z" fill="#ADA6BB"/>
<path d="M268.05 17.2C268.392 17.2 268.666 16.9218 268.666 16.574C268.666 15.4609 269.556 14.6261 270.584 14.6261C270.926 14.6261 271.2 14.3479 271.2 14C271.2 13.6522 270.926 13.374 270.584 13.374C269.488 13.374 268.666 12.4696 268.666 11.4261C268.666 11.0783 268.392 10.8 268.05 10.8C267.708 10.8 267.434 11.0783 267.434 11.4261C267.434 12.5392 266.543 13.374 265.516 13.374C265.174 13.374 264.9 13.6522 264.9 14C264.9 14.3479 265.174 14.6261 265.516 14.6261C266.612 14.6261 267.434 15.5305 267.434 16.574C267.434 16.9218 267.708 17.2 268.05 17.2Z" fill="#ADA6BB"/>
<path d="M603.1 123.4C603.785 123.4 604.333 122.843 604.333 122.148C604.333 119.922 606.113 118.252 608.167 118.252C608.852 118.252 609.4 117.696 609.4 117C609.4 116.304 608.852 115.748 608.167 115.748C605.976 115.748 604.333 113.939 604.333 111.852C604.333 111.156 603.785 110.6 603.1 110.6C602.415 110.6 601.867 111.156 601.867 111.852C601.867 114.078 600.087 115.748 598.033 115.748C597.348 115.748 596.8 116.304 596.8 117C596.8 117.696 597.348 118.252 598.033 118.252C600.224 118.252 601.867 120.061 601.867 122.148C601.867 122.843 602.415 123.4 603.1 123.4Z" fill="#9FDF6C"/>
<path d="M675.05 241.2C675.392 241.2 675.666 240.922 675.666 240.574C675.666 239.461 676.556 238.626 677.584 238.626C677.926 238.626 678.2 238.348 678.2 238C678.2 237.652 677.926 237.374 677.584 237.374C676.488 237.374 675.666 236.47 675.666 235.426C675.666 235.078 675.392 234.8 675.05 234.8C674.708 234.8 674.434 235.078 674.434 235.426C674.434 236.539 673.543 237.374 672.516 237.374C672.174 237.374 671.9 237.652 671.9 238C671.9 238.348 672.174 238.626 672.516 238.626C673.612 238.626 674.434 239.53 674.434 240.574C674.434 240.922 674.708 241.2 675.05 241.2Z" fill="#ADA6BB"/>
<path d="M456.05 85.2C456.392 85.2 456.666 84.9218 456.666 84.574C456.666 83.4609 457.556 82.6261 458.584 82.6261C458.926 82.6261 459.2 82.3479 459.2 82C459.2 81.6522 458.926 81.374 458.584 81.374C457.488 81.374 456.666 80.4696 456.666 79.4261C456.666 79.0783 456.392 78.8 456.05 78.8C455.708 78.8 455.434 79.0783 455.434 79.4261C455.434 80.5392 454.543 81.374 453.516 81.374C453.174 81.374 452.9 81.6522 452.9 82C452.9 82.3479 453.174 82.6261 453.516 82.6261C454.612 82.6261 455.434 83.5305 455.434 84.574C455.434 84.9218 455.708 85.2 456.05 85.2Z" fill="#ADA6BB"/>
<path d="M583.05 374.2C583.392 374.2 583.666 373.922 583.666 373.574C583.666 372.461 584.556 371.626 585.584 371.626C585.926 371.626 586.2 371.348 586.2 371C586.2 370.652 585.926 370.374 585.584 370.374C584.488 370.374 583.666 369.47 583.666 368.426C583.666 368.078 583.392 367.8 583.05 367.8C582.708 367.8 582.434 368.078 582.434 368.426C582.434 369.539 581.543 370.374 580.516 370.374C580.174 370.374 579.9 370.652 579.9 371C579.9 371.348 580.174 371.626 580.516 371.626C581.612 371.626 582.434 372.53 582.434 373.574C582.434 373.922 582.708 374.2 583.05 374.2Z" fill="#ADA6BB"/>
<path d="M966.05 285.2C966.392 285.2 966.666 284.922 966.666 284.574C966.666 283.461 967.556 282.626 968.584 282.626C968.926 282.626 969.2 282.348 969.2 282C969.2 281.652 968.926 281.374 968.584 281.374C967.488 281.374 966.666 280.47 966.666 279.426C966.666 279.078 966.392 278.8 966.05 278.8C965.708 278.8 965.434 279.078 965.434 279.426C965.434 280.539 964.543 281.374 963.516 281.374C963.174 281.374 962.9 281.652 962.9 282C962.9 282.348 963.174 282.626 963.516 282.626C964.612 282.626 965.434 283.53 965.434 284.574C965.434 284.922 965.708 285.2 966.05 285.2Z" fill="#ADA6BB"/>
<path d="M984.05 48.2C984.392 48.2 984.666 47.9218 984.666 47.574C984.666 46.4609 985.556 45.6261 986.584 45.6261C986.926 45.6261 987.2 45.3479 987.2 45C987.2 44.6522 986.926 44.374 986.584 44.374C985.488 44.374 984.666 43.4696 984.666 42.4261C984.666 42.0783 984.392 41.8 984.05 41.8C983.708 41.8 983.434 42.0783 983.434 42.4261C983.434 43.5392 982.543 44.374 981.516 44.374C981.174 44.374 980.9 44.6522 980.9 45C980.9 45.3479 981.174 45.6261 981.516 45.6261C982.612 45.6261 983.434 46.5305 983.434 47.574C983.434 47.9218 983.708 48.2 984.05 48.2Z" fill="#FDC500"/>
<path d="M80.0499 178.2C80.3923 178.2 80.6662 177.922 80.6662 177.574C80.6662 176.461 81.5564 175.626 82.5836 175.626C82.926 175.626 83.1999 175.348 83.1999 175C83.1999 174.652 82.926 174.374 82.5836 174.374C81.4879 174.374 80.6662 173.47 80.6662 172.426C80.6662 172.078 80.3923 171.8 80.0499 171.8C79.7075 171.8 79.4336 172.078 79.4336 172.426C79.4336 173.539 78.5434 174.374 77.5162 174.374C77.1738 174.374 76.8999 174.652 76.8999 175C76.8999 175.348 77.1738 175.626 77.5162 175.626C78.6119 175.626 79.4336 176.53 79.4336 177.574C79.4336 177.922 79.7075 178.2 80.0499 178.2Z" fill="#ADA6BB"/>
<path d="M281.05 417.2C281.392 417.2 281.666 416.922 281.666 416.574C281.666 415.461 282.556 414.626 283.584 414.626C283.926 414.626 284.2 414.348 284.2 414C284.2 413.652 283.926 413.374 283.584 413.374C282.488 413.374 281.666 412.47 281.666 411.426C281.666 411.078 281.392 410.8 281.05 410.8C280.708 410.8 280.434 411.078 280.434 411.426C280.434 412.539 279.543 413.374 278.516 413.374C278.174 413.374 277.9 413.652 277.9 414C277.9 414.348 278.174 414.626 278.516 414.626C279.612 414.626 280.434 415.53 280.434 416.574C280.434 416.922 280.708 417.2 281.05 417.2Z" fill="#ADA6BB"/>
<path d="M658.05 335.2C658.392 335.2 658.666 334.922 658.666 334.574C658.666 333.461 659.556 332.626 660.584 332.626C660.926 332.626 661.2 332.348 661.2 332C661.2 331.652 660.926 331.374 660.584 331.374C659.488 331.374 658.666 330.47 658.666 329.426C658.666 329.078 658.392 328.8 658.05 328.8C657.708 328.8 657.434 329.078 657.434 329.426C657.434 330.539 656.543 331.374 655.516 331.374C655.174 331.374 654.9 331.652 654.9 332C654.9 332.348 655.174 332.626 655.516 332.626C656.612 332.626 657.434 333.53 657.434 334.574C657.434 334.922 657.708 335.2 658.05 335.2Z" fill="#ADA6BB"/>
<path d="M400.05 290.2C400.392 290.2 400.666 289.922 400.666 289.574C400.666 288.461 401.556 287.626 402.584 287.626C402.926 287.626 403.2 287.348 403.2 287C403.2 286.652 402.926 286.374 402.584 286.374C401.488 286.374 400.666 285.47 400.666 284.426C400.666 284.078 400.392 283.8 400.05 283.8C399.708 283.8 399.434 284.078 399.434 284.426C399.434 285.539 398.543 286.374 397.516 286.374C397.174 286.374 396.9 286.652 396.9 287C396.9 287.348 397.174 287.626 397.516 287.626C398.612 287.626 399.434 288.53 399.434 289.574C399.434 289.922 399.708 290.2 400.05 290.2Z" fill="#ADA6BB"/>
<path d="M117.05 484.2C117.392 484.2 117.666 483.922 117.666 483.574C117.666 482.461 118.556 481.626 119.584 481.626C119.926 481.626 120.2 481.348 120.2 481C120.2 480.652 119.926 480.374 119.584 480.374C118.488 480.374 117.666 479.47 117.666 478.426C117.666 478.078 117.392 477.8 117.05 477.8C116.708 477.8 116.434 478.078 116.434 478.426C116.434 479.539 115.543 480.374 114.516 480.374C114.174 480.374 113.9 480.652 113.9 481C113.9 481.348 114.174 481.626 114.516 481.626C115.612 481.626 116.434 482.53 116.434 483.574C116.434 483.922 116.708 484.2 117.05 484.2Z" fill="#ADA6BB"/>
<path d="M377.05 433.2C377.392 433.2 377.666 432.922 377.666 432.574C377.666 431.461 378.556 430.626 379.584 430.626C379.926 430.626 380.2 430.348 380.2 430C380.2 429.652 379.926 429.374 379.584 429.374C378.488 429.374 377.666 428.47 377.666 427.426C377.666 427.078 377.392 426.8 377.05 426.8C376.708 426.8 376.434 427.078 376.434 427.426C376.434 428.539 375.543 429.374 374.516 429.374C374.174 429.374 373.9 429.652 373.9 430C373.9 430.348 374.174 430.626 374.516 430.626C375.612 430.626 376.434 431.53 376.434 432.574C376.434 432.922 376.708 433.2 377.05 433.2Z" fill="#ADA6BB"/>
<path d="M448.05 712.2C448.392 712.2 448.666 711.922 448.666 711.574C448.666 710.461 449.556 709.626 450.584 709.626C450.926 709.626 451.2 709.348 451.2 709C451.2 708.652 450.926 708.374 450.584 708.374C449.488 708.374 448.666 707.47 448.666 706.426C448.666 706.078 448.392 705.8 448.05 705.8C447.708 705.8 447.434 706.078 447.434 706.426C447.434 707.539 446.543 708.374 445.516 708.374C445.174 708.374 444.9 708.652 444.9 709C444.9 709.348 445.174 709.626 445.516 709.626C446.612 709.626 447.434 710.53 447.434 711.574C447.434 711.922 447.708 712.2 448.05 712.2Z" fill="#ADA6BB"/>
<path d="M1344.05 756.2C1344.39 756.2 1344.67 755.922 1344.67 755.574C1344.67 754.461 1345.56 753.626 1346.58 753.626C1346.93 753.626 1347.2 753.348 1347.2 753C1347.2 752.652 1346.93 752.374 1346.58 752.374C1345.49 752.374 1344.67 751.47 1344.67 750.426C1344.67 750.078 1344.39 749.8 1344.05 749.8C1343.71 749.8 1343.43 750.078 1343.43 750.426C1343.43 751.539 1342.54 752.374 1341.52 752.374C1341.17 752.374 1340.9 752.652 1340.9 753C1340.9 753.348 1341.17 753.626 1341.52 753.626C1342.61 753.626 1343.43 754.53 1343.43 755.574C1343.43 755.922 1343.71 756.2 1344.05 756.2Z" fill="#ADA6BB"/>
<path d="M1344.05 696.2C1344.39 696.2 1344.67 695.922 1344.67 695.574C1344.67 694.461 1345.56 693.626 1346.58 693.626C1346.93 693.626 1347.2 693.348 1347.2 693C1347.2 692.652 1346.93 692.374 1346.58 692.374C1345.49 692.374 1344.67 691.47 1344.67 690.426C1344.67 690.078 1344.39 689.8 1344.05 689.8C1343.71 689.8 1343.43 690.078 1343.43 690.426C1343.43 691.539 1342.54 692.374 1341.52 692.374C1341.17 692.374 1340.9 692.652 1340.9 693C1340.9 693.348 1341.17 693.626 1341.52 693.626C1342.61 693.626 1343.43 694.53 1343.43 695.574C1343.43 695.922 1343.71 696.2 1344.05 696.2Z" fill="#ADA6BB"/>
<path d="M1050.05 754.2C1050.39 754.2 1050.67 753.922 1050.67 753.574C1050.67 752.461 1051.56 751.626 1052.58 751.626C1052.93 751.626 1053.2 751.348 1053.2 751C1053.2 750.652 1052.93 750.374 1052.58 750.374C1051.49 750.374 1050.67 749.47 1050.67 748.426C1050.67 748.078 1050.39 747.8 1050.05 747.8C1049.71 747.8 1049.43 748.078 1049.43 748.426C1049.43 749.539 1048.54 750.374 1047.52 750.374C1047.17 750.374 1046.9 750.652 1046.9 751C1046.9 751.348 1047.17 751.626 1047.52 751.626C1048.61 751.626 1049.43 752.53 1049.43 753.574C1049.43 753.922 1049.71 754.2 1050.05 754.2Z" fill="#ADA6BB"/>
<path d="M1238.05 17.2C1238.39 17.2 1238.67 16.9218 1238.67 16.574C1238.67 15.4609 1239.56 14.6261 1240.58 14.6261C1240.93 14.6261 1241.2 14.3479 1241.2 14C1241.2 13.6522 1240.93 13.374 1240.58 13.374C1239.49 13.374 1238.67 12.4696 1238.67 11.4261C1238.67 11.0783 1238.39 10.8 1238.05 10.8C1237.71 10.8 1237.43 11.0783 1237.43 11.4261C1237.43 12.5392 1236.54 13.374 1235.52 13.374C1235.17 13.374 1234.9 13.6522 1234.9 14C1234.9 14.3479 1235.17 14.6261 1235.52 14.6261C1236.61 14.6261 1237.43 15.5305 1237.43 16.574C1237.43 16.9218 1237.71 17.2 1238.05 17.2Z" fill="#ADA6BB"/>
<path d="M1346.05 166.2C1346.39 166.2 1346.67 165.922 1346.67 165.574C1346.67 164.461 1347.56 163.626 1348.58 163.626C1348.93 163.626 1349.2 163.348 1349.2 163C1349.2 162.652 1348.93 162.374 1348.58 162.374C1347.49 162.374 1346.67 161.47 1346.67 160.426C1346.67 160.078 1346.39 159.8 1346.05 159.8C1345.71 159.8 1345.43 160.078 1345.43 160.426C1345.43 161.539 1344.54 162.374 1343.52 162.374C1343.17 162.374 1342.9 162.652 1342.9 163C1342.9 163.348 1343.17 163.626 1343.52 163.626C1344.61 163.626 1345.43 164.53 1345.43 165.574C1345.43 165.922 1345.71 166.2 1346.05 166.2Z" fill="#ADA6BB"/>
<path d="M1279.05 133.2C1279.39 133.2 1279.67 132.922 1279.67 132.574C1279.67 131.461 1280.56 130.626 1281.58 130.626C1281.93 130.626 1282.2 130.348 1282.2 130C1282.2 129.652 1281.93 129.374 1281.58 129.374C1280.49 129.374 1279.67 128.47 1279.67 127.426C1279.67 127.078 1279.39 126.8 1279.05 126.8C1278.71 126.8 1278.43 127.078 1278.43 127.426C1278.43 128.539 1277.54 129.374 1276.52 129.374C1276.17 129.374 1275.9 129.652 1275.9 130C1275.9 130.348 1276.17 130.626 1276.52 130.626C1277.61 130.626 1278.43 131.53 1278.43 132.574C1278.43 132.922 1278.71 133.2 1279.05 133.2Z" fill="#ADA6BB"/>
<path d="M276.05 90.2C276.392 90.2 276.666 89.9218 276.666 89.574C276.666 88.4609 277.556 87.6261 278.584 87.6261C278.926 87.6261 279.2 87.3479 279.2 87C279.2 86.6522 278.926 86.374 278.584 86.374C277.488 86.374 276.666 85.4696 276.666 84.4261C276.666 84.0783 276.392 83.8 276.05 83.8C275.708 83.8 275.434 84.0783 275.434 84.4261C275.434 85.5392 274.543 86.374 273.516 86.374C273.174 86.374 272.9 86.6522 272.9 87C272.9 87.3479 273.174 87.6261 273.516 87.6261C274.612 87.6261 275.434 88.5305 275.434 89.574C275.434 89.9218 275.708 90.2 276.05 90.2Z" fill="#ADA6BB"/>
<path d="M1269.05 568.2C1269.39 568.2 1269.67 567.922 1269.67 567.574C1269.67 566.461 1270.56 565.626 1271.58 565.626C1271.93 565.626 1272.2 565.348 1272.2 565C1272.2 564.652 1271.93 564.374 1271.58 564.374C1270.49 564.374 1269.67 563.47 1269.67 562.426C1269.67 562.078 1269.39 561.8 1269.05 561.8C1268.71 561.8 1268.43 562.078 1268.43 562.426C1268.43 563.539 1267.54 564.374 1266.52 564.374C1266.17 564.374 1265.9 564.652 1265.9 565C1265.9 565.348 1266.17 565.626 1266.52 565.626C1267.61 565.626 1268.43 566.53 1268.43 567.574C1268.43 567.922 1268.71 568.2 1269.05 568.2Z" fill="#0FC7D2"/>
<path d="M210.05 614.2C210.392 614.2 210.666 613.922 210.666 613.574C210.666 612.461 211.556 611.626 212.584 611.626C212.926 611.626 213.2 611.348 213.2 611C213.2 610.652 212.926 610.374 212.584 610.374C211.488 610.374 210.666 609.47 210.666 608.426C210.666 608.078 210.392 607.8 210.05 607.8C209.708 607.8 209.434 608.078 209.434 608.426C209.434 609.539 208.543 610.374 207.516 610.374C207.174 610.374 206.9 610.652 206.9 611C206.9 611.348 207.174 611.626 207.516 611.626C208.612 611.626 209.434 612.53 209.434 613.574C209.434 613.922 209.708 614.2 210.05 614.2Z" fill="#ADA6BB"/>
<path d="M1307.05 462.2C1307.39 462.2 1307.67 461.922 1307.67 461.574C1307.67 460.461 1308.56 459.626 1309.58 459.626C1309.93 459.626 1310.2 459.348 1310.2 459C1310.2 458.652 1309.93 458.374 1309.58 458.374C1308.49 458.374 1307.67 457.47 1307.67 456.426C1307.67 456.078 1307.39 455.8 1307.05 455.8C1306.71 455.8 1306.43 456.078 1306.43 456.426C1306.43 457.539 1305.54 458.374 1304.52 458.374C1304.17 458.374 1303.9 458.652 1303.9 459C1303.9 459.348 1304.17 459.626 1304.52 459.626C1305.61 459.626 1306.43 460.53 1306.43 461.574C1306.43 461.922 1306.71 462.2 1307.05 462.2Z" fill="#ADA6BB"/>
<path d="M1278.21 710.44C1279.65 710.44 1280.8 709.271 1280.8 707.81C1280.8 703.136 1284.54 699.63 1288.85 699.63C1290.29 699.63 1291.44 698.461 1291.44 697C1291.44 695.539 1290.29 694.37 1288.85 694.37C1284.25 694.37 1280.8 690.572 1280.8 686.19C1280.8 684.729 1279.65 683.56 1278.21 683.56C1276.77 683.56 1275.62 684.729 1275.62 686.19C1275.62 690.864 1271.88 694.37 1267.57 694.37C1266.13 694.37 1264.98 695.539 1264.98 697C1264.98 698.461 1266.13 699.63 1267.57 699.63C1272.17 699.63 1275.62 703.428 1275.62 707.81C1275.62 709.271 1276.77 710.44 1278.21 710.44Z" fill="#ADA6BB"/>
</g>
<g filter="url(#filter1_f_528_2019)">
<path d="M296.249 226.552L397 166L298.698 230.565C298.44 230.749 298.149 230.879 297.84 230.946C297.532 231.014 297.213 231.018 296.904 230.958C296.594 230.898 296.299 230.776 296.037 230.599C295.775 230.422 295.551 230.193 295.379 229.927C295.207 229.66 295.09 229.362 295.035 229.049C294.981 228.736 294.989 228.415 295.061 228.105C295.132 227.795 295.265 227.503 295.451 227.247C295.637 226.99 295.873 226.774 296.144 226.611L296.249 226.552Z" fill="url(#paint0_linear_528_2019)" style="mix-blend-mode:overlay"/>
<path d="M901.653 456.115L1035 376L904.894 461.425C904.553 461.668 904.167 461.84 903.759 461.929C903.351 462.018 902.93 462.023 902.519 461.945C902.109 461.866 901.719 461.704 901.372 461.47C901.026 461.235 900.73 460.933 900.502 460.58C900.274 460.228 900.119 459.832 900.047 459.418C899.975 459.004 899.986 458.579 900.08 458.17C900.175 457.76 900.351 457.374 900.597 457.034C900.843 456.695 901.155 456.409 901.514 456.193L901.653 456.115Z" fill="url(#paint1_linear_528_2019)" style="mix-blend-mode:overlay"/>
<path d="M513.845 677.989L582 637L515.501 680.706C515.327 680.83 515.13 680.918 514.921 680.964C514.713 681.009 514.497 681.012 514.288 680.972C514.078 680.931 513.879 680.849 513.701 680.729C513.524 680.609 513.373 680.454 513.257 680.274C513.14 680.093 513.061 679.891 513.024 679.679C512.987 679.467 512.993 679.25 513.041 679.04C513.089 678.831 513.179 678.633 513.305 678.459C513.431 678.286 513.59 678.139 513.774 678.029L513.845 677.989Z" fill="url(#paint2_linear_528_2019)" style="mix-blend-mode:overlay"/>
<path d="M603.274 675.484L706 614L605.77 679.559C605.508 679.745 605.21 679.877 604.896 679.945C604.582 680.014 604.257 680.018 603.941 679.957C603.625 679.897 603.324 679.773 603.057 679.593C602.79 679.413 602.562 679.181 602.387 678.91C602.211 678.64 602.092 678.337 602.036 678.019C601.98 677.701 601.989 677.375 602.062 677.06C602.135 676.746 602.27 676.45 602.46 676.189C602.65 675.928 602.89 675.709 603.166 675.544L603.274 675.484Z" fill="url(#paint3_linear_528_2019)" style="mix-blend-mode:overlay"/>
<path d="M364.772 206.263L427 169L366.284 208.733C366.125 208.846 365.945 208.925 365.754 208.967C365.564 209.008 365.367 209.011 365.176 208.974C364.984 208.938 364.802 208.862 364.64 208.753C364.479 208.644 364.341 208.504 364.234 208.34C364.128 208.176 364.056 207.992 364.022 207.799C363.988 207.607 363.993 207.409 364.038 207.218C364.082 207.028 364.164 206.848 364.279 206.69C364.394 206.532 364.539 206.399 364.707 206.299L364.772 206.263Z" fill="url(#paint4_linear_528_2019)" style="mix-blend-mode:overlay"/>
<path d="M1009.77 73.2629L1072 36L1011.28 75.7325C1011.12 75.8457 1010.94 75.9254 1010.75 75.9669C1010.56 76.0084 1010.37 76.0109 1010.18 75.9742C1009.98 75.9375 1009.8 75.8624 1009.64 75.7534C1009.48 75.6443 1009.34 75.5036 1009.23 75.3396C1009.13 75.1757 1009.06 74.9918 1009.02 74.7992C1008.99 74.6065 1008.99 74.409 1009.04 74.2185C1009.08 74.0279 1009.16 73.8483 1009.28 73.6903C1009.39 73.5323 1009.54 73.3993 1009.71 73.2992L1009.77 73.2629Z" fill="url(#paint5_linear_528_2019)" style="mix-blend-mode:overlay"/>
</g>
<path fill-rule="evenodd" clip-rule="evenodd" d="M1209.41 202.5H1183.59C1184.33 208.973 1189.83 214 1196.5 214C1203.17 214 1208.67 208.973 1209.41 202.5ZM1209.41 199.5C1208.67 193.027 1203.17 188 1196.5 188C1189.83 188 1184.33 193.027 1183.59 199.5H1209.41Z" fill="#ADA6BB"/>
<circle cx="1196.5" cy="201" r="17" stroke="#ADA6BB" stroke-width="3"/>
<line x1="1178" y1="202.5" x2="1171.5" y2="202.5" stroke="#ADA6BB" stroke-width="3" stroke-linecap="round"/>
<line x1="1221.5" y1="202.5" x2="1215" y2="202.5" stroke="#ADA6BB" stroke-width="3" stroke-linecap="round"/>
<circle cx="228.575" cy="659.916" r="15.0752" stroke="#ADA6BB" stroke-width="3"/>
<line x1="239.49" y1="646.88" x2="250.71" y2="635.66" stroke="#ADA6BB" stroke-width="3" stroke-linecap="round"/>
<path d="M217.781 648.143L235.925 630" stroke="#ADA6BB" stroke-width="3" stroke-linecap="round"/>
<path d="M238.803 672.198L262 649.001" stroke="#ADA6BB" stroke-width="3" stroke-linecap="round"/>
<path fill-rule="evenodd" clip-rule="evenodd" d="M129.75 87C132.926 87 135.5 84.4256 135.5 81.25C135.5 78.0744 132.926 75.5 129.75 75.5C126.574 75.5 124 78.0744 124 81.25C124 84.4256 126.574 87 129.75 87ZM129.75 85.5C132.097 85.5 134 83.5972 134 81.25C134 78.9028 132.097 77 129.75 77C127.403 77 125.5 78.9028 125.5 81.25C125.5 83.5972 127.403 85.5 129.75 85.5Z" fill="#ADA6BB"/>
<path fill-rule="evenodd" clip-rule="evenodd" d="M156.84 108.214C152.27 114.164 145.083 118 137 118C123.193 118 112 106.807 112 93C112 79.1929 123.193 68 137 68C150.304 68 161.18 78.3912 161.956 91.5H162V93C162 98.7176 160.081 103.987 156.851 108.199C156.847 108.204 156.843 108.209 156.84 108.214ZM160.5 93C160.5 94.8964 160.275 96.7404 159.851 98.5068C159.818 98.5023 159.784 98.5 159.75 98.5H153.75C153.336 98.5 153 98.8358 153 99.25C153 99.6642 153.336 100 153.75 100H159.44C158.646 102.546 157.431 104.907 155.876 107H150.25C149.836 107 149.5 107.336 149.5 107.75C149.5 108.164 149.836 108.5 150.25 108.5H154.664C150.357 113.404 144.04 116.5 137 116.5C124.021 116.5 113.5 105.979 113.5 93H160.5ZM113.547 91.5C114.321 79.2202 124.525 69.5 137 69.5C147.356 69.5 156.148 76.199 159.278 85.5H146.25C145.836 85.5 145.5 85.8358 145.5 86.25C145.5 86.6642 145.836 87 146.25 87H159.727C160.109 88.45 160.356 89.9547 160.453 91.5H113.547Z" fill="#ADA6BB"/>
<path fill-rule="evenodd" clip-rule="evenodd" d="M869.615 598.879C869.215 598.772 868.977 598.361 869.085 597.961L873.306 582.205L861.227 578.968C859.29 584.018 853.81 586.891 848.469 585.46C843.129 584.029 839.819 578.801 840.667 573.459L828.391 570.17L828.779 568.721L841.004 571.996C842.679 566.504 848.42 563.289 854.009 564.786C859.598 566.284 862.962 571.939 861.666 577.533L873.695 580.756L878.15 564.129C878.257 563.729 878.668 563.492 879.068 563.599C879.468 563.706 879.706 564.117 879.598 564.518L870.533 598.349C870.426 598.749 870.015 598.986 869.615 598.879ZM853.62 566.235C848.712 564.92 843.666 567.833 842.351 572.742C841.036 577.65 843.949 582.696 848.857 584.011C853.766 585.326 858.812 582.413 860.127 577.505C861.442 572.596 858.529 567.55 853.62 566.235Z" fill="#ADA6BB"/>
<path d="M822.565 586.116C822.458 586.516 822.695 586.927 823.095 587.034C823.496 587.141 823.907 586.904 824.014 586.504L833.079 552.673C833.186 552.273 832.949 551.861 832.549 551.754C832.149 551.647 831.737 551.884 831.63 552.284L822.565 586.116Z" fill="#ADA6BB"/>
<path fill-rule="evenodd" clip-rule="evenodd" d="M1222.48 453.315L1197.53 446.63C1196.58 453.075 1200.59 459.353 1207.03 461.08C1213.48 462.807 1220.09 459.375 1222.48 453.315ZM1223.26 450.417C1224.21 443.972 1220.2 437.693 1213.76 435.966C1207.31 434.239 1200.7 437.672 1198.31 443.732L1223.26 450.417Z" fill="#ADA6BB"/>
<circle cx="1210.39" cy="448.523" r="17" transform="rotate(15 1210.39 448.523)" stroke="#ADA6BB" stroke-width="3"/>
<line x1="1192.14" y1="445.184" x2="1185.86" y2="443.502" stroke="#ADA6BB" stroke-width="3" stroke-linecap="round"/>
<line x1="1234.15" y1="456.443" x2="1227.88" y2="454.76" stroke="#ADA6BB" stroke-width="3" stroke-linecap="round"/>
<defs>
<filter id="filter0_f_528_2019" x="9" y="5" width="1349" height="757" filterUnits="userSpaceOnUse" color-interpolation-filters="sRGB">
<feFlood flood-opacity="0" result="BackgroundImageFix"/>
<feBlend mode="normal" in="SourceGraphic" in2="BackgroundImageFix" result="shape"/>
<feGaussianBlur stdDeviation="2" result="effect1_foregroundBlur_528_2019"/>
</filter>
<filter id="filter1_f_528_2019" x="293" y="34" width="781" height="649" filterUnits="userSpaceOnUse" color-interpolation-filters="sRGB">
<feFlood flood-opacity="0" result="BackgroundImageFix"/>
<feBlend mode="normal" in="SourceGraphic" in2="BackgroundImageFix" result="shape"/>
<feGaussianBlur stdDeviation="1" result="effect1_foregroundBlur_528_2019"/>
</filter>
<linearGradient id="paint0_linear_528_2019" x1="295.078" y1="198.472" x2="399.343" y2="198.472" gradientUnits="userSpaceOnUse">
<stop offset="0.338542" stop-color="#DFDCE4"/>
<stop offset="1" stop-color="#F4F2F7"/>
</linearGradient>
<linearGradient id="paint1_linear_528_2019" x1="900.103" y1="418.962" x2="1038.1" y2="418.962" gradientUnits="userSpaceOnUse">
<stop offset="0.338542" stop-color="#DFDCE4"/>
<stop offset="1" stop-color="#F4F2F7"/>
</linearGradient>
<linearGradient id="paint2_linear_528_2019" x1="513.053" y1="658.981" x2="583.585" y2="658.981" gradientUnits="userSpaceOnUse">
<stop offset="0.338542" stop-color="#DFDCE4"/>
<stop offset="1" stop-color="#F4F2F7"/>
</linearGradient>
<linearGradient id="paint3_linear_528_2019" x1="602.079" y1="646.971" x2="708.389" y2="646.971" gradientUnits="userSpaceOnUse">
<stop offset="0.338542" stop-color="#DFDCE4"/>
<stop offset="1" stop-color="#F4F2F7"/>
</linearGradient>
<linearGradient id="paint4_linear_528_2019" x1="364.048" y1="188.982" x2="428.447" y2="188.982" gradientUnits="userSpaceOnUse">
<stop offset="0.338542" stop-color="#DFDCE4"/>
<stop offset="1" stop-color="#F4F2F7"/>
</linearGradient>
<linearGradient id="paint5_linear_528_2019" x1="1009.05" y1="55.9825" x2="1073.45" y2="55.9825" gradientUnits="userSpaceOnUse">
<stop offset="0.338542" stop-color="#DFDCE4"/>
<stop offset="1" stop-color="#F4F2F7"/>
</linearGradient>
</defs>
</svg>
