<svg width="193" height="193" viewBox="0 0 193 193" fill="none" xmlns="http://www.w3.org/2000/svg">
<path d="M30.2884 106.758C67.0416 56.7305 181.148 5.78998 181.148 5.78998C181.148 5.78998 141.188 125.671 100.107 167.647C97.3845 170.736 94.2565 173.459 90.8063 175.733C86.7942 178.578 82.7995 180.535 78.8583 181.42C78.8178 181.409 78.7773 181.397 78.7368 181.386C74.4982 182.663 70.0035 183.35 65.3483 183.35C39.7665 183.35 19.0283 162.612 19.0283 137.03C19.0283 136.407 19.0406 135.788 19.0649 135.171C19.0527 135.147 19.0405 135.124 19.0283 135.1C19.0283 131.888 19.5444 128.626 20.5182 125.332C22.3304 118.368 25.7223 112.041 30.2884 106.758Z" fill="url(#paint0_linear_478_573)"/>
<ellipse cx="65.3473" cy="137.03" rx="36.67" ry="36.67" transform="rotate(-43.3432 65.3473 137.03)" fill="url(#paint1_linear_478_573)"/>
<defs>
<linearGradient id="paint0_linear_478_573" x1="36.3983" y1="174.665" x2="181.148" y2="5.78998" gradientUnits="userSpaceOnUse">
<stop offset="0.370952" stop-color="#FDC500"/>
<stop offset="1" stop-color="#FDC500" stop-opacity="0"/>
</linearGradient>
<linearGradient id="paint1_linear_478_573" x1="102.017" y1="136.927" x2="39.3599" y2="136.927" gradientUnits="userSpaceOnUse">
<stop offset="0.147202" stop-color="#FDC500"/>
<stop offset="1" stop-color="#FD8630"/>
</linearGradient>
</defs>
</svg>
