<svg width="1366" height="768" viewBox="0 0 1366 768" fill="none" xmlns="http://www.w3.org/2000/svg">
<g clip-path="url(#clip0_274_621)">
<rect width="1366" height="768" fill="#190E3D"/>
<g opacity="0.5">
<circle cx="688" cy="382.296" r="92.5" stroke="white"/>
<line x1="281.354" y1="-23.0577" x2="1071.35" y2="766.942" stroke="white"/>
<line x1="294.646" y1="785.942" x2="1082.65" y2="-2.05763" stroke="white"/>
<line x1="692.682" y1="-175" x2="692.682" y2="942.229" stroke="white"/>
<line x1="126" y1="387.796" x2="1240.4" y2="387.796" stroke="white"/>
<line x1="143.129" y1="240.813" x2="1219.56" y2="529.241" stroke="white"/>
<line x1="403.3" y1="-113.206" x2="961.915" y2="854.342" stroke="white"/>
<path d="M202.79 671.41L1167.89 114.21" stroke="white"/>
<line x1="837.973" y1="-153.77" x2="548.813" y2="925.39" stroke="white"/>
<line x1="203.491" y1="105.899" x2="1168.59" y2="663.099" stroke="white"/>
<line x1="543.02" y1="-169.113" x2="832.18" y2="910.047" stroke="white"/>
<line x1="159.871" y1="531.242" x2="1236.3" y2="242.814" stroke="white"/>
<line x1="972.346" y1="-95.5352" x2="413.732" y2="872.013" stroke="white"/>
</g>
<rect x="12" y="1" width="1366" height="768" fill="#190E3D"/>
<g filter="url(#filter0_f_274_621)">
<path d="M57.1502 277.6C58.1774 277.6 58.9991 276.766 58.9991 275.722C58.9991 272.383 61.6698 269.879 64.7513 269.879C65.7785 269.879 66.6002 269.044 66.6002 268C66.6002 266.957 65.7785 266.122 64.7513 266.122C61.4643 266.122 58.9991 263.409 58.9991 260.279C58.9991 259.235 58.1774 258.4 57.1502 258.4C56.123 258.4 55.3013 259.235 55.3013 260.279C55.3013 263.618 52.6306 266.122 49.5491 266.122C48.5219 266.122 47.7002 266.957 47.7002 268C47.7002 269.044 48.5219 269.879 49.5491 269.879C52.8361 269.879 55.3013 272.592 55.3013 275.722C55.3013 276.766 56.123 277.6 57.1502 277.6Z" fill="#DFDCE4"/>
<path d="M301.15 707.6C302.177 707.6 302.999 706.766 302.999 705.722C302.999 702.383 305.67 699.879 308.751 699.879C309.778 699.879 310.6 699.044 310.6 698C310.6 696.957 309.778 696.122 308.751 696.122C305.464 696.122 302.999 693.409 302.999 690.279C302.999 689.235 302.177 688.4 301.15 688.4C300.123 688.4 299.301 689.235 299.301 690.279C299.301 693.618 296.631 696.122 293.549 696.122C292.522 696.122 291.7 696.957 291.7 698C291.7 699.044 292.522 699.879 293.549 699.879C296.836 699.879 299.301 702.592 299.301 705.722C299.301 706.766 300.123 707.6 301.15 707.6Z" fill="#DFDCE4"/>
<path d="M1351.15 92.6004C1352.18 92.6004 1353 91.7656 1353 90.7221C1353 87.383 1355.67 84.8787 1358.75 84.8787C1359.78 84.8787 1360.6 84.0439 1360.6 83.0004C1360.6 81.9569 1359.78 81.1221 1358.75 81.1221C1355.46 81.1221 1353 78.4091 1353 75.2787C1353 74.2352 1352.18 73.4004 1351.15 73.4004C1350.12 73.4004 1349.3 74.2352 1349.3 75.2787C1349.3 78.6178 1346.63 81.1221 1343.55 81.1221C1342.52 81.1221 1341.7 81.9569 1341.7 83.0004C1341.7 84.0439 1342.52 84.8787 1343.55 84.8787C1346.84 84.8787 1349.3 87.5917 1349.3 90.7221C1349.3 91.7656 1350.12 92.6004 1351.15 92.6004Z" fill="#DFDCE4"/>
<path d="M866.15 155.6C867.177 155.6 867.999 154.766 867.999 153.722C867.999 150.383 870.67 147.879 873.751 147.879C874.778 147.879 875.6 147.044 875.6 146C875.6 144.957 874.778 144.122 873.751 144.122C870.464 144.122 867.999 141.409 867.999 138.279C867.999 137.235 867.177 136.4 866.15 136.4C865.123 136.4 864.301 137.235 864.301 138.279C864.301 141.618 861.631 144.122 858.549 144.122C857.522 144.122 856.7 144.957 856.7 146C856.7 147.044 857.522 147.879 858.549 147.879C861.836 147.879 864.301 150.592 864.301 153.722C864.301 154.766 865.123 155.6 866.15 155.6Z" fill="#DFDCE4"/>
<path d="M1258.15 303.6C1259.18 303.6 1260 302.766 1260 301.722C1260 298.383 1262.67 295.879 1265.75 295.879C1266.78 295.879 1267.6 295.044 1267.6 294C1267.6 292.957 1266.78 292.122 1265.75 292.122C1262.46 292.122 1260 289.409 1260 286.279C1260 285.235 1259.18 284.4 1258.15 284.4C1257.12 284.4 1256.3 285.235 1256.3 286.279C1256.3 289.618 1253.63 292.122 1250.55 292.122C1249.52 292.122 1248.7 292.957 1248.7 294C1248.7 295.044 1249.52 295.879 1250.55 295.879C1253.84 295.879 1256.3 298.592 1256.3 301.722C1256.3 302.766 1257.12 303.6 1258.15 303.6Z" fill="#DFDCE4"/>
<path d="M397.15 610.6C398.177 610.6 398.999 609.766 398.999 608.722C398.999 605.383 401.67 602.879 404.751 602.879C405.778 602.879 406.6 602.044 406.6 601C406.6 599.957 405.778 599.122 404.751 599.122C401.464 599.122 398.999 596.409 398.999 593.279C398.999 592.235 398.177 591.4 397.15 591.4C396.123 591.4 395.301 592.235 395.301 593.279C395.301 596.618 392.631 599.122 389.549 599.122C388.522 599.122 387.7 599.957 387.7 601C387.7 602.044 388.522 602.879 389.549 602.879C392.836 602.879 395.301 605.592 395.301 608.722C395.301 609.766 396.123 610.6 397.15 610.6Z" fill="#DE3D64"/>
<path d="M733.15 58.6004C734.177 58.6004 734.999 57.7656 734.999 56.7221C734.999 53.383 737.67 50.8787 740.751 50.8787C741.778 50.8787 742.6 50.0439 742.6 49.0004C742.6 47.9569 741.778 47.1221 740.751 47.1221C737.464 47.1221 734.999 44.4091 734.999 41.2787C734.999 40.2352 734.177 39.4004 733.15 39.4004C732.123 39.4004 731.301 40.2352 731.301 41.2787C731.301 44.6178 728.631 47.1221 725.549 47.1221C724.522 47.1221 723.7 47.9569 723.7 49.0004C723.7 50.0439 724.522 50.8787 725.549 50.8787C728.836 50.8787 731.301 53.5917 731.301 56.7221C731.301 57.7656 732.123 58.6004 733.15 58.6004Z" fill="#DFDCE4"/>
<path d="M40.1502 47.6004C41.1774 47.6004 41.9991 46.7656 41.9991 45.7221C41.9991 42.383 44.6698 39.8787 47.7513 39.8787C48.7785 39.8787 49.6002 39.0439 49.6002 38.0004C49.6002 36.9569 48.7785 36.1221 47.7513 36.1221C44.4643 36.1221 41.9991 33.4091 41.9991 30.2787C41.9991 29.2352 41.1774 28.4004 40.1502 28.4004C39.123 28.4004 38.3013 29.2352 38.3013 30.2787C38.3013 33.6178 35.6306 36.1221 32.5491 36.1221C31.5219 36.1221 30.7002 36.9569 30.7002 38.0004C30.7002 39.0439 31.5219 39.8787 32.5491 39.8787C35.8361 39.8787 38.3013 42.5917 38.3013 45.7221C38.3013 46.7656 39.123 47.6004 40.1502 47.6004Z" fill="#DFDCE4"/>
<path d="M55.1502 734.6C56.1774 734.6 56.9991 733.766 56.9991 732.722C56.9991 729.383 59.6698 726.879 62.7513 726.879C63.7785 726.879 64.6002 726.044 64.6002 725C64.6002 723.957 63.7785 723.122 62.7513 723.122C59.4643 723.122 56.9991 720.409 56.9991 717.279C56.9991 716.235 56.1774 715.4 55.1502 715.4C54.123 715.4 53.3013 716.235 53.3013 717.279C53.3013 720.618 50.6306 723.122 47.5491 723.122C46.5219 723.122 45.7002 723.957 45.7002 725C45.7002 726.044 46.5219 726.879 47.5491 726.879C50.8361 726.879 53.3013 729.592 53.3013 732.722C53.3013 733.766 54.123 734.6 55.1502 734.6Z" fill="#DFDCE4"/>
<path d="M784.15 444.6C785.177 444.6 785.999 443.766 785.999 442.722C785.999 439.383 788.67 436.879 791.751 436.879C792.778 436.879 793.6 436.044 793.6 435C793.6 433.957 792.778 433.122 791.751 433.122C788.464 433.122 785.999 430.409 785.999 427.279C785.999 426.235 785.177 425.4 784.15 425.4C783.123 425.4 782.301 426.235 782.301 427.279C782.301 430.618 779.631 433.122 776.549 433.122C775.522 433.122 774.7 433.957 774.7 435C774.7 436.044 775.522 436.879 776.549 436.879C779.836 436.879 782.301 439.592 782.301 442.722C782.301 443.766 783.123 444.6 784.15 444.6Z" fill="#DFDCE4"/>
<path d="M821.1 276.4C821.785 276.4 822.332 275.843 822.332 275.147C822.332 272.921 824.113 271.252 826.167 271.252C826.852 271.252 827.4 270.695 827.4 270C827.4 269.304 826.852 268.747 826.167 268.747C823.976 268.747 822.332 266.939 822.332 264.852C822.332 264.156 821.785 263.6 821.1 263.6C820.415 263.6 819.867 264.156 819.867 264.852C819.867 267.078 818.087 268.747 816.032 268.747C815.348 268.747 814.8 269.304 814.8 270C814.8 270.695 815.348 271.252 816.032 271.252C818.224 271.252 819.867 273.06 819.867 275.147C819.867 275.843 820.415 276.4 821.1 276.4Z" fill="#DFDCE4"/>
<path d="M1076.15 519.6C1077.18 519.6 1078 518.766 1078 517.722C1078 514.383 1080.67 511.879 1083.75 511.879C1084.78 511.879 1085.6 511.044 1085.6 510C1085.6 508.957 1084.78 508.122 1083.75 508.122C1080.46 508.122 1078 505.409 1078 502.279C1078 501.235 1077.18 500.4 1076.15 500.4C1075.12 500.4 1074.3 501.235 1074.3 502.279C1074.3 505.618 1071.63 508.122 1068.55 508.122C1067.52 508.122 1066.7 508.957 1066.7 510C1066.7 511.044 1067.52 511.879 1068.55 511.879C1071.84 511.879 1074.3 514.592 1074.3 517.722C1074.3 518.766 1075.12 519.6 1076.15 519.6Z" fill="#DFDCE4"/>
<path d="M1074.15 302.6C1075.18 302.6 1076 301.766 1076 300.722C1076 297.383 1078.67 294.879 1081.75 294.879C1082.78 294.879 1083.6 294.044 1083.6 293C1083.6 291.957 1082.78 291.122 1081.75 291.122C1078.46 291.122 1076 288.409 1076 285.279C1076 284.235 1075.18 283.4 1074.15 283.4C1073.12 283.4 1072.3 284.235 1072.3 285.279C1072.3 288.618 1069.63 291.122 1066.55 291.122C1065.52 291.122 1064.7 291.957 1064.7 293C1064.7 294.044 1065.52 294.879 1066.55 294.879C1069.84 294.879 1072.3 297.592 1072.3 300.722C1072.3 301.766 1073.12 302.6 1074.15 302.6Z" fill="#DFDCE4"/>
<path d="M124.15 640.6C125.177 640.6 125.999 639.766 125.999 638.722C125.999 635.383 128.67 632.879 131.751 632.879C132.778 632.879 133.6 632.044 133.6 631C133.6 629.957 132.778 629.122 131.751 629.122C128.464 629.122 125.999 626.409 125.999 623.279C125.999 622.235 125.177 621.4 124.15 621.4C123.123 621.4 122.301 622.235 122.301 623.279C122.301 626.618 119.631 629.122 116.549 629.122C115.522 629.122 114.7 629.957 114.7 631C114.7 632.044 115.522 632.879 116.549 632.879C119.836 632.879 122.301 635.592 122.301 638.722C122.301 639.766 123.123 640.6 124.15 640.6Z" fill="#DFDCE4"/>
<path d="M607.15 524.6C608.177 524.6 608.999 523.766 608.999 522.722C608.999 519.383 611.67 516.879 614.751 516.879C615.778 516.879 616.6 516.044 616.6 515C616.6 513.957 615.778 513.122 614.751 513.122C611.464 513.122 608.999 510.409 608.999 507.279C608.999 506.235 608.177 505.4 607.15 505.4C606.123 505.4 605.301 506.235 605.301 507.279C605.301 510.618 602.631 513.122 599.549 513.122C598.522 513.122 597.7 513.957 597.7 515C597.7 516.044 598.522 516.879 599.549 516.879C602.836 516.879 605.301 519.592 605.301 522.722C605.301 523.766 606.123 524.6 607.15 524.6Z" fill="#DFDCE4"/>
<path d="M280.05 18.1998C280.393 18.1998 280.667 17.9215 280.667 17.5737C280.667 16.4607 281.557 15.6259 282.584 15.6259C282.926 15.6259 283.2 15.3476 283.2 14.9998C283.2 14.652 282.926 14.3737 282.584 14.3737C281.488 14.3737 280.667 13.4694 280.667 12.4259C280.667 12.0781 280.393 11.7998 280.05 11.7998C279.708 11.7998 279.434 12.0781 279.434 12.4259C279.434 13.5389 278.544 14.3737 277.517 14.3737C277.174 14.3737 276.9 14.652 276.9 14.9998C276.9 15.3476 277.174 15.6259 277.517 15.6259C278.612 15.6259 279.434 16.5302 279.434 17.5737C279.434 17.9215 279.708 18.1998 280.05 18.1998Z" fill="#DFDCE4"/>
<path d="M615.1 124.4C615.785 124.4 616.332 123.843 616.332 123.147C616.332 120.921 618.113 119.252 620.167 119.252C620.852 119.252 621.4 118.695 621.4 118C621.4 117.304 620.852 116.747 620.167 116.747C617.976 116.747 616.332 114.939 616.332 112.852C616.332 112.156 615.785 111.6 615.1 111.6C614.415 111.6 613.867 112.156 613.867 112.852C613.867 115.078 612.087 116.747 610.032 116.747C609.348 116.747 608.8 117.304 608.8 118C608.8 118.695 609.348 119.252 610.032 119.252C612.224 119.252 613.867 121.06 613.867 123.147C613.867 123.843 614.415 124.4 615.1 124.4Z" fill="#9FDF6C"/>
<path d="M687.05 242.2C687.393 242.2 687.667 241.922 687.667 241.574C687.667 240.461 688.557 239.626 689.584 239.626C689.926 239.626 690.2 239.348 690.2 239C690.2 238.652 689.926 238.374 689.584 238.374C688.488 238.374 687.667 237.469 687.667 236.426C687.667 236.078 687.393 235.8 687.05 235.8C686.708 235.8 686.434 236.078 686.434 236.426C686.434 237.539 685.544 238.374 684.517 238.374C684.174 238.374 683.9 238.652 683.9 239C683.9 239.348 684.174 239.626 684.517 239.626C685.612 239.626 686.434 240.53 686.434 241.574C686.434 241.922 686.708 242.2 687.05 242.2Z" fill="#DFDCE4"/>
<path d="M468.05 86.1998C468.393 86.1998 468.667 85.9215 468.667 85.5737C468.667 84.4607 469.557 83.6259 470.584 83.6259C470.926 83.6259 471.2 83.3476 471.2 82.9998C471.2 82.652 470.926 82.3737 470.584 82.3737C469.488 82.3737 468.667 81.4694 468.667 80.4259C468.667 80.0781 468.393 79.7998 468.05 79.7998C467.708 79.7998 467.434 80.0781 467.434 80.4259C467.434 81.5389 466.544 82.3737 465.517 82.3737C465.174 82.3737 464.9 82.652 464.9 82.9998C464.9 83.3476 465.174 83.6259 465.517 83.6259C466.612 83.6259 467.434 84.5302 467.434 85.5737C467.434 85.9215 467.708 86.1998 468.05 86.1998Z" fill="#DFDCE4"/>
<path d="M595.05 375.2C595.393 375.2 595.667 374.922 595.667 374.574C595.667 373.461 596.557 372.626 597.584 372.626C597.926 372.626 598.2 372.348 598.2 372C598.2 371.652 597.926 371.374 597.584 371.374C596.488 371.374 595.667 370.469 595.667 369.426C595.667 369.078 595.393 368.8 595.05 368.8C594.708 368.8 594.434 369.078 594.434 369.426C594.434 370.539 593.544 371.374 592.517 371.374C592.174 371.374 591.9 371.652 591.9 372C591.9 372.348 592.174 372.626 592.517 372.626C593.612 372.626 594.434 373.53 594.434 374.574C594.434 374.922 594.708 375.2 595.05 375.2Z" fill="#DFDCE4"/>
<path d="M978.05 286.2C978.393 286.2 978.667 285.922 978.667 285.574C978.667 284.461 979.557 283.626 980.584 283.626C980.926 283.626 981.2 283.348 981.2 283C981.2 282.652 980.926 282.374 980.584 282.374C979.488 282.374 978.667 281.469 978.667 280.426C978.667 280.078 978.393 279.8 978.05 279.8C977.708 279.8 977.434 280.078 977.434 280.426C977.434 281.539 976.544 282.374 975.517 282.374C975.174 282.374 974.9 282.652 974.9 283C974.9 283.348 975.174 283.626 975.517 283.626C976.612 283.626 977.434 284.53 977.434 285.574C977.434 285.922 977.708 286.2 978.05 286.2Z" fill="#DFDCE4"/>
<path d="M996.05 49.1998C996.393 49.1998 996.667 48.9215 996.667 48.5737C996.667 47.4607 997.557 46.6259 998.584 46.6259C998.926 46.6259 999.2 46.3476 999.2 45.9998C999.2 45.652 998.926 45.3737 998.584 45.3737C997.488 45.3737 996.667 44.4694 996.667 43.4259C996.667 43.0781 996.393 42.7998 996.05 42.7998C995.708 42.7998 995.434 43.0781 995.434 43.4259C995.434 44.5389 994.544 45.3737 993.517 45.3737C993.174 45.3737 992.9 45.652 992.9 45.9998C992.9 46.3476 993.174 46.6259 993.517 46.6259C994.612 46.6259 995.434 47.5302 995.434 48.5737C995.434 48.9215 995.708 49.1998 996.05 49.1998Z" fill="#FDC500"/>
<path d="M92.0504 179.2C92.3928 179.2 92.6667 178.922 92.6667 178.574C92.6667 177.461 93.5569 176.626 94.5841 176.626C94.9265 176.626 95.2004 176.348 95.2004 176C95.2004 175.652 94.9265 175.374 94.5841 175.374C93.4884 175.374 92.6667 174.469 92.6667 173.426C92.6667 173.078 92.3928 172.8 92.0504 172.8C91.708 172.8 91.4341 173.078 91.4341 173.426C91.4341 174.539 90.5439 175.374 89.5167 175.374C89.1743 175.374 88.9004 175.652 88.9004 176C88.9004 176.348 89.1743 176.626 89.5167 176.626C90.6123 176.626 91.4341 177.53 91.4341 178.574C91.4341 178.922 91.708 179.2 92.0504 179.2Z" fill="#DFDCE4"/>
<path d="M293.05 418.2C293.393 418.2 293.667 417.922 293.667 417.574C293.667 416.461 294.557 415.626 295.584 415.626C295.926 415.626 296.2 415.348 296.2 415C296.2 414.652 295.926 414.374 295.584 414.374C294.488 414.374 293.667 413.469 293.667 412.426C293.667 412.078 293.393 411.8 293.05 411.8C292.708 411.8 292.434 412.078 292.434 412.426C292.434 413.539 291.544 414.374 290.517 414.374C290.174 414.374 289.9 414.652 289.9 415C289.9 415.348 290.174 415.626 290.517 415.626C291.612 415.626 292.434 416.53 292.434 417.574C292.434 417.922 292.708 418.2 293.05 418.2Z" fill="#DFDCE4"/>
<path d="M670.05 336.2C670.393 336.2 670.667 335.922 670.667 335.574C670.667 334.461 671.557 333.626 672.584 333.626C672.926 333.626 673.2 333.348 673.2 333C673.2 332.652 672.926 332.374 672.584 332.374C671.488 332.374 670.667 331.469 670.667 330.426C670.667 330.078 670.393 329.8 670.05 329.8C669.708 329.8 669.434 330.078 669.434 330.426C669.434 331.539 668.544 332.374 667.517 332.374C667.174 332.374 666.9 332.652 666.9 333C666.9 333.348 667.174 333.626 667.517 333.626C668.612 333.626 669.434 334.53 669.434 335.574C669.434 335.922 669.708 336.2 670.05 336.2Z" fill="#DFDCE4"/>
<path d="M412.05 291.2C412.393 291.2 412.667 290.922 412.667 290.574C412.667 289.461 413.557 288.626 414.584 288.626C414.926 288.626 415.2 288.348 415.2 288C415.2 287.652 414.926 287.374 414.584 287.374C413.488 287.374 412.667 286.469 412.667 285.426C412.667 285.078 412.393 284.8 412.05 284.8C411.708 284.8 411.434 285.078 411.434 285.426C411.434 286.539 410.544 287.374 409.517 287.374C409.174 287.374 408.9 287.652 408.9 288C408.9 288.348 409.174 288.626 409.517 288.626C410.612 288.626 411.434 289.53 411.434 290.574C411.434 290.922 411.708 291.2 412.05 291.2Z" fill="#DFDCE4"/>
<path d="M129.05 485.2C129.393 485.2 129.667 484.922 129.667 484.574C129.667 483.461 130.557 482.626 131.584 482.626C131.926 482.626 132.2 482.348 132.2 482C132.2 481.652 131.926 481.374 131.584 481.374C130.488 481.374 129.667 480.469 129.667 479.426C129.667 479.078 129.393 478.8 129.05 478.8C128.708 478.8 128.434 479.078 128.434 479.426C128.434 480.539 127.544 481.374 126.517 481.374C126.174 481.374 125.9 481.652 125.9 482C125.9 482.348 126.174 482.626 126.517 482.626C127.612 482.626 128.434 483.53 128.434 484.574C128.434 484.922 128.708 485.2 129.05 485.2Z" fill="#DFDCE4"/>
<path d="M389.05 434.2C389.393 434.2 389.667 433.922 389.667 433.574C389.667 432.461 390.557 431.626 391.584 431.626C391.926 431.626 392.2 431.348 392.2 431C392.2 430.652 391.926 430.374 391.584 430.374C390.488 430.374 389.667 429.469 389.667 428.426C389.667 428.078 389.393 427.8 389.05 427.8C388.708 427.8 388.434 428.078 388.434 428.426C388.434 429.539 387.544 430.374 386.517 430.374C386.174 430.374 385.9 430.652 385.9 431C385.9 431.348 386.174 431.626 386.517 431.626C387.612 431.626 388.434 432.53 388.434 433.574C388.434 433.922 388.708 434.2 389.05 434.2Z" fill="#DFDCE4"/>
<path d="M460.05 713.2C460.393 713.2 460.667 712.922 460.667 712.574C460.667 711.461 461.557 710.626 462.584 710.626C462.926 710.626 463.2 710.348 463.2 710C463.2 709.652 462.926 709.374 462.584 709.374C461.488 709.374 460.667 708.469 460.667 707.426C460.667 707.078 460.393 706.8 460.05 706.8C459.708 706.8 459.434 707.078 459.434 707.426C459.434 708.539 458.544 709.374 457.517 709.374C457.174 709.374 456.9 709.652 456.9 710C456.9 710.348 457.174 710.626 457.517 710.626C458.612 710.626 459.434 711.53 459.434 712.574C459.434 712.922 459.708 713.2 460.05 713.2Z" fill="#DFDCE4"/>
<path d="M1356.05 757.2C1356.39 757.2 1356.67 756.922 1356.67 756.574C1356.67 755.461 1357.56 754.626 1358.58 754.626C1358.93 754.626 1359.2 754.348 1359.2 754C1359.2 753.652 1358.93 753.374 1358.58 753.374C1357.49 753.374 1356.67 752.469 1356.67 751.426C1356.67 751.078 1356.39 750.8 1356.05 750.8C1355.71 750.8 1355.43 751.078 1355.43 751.426C1355.43 752.539 1354.54 753.374 1353.52 753.374C1353.17 753.374 1352.9 753.652 1352.9 754C1352.9 754.348 1353.17 754.626 1353.52 754.626C1354.61 754.626 1355.43 755.53 1355.43 756.574C1355.43 756.922 1355.71 757.2 1356.05 757.2Z" fill="#DFDCE4"/>
<path d="M1356.05 697.2C1356.39 697.2 1356.67 696.922 1356.67 696.574C1356.67 695.461 1357.56 694.626 1358.58 694.626C1358.93 694.626 1359.2 694.348 1359.2 694C1359.2 693.652 1358.93 693.374 1358.58 693.374C1357.49 693.374 1356.67 692.469 1356.67 691.426C1356.67 691.078 1356.39 690.8 1356.05 690.8C1355.71 690.8 1355.43 691.078 1355.43 691.426C1355.43 692.539 1354.54 693.374 1353.52 693.374C1353.17 693.374 1352.9 693.652 1352.9 694C1352.9 694.348 1353.17 694.626 1353.52 694.626C1354.61 694.626 1355.43 695.53 1355.43 696.574C1355.43 696.922 1355.71 697.2 1356.05 697.2Z" fill="#DFDCE4"/>
<path d="M1062.05 755.2C1062.39 755.2 1062.67 754.922 1062.67 754.574C1062.67 753.461 1063.56 752.626 1064.58 752.626C1064.93 752.626 1065.2 752.348 1065.2 752C1065.2 751.652 1064.93 751.374 1064.58 751.374C1063.49 751.374 1062.67 750.469 1062.67 749.426C1062.67 749.078 1062.39 748.8 1062.05 748.8C1061.71 748.8 1061.43 749.078 1061.43 749.426C1061.43 750.539 1060.54 751.374 1059.52 751.374C1059.17 751.374 1058.9 751.652 1058.9 752C1058.9 752.348 1059.17 752.626 1059.52 752.626C1060.61 752.626 1061.43 753.53 1061.43 754.574C1061.43 754.922 1061.71 755.2 1062.05 755.2Z" fill="#DFDCE4"/>
<path d="M1250.05 18.1998C1250.39 18.1998 1250.67 17.9215 1250.67 17.5737C1250.67 16.4607 1251.56 15.6259 1252.58 15.6259C1252.93 15.6259 1253.2 15.3476 1253.2 14.9998C1253.2 14.652 1252.93 14.3737 1252.58 14.3737C1251.49 14.3737 1250.67 13.4694 1250.67 12.4259C1250.67 12.0781 1250.39 11.7998 1250.05 11.7998C1249.71 11.7998 1249.43 12.0781 1249.43 12.4259C1249.43 13.5389 1248.54 14.3737 1247.52 14.3737C1247.17 14.3737 1246.9 14.652 1246.9 14.9998C1246.9 15.3476 1247.17 15.6259 1247.52 15.6259C1248.61 15.6259 1249.43 16.5302 1249.43 17.5737C1249.43 17.9215 1249.71 18.1998 1250.05 18.1998Z" fill="#DFDCE4"/>
<path d="M1358.05 167.2C1358.39 167.2 1358.67 166.922 1358.67 166.574C1358.67 165.461 1359.56 164.626 1360.58 164.626C1360.93 164.626 1361.2 164.348 1361.2 164C1361.2 163.652 1360.93 163.374 1360.58 163.374C1359.49 163.374 1358.67 162.469 1358.67 161.426C1358.67 161.078 1358.39 160.8 1358.05 160.8C1357.71 160.8 1357.43 161.078 1357.43 161.426C1357.43 162.539 1356.54 163.374 1355.52 163.374C1355.17 163.374 1354.9 163.652 1354.9 164C1354.9 164.348 1355.17 164.626 1355.52 164.626C1356.61 164.626 1357.43 165.53 1357.43 166.574C1357.43 166.922 1357.71 167.2 1358.05 167.2Z" fill="#DFDCE4"/>
<path d="M1291.05 134.2C1291.39 134.2 1291.67 133.922 1291.67 133.574C1291.67 132.461 1292.56 131.626 1293.58 131.626C1293.93 131.626 1294.2 131.348 1294.2 131C1294.2 130.652 1293.93 130.374 1293.58 130.374C1292.49 130.374 1291.67 129.469 1291.67 128.426C1291.67 128.078 1291.39 127.8 1291.05 127.8C1290.71 127.8 1290.43 128.078 1290.43 128.426C1290.43 129.539 1289.54 130.374 1288.52 130.374C1288.17 130.374 1287.9 130.652 1287.9 131C1287.9 131.348 1288.17 131.626 1288.52 131.626C1289.61 131.626 1290.43 132.53 1290.43 133.574C1290.43 133.922 1290.71 134.2 1291.05 134.2Z" fill="#DFDCE4"/>
<path d="M288.05 91.1998C288.393 91.1998 288.667 90.9215 288.667 90.5737C288.667 89.4607 289.557 88.6259 290.584 88.6259C290.926 88.6259 291.2 88.3476 291.2 87.9998C291.2 87.652 290.926 87.3737 290.584 87.3737C289.488 87.3737 288.667 86.4694 288.667 85.4259C288.667 85.0781 288.393 84.7998 288.05 84.7998C287.708 84.7998 287.434 85.0781 287.434 85.4259C287.434 86.5389 286.544 87.3737 285.517 87.3737C285.174 87.3737 284.9 87.652 284.9 87.9998C284.9 88.3476 285.174 88.6259 285.517 88.6259C286.612 88.6259 287.434 89.5302 287.434 90.5737C287.434 90.9215 287.708 91.1998 288.05 91.1998Z" fill="#DFDCE4"/>
<path d="M1281.05 569.2C1281.39 569.2 1281.67 568.922 1281.67 568.574C1281.67 567.461 1282.56 566.626 1283.58 566.626C1283.93 566.626 1284.2 566.348 1284.2 566C1284.2 565.652 1283.93 565.374 1283.58 565.374C1282.49 565.374 1281.67 564.469 1281.67 563.426C1281.67 563.078 1281.39 562.8 1281.05 562.8C1280.71 562.8 1280.43 563.078 1280.43 563.426C1280.43 564.539 1279.54 565.374 1278.52 565.374C1278.17 565.374 1277.9 565.652 1277.9 566C1277.9 566.348 1278.17 566.626 1278.52 566.626C1279.61 566.626 1280.43 567.53 1280.43 568.574C1280.43 568.922 1280.71 569.2 1281.05 569.2Z" fill="#0FC7D2"/>
<path d="M222.05 615.2C222.393 615.2 222.667 614.922 222.667 614.574C222.667 613.461 223.557 612.626 224.584 612.626C224.926 612.626 225.2 612.348 225.2 612C225.2 611.652 224.926 611.374 224.584 611.374C223.488 611.374 222.667 610.469 222.667 609.426C222.667 609.078 222.393 608.8 222.05 608.8C221.708 608.8 221.434 609.078 221.434 609.426C221.434 610.539 220.544 611.374 219.517 611.374C219.174 611.374 218.9 611.652 218.9 612C218.9 612.348 219.174 612.626 219.517 612.626C220.612 612.626 221.434 613.53 221.434 614.574C221.434 614.922 221.708 615.2 222.05 615.2Z" fill="#DFDCE4"/>
<path d="M1319.05 463.2C1319.39 463.2 1319.67 462.922 1319.67 462.574C1319.67 461.461 1320.56 460.626 1321.58 460.626C1321.93 460.626 1322.2 460.348 1322.2 460C1322.2 459.652 1321.93 459.374 1321.58 459.374C1320.49 459.374 1319.67 458.469 1319.67 457.426C1319.67 457.078 1319.39 456.8 1319.05 456.8C1318.71 456.8 1318.43 457.078 1318.43 457.426C1318.43 458.539 1317.54 459.374 1316.52 459.374C1316.17 459.374 1315.9 459.652 1315.9 460C1315.9 460.348 1316.17 460.626 1316.52 460.626C1317.61 460.626 1318.43 461.53 1318.43 462.574C1318.43 462.922 1318.71 463.2 1319.05 463.2Z" fill="#DFDCE4"/>
<path d="M1290.21 711.44C1291.65 711.44 1292.8 710.271 1292.8 708.81C1292.8 704.135 1296.54 700.629 1300.85 700.629C1302.29 700.629 1303.44 699.46 1303.44 698C1303.44 696.539 1302.29 695.37 1300.85 695.37C1296.25 695.37 1292.8 691.572 1292.8 687.189C1292.8 685.728 1291.65 684.56 1290.21 684.56C1288.77 684.56 1287.62 685.728 1287.62 687.189C1287.62 691.864 1283.88 695.37 1279.57 695.37C1278.13 695.37 1276.98 696.539 1276.98 698C1276.98 699.46 1278.13 700.629 1279.57 700.629C1284.17 700.629 1287.62 704.427 1287.62 708.81C1287.62 710.271 1288.77 711.44 1290.21 711.44Z" fill="#DFDCE4"/>
</g>
<g style="mix-blend-mode:lighten">
<path d="M33.2025 564.435L142.929 534.848L248.475 506.388C250.771 505.768 253.128 507.154 253.703 509.462C254.278 511.769 252.848 514.099 250.53 514.63L143.977 539.049L33.2025 564.435Z" fill="url(#paint0_linear_274_621)" style="mix-blend-mode:overlay"/>
<path d="M232.146 672.267L327.267 610.079L418.764 550.26C420.754 548.959 423.425 549.545 424.688 551.56C425.951 553.575 425.315 556.234 423.276 557.458L329.567 613.748L232.146 672.267Z" fill="url(#paint1_linear_274_621)" style="mix-blend-mode:overlay"/>
<path d="M496.67 586.99L564.29 517.87L629.333 451.384C630.748 449.938 633.066 449.942 634.476 451.393C635.885 452.844 635.837 455.178 634.368 456.569L566.856 520.513L496.67 586.99Z" fill="url(#paint2_linear_274_621)" style="mix-blend-mode:overlay"/>
<path d="M345.627 737.287L413.247 668.167L478.29 601.681C479.705 600.234 482.023 600.239 483.433 601.69C484.842 603.141 484.794 605.475 483.325 606.866L415.813 670.81L345.627 737.287Z" fill="url(#paint3_linear_274_621)" style="mix-blend-mode:overlay"/>
<path d="M213.627 867.287L281.247 798.167L346.29 731.681C347.705 730.234 350.023 730.239 351.433 731.69C352.842 733.141 352.794 735.475 351.325 736.866L283.813 800.81L213.627 867.287Z" fill="url(#paint4_linear_274_621)" style="mix-blend-mode:overlay"/>
<path d="M521.33 432.832L582.2 414.204L640.75 396.286C642.023 395.896 643.297 396.644 643.575 397.945C643.854 399.246 643.028 400.593 641.743 400.933L582.706 416.573L521.33 432.832Z" fill="url(#paint5_linear_274_621)" style="mix-blend-mode:overlay"/>
<path d="M-48.7161 286.618L64.0095 301.049L172.44 314.931C174.799 315.233 176.45 317.412 176.104 319.764C175.757 322.117 173.546 323.727 171.201 323.335L63.3779 305.333L-48.7161 286.618Z" fill="url(#paint6_linear_274_621)" style="mix-blend-mode:overlay"/>
<path d="M43.7585 213.798L169.284 245.564L290.028 276.119C292.654 276.784 294.184 279.463 293.421 282.061C292.658 284.66 289.899 286.167 287.302 285.403L167.895 250.296L43.7585 213.798Z" fill="url(#paint7_linear_274_621)" style="mix-blend-mode:overlay"/>
<path d="M304.84 281.532L406.156 306.761L503.612 331.028C505.732 331.556 506.961 333.707 506.338 335.8C505.715 337.893 503.482 339.112 501.386 338.505L405.021 310.571L304.84 281.532Z" fill="url(#paint8_linear_274_621)" style="mix-blend-mode:overlay"/>
<path d="M385.655 383.535L455.359 383.196L522.406 382.871C523.864 382.864 525.011 384.054 524.948 385.51C524.886 386.967 523.64 388.122 522.183 388.074L455.245 385.848L385.655 383.535Z" fill="url(#paint9_linear_274_621)" style="mix-blend-mode:overlay"/>
<path d="M138.654 384.75L208.358 384.412L275.405 384.087C276.863 384.08 278.01 385.27 277.947 386.726C277.885 388.182 276.639 389.338 275.182 389.29L208.244 387.064L138.654 384.75Z" fill="url(#paint10_linear_274_621)" style="mix-blend-mode:overlay"/>
<path d="M-128.858 385.521L-20.092 384.063L84.5296 382.661C86.8055 382.631 88.5781 384.47 88.4614 386.741C88.3448 389.013 86.3844 390.831 84.1129 390.775L-20.3044 388.199L-128.858 385.521Z" fill="url(#paint11_linear_274_621)" style="mix-blend-mode:overlay"/>
<path d="M61.8954 -251.17L229.653 -88.1525L391.018 68.6536C394.528 72.0646 394.555 77.6926 391.078 81.1372C387.6 84.5819 381.973 84.5017 378.595 80.9594L223.321 -81.8801L61.8954 -251.17Z" fill="url(#paint12_linear_274_621)" style="mix-blend-mode:overlay"/>
<path d="M95.5817 43.6561L243.674 123.811L386.123 200.912C389.222 202.589 390.27 206.44 388.448 209.453C386.625 212.467 382.643 213.47 379.613 211.677L240.356 129.298L95.5817 43.6561Z" fill="url(#paint13_linear_274_621)" style="mix-blend-mode:overlay"/>
<path d="M443.403 245.916L505.739 279.655L565.701 312.11C567.005 312.816 567.446 314.437 566.679 315.705C565.912 316.974 564.236 317.396 562.96 316.641L504.342 281.965L443.403 245.916Z" fill="url(#paint14_linear_274_621)" style="mix-blend-mode:overlay"/>
<path d="M469.487 161.759L519.981 211.504L568.551 259.353C569.608 260.394 569.581 262.074 568.491 263.079C567.402 264.084 565.674 264.023 564.659 262.944L517.997 213.334L469.487 161.759Z" fill="url(#paint15_linear_274_621)" style="mix-blend-mode:overlay"/>
<path d="M477.611 7.35478L521.287 81.5137L563.299 152.847C564.213 154.399 563.683 156.412 562.123 157.313C560.563 158.214 558.582 157.651 557.727 156.065L518.447 83.1541L477.611 7.35478Z" fill="url(#paint16_linear_274_621)" style="mix-blend-mode:overlay"/>
<path d="M570.713 178.281L617.065 250.571L661.651 320.106C662.621 321.618 662.114 323.548 660.527 324.386C658.94 325.224 656.891 324.644 655.981 323.099L614.175 252.096L570.713 178.281Z" fill="url(#paint17_linear_274_621)" style="mix-blend-mode:overlay"/>
<path d="M616.755 101.948L637.783 165.939L658.011 227.491C658.451 228.83 657.695 230.228 656.334 230.591C654.973 230.955 653.538 230.143 653.15 228.79L635.306 166.601L616.755 101.948Z" fill="url(#paint18_linear_274_621)" style="mix-blend-mode:overlay"/>
<path d="M566.706 -70.0516L587.735 -6.06117L607.962 55.4911C608.402 56.8301 607.646 58.2277 606.285 58.5912C604.925 58.9547 603.489 58.1426 603.101 56.7897L585.257 -5.39923L566.706 -70.0516Z" fill="url(#paint19_linear_274_621)" style="mix-blend-mode:overlay"/>
<path d="M576.141 319.505L607.816 336.649L638.284 353.14C638.947 353.499 639.171 354.322 638.781 354.967C638.392 355.611 637.54 355.826 636.892 355.443L607.107 337.823L576.141 319.505Z" fill="url(#paint20_linear_274_621)" style="mix-blend-mode:overlay"/>
<path d="M-291.593 22.128L-16.3414 112.352L248.423 199.138C254.183 201.026 256.913 207.125 254.481 212.667C252.048 218.209 245.399 221.035 239.732 218.935L-20.7714 122.443L-291.593 22.128Z" fill="url(#paint21_linear_274_621)" style="mix-blend-mode:overlay"/>
<path d="M-415.676 997.609L-121.005 837.206L162.438 682.914C168.604 679.558 175.869 682.117 178.553 688.592C181.237 695.066 178.295 702.933 172.027 706.043L-116.117 848.995L-415.676 997.609Z" fill="url(#paint22_linear_274_621)" style="mix-blend-mode:overlay"/>
<path d="M1443.06 -229.347L1263.98 -64.241L1091.71 94.5738C1087.97 98.0286 1082.21 97.6578 1078.94 93.7513C1075.67 89.8448 1076.16 83.924 1080.04 80.6181L1258.02 -71.3543L1443.06 -229.347Z" fill="url(#paint23_linear_274_621)" style="mix-blend-mode:overlay"/>
<path d="M1311.66 125.607L1154.79 195.159L1003.91 262.06C1000.62 263.515 996.866 261.963 995.57 258.616C994.275 255.27 995.946 251.433 999.278 250.105L1152.44 189.065L1311.66 125.607Z" fill="url(#paint24_linear_274_621)" style="mix-blend-mode:overlay"/>
<path d="M1645 176.625L1407.73 231.695L1179.5 284.668C1174.53 285.82 1169.71 282.652 1168.8 277.64C1167.88 272.629 1171.24 267.725 1176.24 266.764L1406.07 222.57L1645 176.625Z" fill="url(#paint25_linear_274_621)" style="mix-blend-mode:overlay"/>
<path d="M1467.35 702.214L1317.76 645.081L1173.87 590.125C1170.74 588.93 1169.29 585.439 1170.65 582.381C1172.02 579.324 1175.67 577.891 1178.75 579.203L1320.24 639.514L1467.35 702.214Z" fill="url(#paint26_linear_274_621)" style="mix-blend-mode:overlay"/>
<path d="M1341.12 855.25L1182.3 749.456L1029.53 647.694C1026.21 645.48 1025.44 641.041 1027.84 637.847C1030.23 634.653 1034.85 633.949 1038.08 636.284L1186.66 743.641L1341.12 855.25Z" fill="url(#paint27_linear_274_621)" style="mix-blend-mode:overlay"/>
<path d="M334.262 487.544L419.068 461.017L500.644 435.5C502.418 434.945 504.563 435.858 505.401 437.525C506.238 439.192 505.443 440.964 503.637 441.455L420.594 464.052L334.262 487.544Z" fill="url(#paint28_linear_274_621)" style="mix-blend-mode:overlay"/>
<path d="M690.138 -24.1071L692.118 65.0543L694.022 150.818C694.064 152.684 692.568 154.156 690.705 154.083C688.842 154.011 687.337 152.422 687.366 150.559L688.725 64.9221L690.138 -24.1071Z" fill="url(#paint29_linear_274_621)" style="mix-blend-mode:overlay"/>
<path d="M829.881 -105.546L802.354 -1.07378L775.876 99.4178C775.3 101.604 773.067 102.817 770.922 102.109C768.776 101.401 767.556 99.0478 768.213 96.8888L798.448 -2.36283L829.881 -105.546Z" fill="url(#paint30_linear_274_621)" style="mix-blend-mode:overlay"/>
<path d="M762.005 147.757L737.527 233.784L713.981 316.534C713.469 318.334 711.581 319.359 709.792 318.807C708.004 318.256 707.012 316.343 707.593 314.564L734.271 232.78L762.005 147.757Z" fill="url(#paint31_linear_274_621)" style="mix-blend-mode:overlay"/>
<path d="M812.782 172.508L772.385 252.307L733.528 329.066C732.682 330.736 730.633 331.383 728.983 330.501C727.332 329.62 726.722 327.553 727.63 325.917L769.379 250.702L812.782 172.508Z" fill="url(#paint32_linear_274_621)" style="mix-blend-mode:overlay"/>
<path d="M873.254 280.559L812.021 319.321L753.12 356.605C751.839 357.416 750.144 357.016 749.362 355.717C748.579 354.418 749.013 352.727 750.324 351.966L810.595 316.956L873.254 280.559Z" fill="url(#paint33_linear_274_621)" style="mix-blend-mode:overlay"/>
<path d="M871.944 341.998L813.725 356.64L757.724 370.723C756.506 371.03 755.276 370.276 754.997 369.051C754.717 367.827 755.496 366.608 756.725 366.349L813.216 354.41L871.944 341.998Z" fill="url(#paint34_linear_274_621)" style="mix-blend-mode:overlay"/>
<path d="M982.176 314.712L923.957 329.354L867.956 343.437C866.738 343.744 865.509 342.99 865.229 341.765C864.95 340.541 865.729 339.322 866.958 339.063L923.448 327.124L982.176 314.712Z" fill="url(#paint35_linear_274_621)" style="mix-blend-mode:overlay"/>
<path d="M921.254 2.66323L875.325 79.4119L831.145 153.236C830.184 154.842 828.095 155.343 826.51 154.347C824.926 153.351 824.464 151.246 825.485 149.678L872.44 77.5982L921.254 2.66323Z" fill="url(#paint36_linear_274_621)" style="mix-blend-mode:overlay"/>
<path d="M1042.92 -56.7948L949.387 63.2837L859.413 178.787C857.456 181.3 853.823 181.711 851.354 179.699C848.885 177.687 848.542 174.036 850.593 171.6L944.891 59.6204L1042.92 -56.7948Z" fill="url(#paint37_linear_274_621)" style="mix-blend-mode:overlay"/>
<path d="M921.617 447.229L834.558 427.881L750.815 409.271C748.994 408.866 747.921 407.062 748.436 405.27C748.951 403.478 750.853 402.395 752.655 402.868L835.495 424.618L921.617 447.229Z" fill="url(#paint38_linear_274_621)" style="mix-blend-mode:overlay"/>
<path d="M1420.95 455.121L1274.76 450.257L1134.13 445.579C1131.07 445.477 1128.8 442.894 1129.09 439.849C1129.38 436.805 1132.11 434.484 1135.16 434.702L1275.28 444.713L1420.95 455.121Z" fill="url(#paint39_linear_274_621)" style="mix-blend-mode:overlay"/>
<path d="M1458.41 385.497L1337.83 387.775L1221.85 389.967C1219.32 390.015 1217.31 387.984 1217.39 385.463C1217.46 382.942 1219.59 380.912 1222.11 380.961L1337.97 383.185L1458.41 385.497Z" fill="url(#paint40_linear_274_621)" style="mix-blend-mode:overlay"/>
<path d="M1359.32 336.197L1239.19 346.839L1123.64 357.076C1121.13 357.299 1118.98 355.413 1118.88 352.893C1118.78 350.373 1120.77 348.2 1123.28 348.073L1239.01 342.251L1359.32 336.197Z" fill="url(#paint41_linear_274_621)" style="mix-blend-mode:overlay"/>
<path d="M865.458 560.877L824.268 519.248L784.649 479.205C783.787 478.334 783.692 476.817 784.439 475.841C785.186 474.865 786.483 474.809 787.317 475.718L825.628 517.47L865.458 560.877Z" fill="url(#paint42_linear_274_621)" style="mix-blend-mode:overlay"/>
<path d="M1025.08 578.63L947.151 530.724L872.189 484.643C870.558 483.641 870.437 481.839 871.919 480.647C873.402 479.454 875.911 479.336 877.486 480.384L949.851 528.553L1025.08 578.63Z" fill="url(#paint43_linear_274_621)" style="mix-blend-mode:overlay"/>
<path d="M1127.09 641.364L1076.11 612.307L1027.08 584.356C1026.01 583.748 1025.93 582.648 1026.91 581.917C1027.88 581.185 1029.53 581.106 1030.56 581.742L1077.89 610.974L1127.09 641.364Z" fill="url(#paint44_linear_274_621)" style="mix-blend-mode:overlay"/>
<path d="M1126.14 499.79L1049.62 481.722L976.01 464.342C974.409 463.964 974.344 463.197 975.865 462.64C977.386 462.084 979.902 461.955 981.445 462.355L1052.39 480.709L1126.14 499.79Z" fill="url(#paint45_linear_274_621)" style="mix-blend-mode:overlay"/>
<path d="M1247.52 533.843L1181.3 517.112L1117.61 501.018C1116.22 500.668 1116.16 499.967 1117.48 499.462C1118.79 498.957 1120.97 498.846 1122.3 499.216L1183.7 516.193L1247.52 533.843Z" fill="url(#paint46_linear_274_621)" style="mix-blend-mode:overlay"/>
<path d="M935.845 624.457L904.982 597.719L875.296 572C874.65 571.44 874.588 570.458 875.157 569.821C875.727 569.184 876.707 569.141 877.331 569.724L906.02 596.559L935.845 624.457Z" fill="url(#paint47_linear_274_621)" style="mix-blend-mode:overlay"/>
<path d="M1058.17 741.832L1009.18 699.043L962.058 657.884C961.033 656.989 960.933 655.418 961.837 654.399C962.74 653.381 964.295 653.312 965.285 654.246L1010.82 697.188L1058.17 741.832Z" fill="url(#paint48_linear_274_621)" style="mix-blend-mode:overlay"/>
</g>
<path d="M131.712 220.991C132.204 221.457 132.974 221.429 133.431 220.928C133.888 220.428 133.859 219.646 133.367 219.181L131.712 220.991ZM302.101 34.5668C299.475 32.0851 295.371 32.2352 292.933 34.902C290.496 37.5688 290.649 41.7425 293.274 44.2242C295.9 46.7059 300.004 46.5558 302.442 43.889C304.879 41.2223 304.726 37.0486 302.101 34.5668ZM133.367 219.181C129.79 215.8 128.308 210.162 129.024 202.504C129.737 194.868 132.619 185.461 137.453 174.889C147.115 153.758 164.451 128.229 187.191 103.349L185.408 101.664C162.544 126.68 145.043 152.42 135.247 173.844C130.353 184.55 127.351 194.243 126.602 202.267C125.855 210.268 127.332 216.852 131.712 220.991L133.367 219.181ZM187.191 103.349C209.931 78.4686 233.702 59.022 253.721 47.6797C263.736 42.0051 272.751 38.3946 280.187 37.1137C287.646 35.8291 293.283 36.9199 296.86 40.3009L298.515 38.4901C294.135 34.3505 287.571 33.3328 279.778 34.6749C271.964 36.0209 262.676 39.7725 252.535 45.5187C232.239 57.0179 208.273 76.6473 185.408 101.664L187.191 103.349Z" fill="#FEE899"/>
<mask id="mask0_274_621" style="mask-type:alpha" maskUnits="userSpaceOnUse" x="122" y="33" width="198" height="198">
<ellipse cx="221" cy="132.001" rx="98.3586" ry="98.3586" transform="rotate(-135 221 132.001)" fill="url(#paint49_linear_274_621)"/>
</mask>
<g mask="url(#mask0_274_621)">
<ellipse cx="221" cy="132.001" rx="98.3586" ry="98.3586" transform="rotate(-135 221 132.001)" fill="url(#paint50_linear_274_621)"/>
<g style="mix-blend-mode:color-burn">
<path fill-rule="evenodd" clip-rule="evenodd" d="M193.737 59.8108C177.488 48.5392 167.783 32.3803 163.679 20.598L195.319 13.6539C198.226 22.0015 205.518 43.2868 217.474 51.5797C228.977 59.5593 233.699 58.163 256.561 51.5797C280.321 44.7377 298.398 37.261 311.323 45.3315C324.203 53.3738 329.618 72.5844 331.248 83.3361C332.464 91.3551 330.406 98.9529 328.995 104.16L328.929 104.405C325.546 116.901 322.53 134.682 323 153.164C323.472 171.719 327.431 190.096 337.136 204.654L319.57 216.364C306.868 197.31 291.352 171.263 290.822 150.43C290.29 129.523 312.445 107.873 316.251 93.8126C317.813 88.0439 310.846 89.6026 310.375 86.5004C309.346 79.7091 307.96 63.5974 301.896 59.8108C295.876 56.0523 282.865 63.1071 262.403 68.9993C233.425 77.3438 210.438 71.3956 193.737 59.8108ZM136.481 104.911C115.774 82.6075 110.526 77.4803 106.422 65.6981L97.4633 8.10059C100.371 16.4482 131.049 79.3488 145.923 89.6662C157.426 97.6458 176.442 100.396 199.305 93.8126C223.065 86.9707 241.142 88.6093 254.067 96.6797C266.947 104.722 272.362 117.685 273.992 128.436C275.207 136.455 273.149 144.053 271.739 149.26L261.246 170.453C257.863 182.949 254.847 200.73 255.317 219.212C255.789 237.767 270.174 235.196 279.88 249.754L262.314 261.464C249.611 242.41 245.169 219.634 244.639 198.801C244.108 177.893 247.489 158.049 251.295 143.989C252.857 138.22 253.589 134.703 253.119 131.6C252.09 124.809 248.427 119.158 242.362 115.371C236.343 111.613 225.609 108.207 205.146 114.099C166.074 125.35 152.64 122.315 136.481 104.911ZM80.5049 161.528C64.2556 150.256 54.5502 134.097 50.4463 122.315L70.3826 115.371C73.2902 123.719 94.4672 105.806 106.422 114.099C117.926 122.079 120.466 157.013 143.328 150.43C167.089 143.588 185.166 145.226 198.091 153.297C210.971 161.339 216.386 174.302 218.016 185.053C218.226 186.44 218.338 187.814 218.373 189.166C218.656 200.199 211.139 209.61 202.551 216.542L166.554 245.601C84.1588 260.954 192.62 263.718 193.09 282.2C193.562 300.756 214.198 291.813 223.904 306.371L206.338 318.081C193.635 299.027 146.453 248.201 145.923 227.368C145.391 206.461 191.513 214.666 195.319 200.606C196.88 194.837 197.613 191.32 197.143 188.218C196.113 181.426 192.974 174.99 186.91 171.204C181.864 168.053 173.136 165.702 158.39 168.495C152.221 169.664 146.606 172.683 141.195 175.869C105.184 197.075 96.1127 172.354 80.5049 161.528Z" fill="#FDAB30"/>
<path fill-rule="evenodd" clip-rule="evenodd" d="M193.737 59.8108C177.488 48.5392 167.783 32.3803 163.679 20.598L195.319 13.6539C198.226 22.0015 205.518 43.2868 217.474 51.5797C228.977 59.5593 233.699 58.163 256.561 51.5797C280.321 44.7377 298.398 37.261 311.323 45.3315C324.203 53.3738 329.618 72.5844 331.248 83.3361C332.464 91.3551 330.406 98.9529 328.995 104.16L328.929 104.405C325.546 116.901 322.53 134.682 323 153.164C323.472 171.719 327.431 190.096 337.136 204.654L319.57 216.364C306.868 197.31 291.352 171.263 290.822 150.43C290.29 129.523 312.445 107.873 316.251 93.8126C317.813 88.0439 310.846 89.6026 310.375 86.5004C309.346 79.7091 307.96 63.5974 301.896 59.8108C295.876 56.0523 282.865 63.1071 262.403 68.9993C233.425 77.3438 210.438 71.3956 193.737 59.8108ZM136.481 104.911C115.774 82.6075 110.526 77.4803 106.422 65.6981L97.4633 8.10059C100.371 16.4482 131.049 79.3488 145.923 89.6662C157.426 97.6458 176.442 100.396 199.305 93.8126C223.065 86.9707 241.142 88.6093 254.067 96.6797C266.947 104.722 272.362 117.685 273.992 128.436C275.207 136.455 273.149 144.053 271.739 149.26L261.246 170.453C257.863 182.949 254.847 200.73 255.317 219.212C255.789 237.767 270.174 235.196 279.88 249.754L262.314 261.464C249.611 242.41 245.169 219.634 244.639 198.801C244.108 177.893 247.489 158.049 251.295 143.989C252.857 138.22 253.589 134.703 253.119 131.6C252.09 124.809 248.427 119.158 242.362 115.371C236.343 111.613 225.609 108.207 205.146 114.099C166.074 125.35 152.64 122.315 136.481 104.911ZM80.5049 161.528C64.2556 150.256 54.5502 134.097 50.4463 122.315L70.3826 115.371C73.2902 123.719 94.4672 105.806 106.422 114.099C117.926 122.079 120.466 157.013 143.328 150.43C167.089 143.588 185.166 145.226 198.091 153.297C210.971 161.339 216.386 174.302 218.016 185.053C220.072 198.619 210.014 210.518 199.337 219.136L166.554 245.601C84.1588 260.954 192.62 263.718 193.09 282.2C193.562 300.756 214.198 291.813 223.904 306.371L206.338 318.081C193.635 299.027 146.453 248.201 145.923 227.368C145.391 206.461 191.513 214.666 195.319 200.606C196.88 194.837 197.613 191.32 197.143 188.218C196.113 181.426 192.974 174.99 186.91 171.204C182.132 168.221 174.054 165.954 160.692 168.092C152.966 169.329 145.99 173.235 139.152 177.039C104.833 196.131 95.8132 172.147 80.5049 161.528Z" fill="#FDAB30"/>
</g>
</g>
<path d="M312.82 47.5326C312.328 47.0664 311.559 47.0932 311.101 47.5925C310.643 48.0917 310.67 48.8743 311.162 49.3405L312.82 47.5326ZM142.112 233.656C144.734 236.142 148.838 235.999 151.28 233.337C153.722 230.674 153.577 226.5 150.956 224.014C148.335 221.528 144.23 221.671 141.788 224.333C139.346 226.996 139.491 231.17 142.112 233.656ZM311.162 49.3405C314.733 52.7278 316.205 58.3677 315.476 66.0251C314.75 73.6598 311.852 83.0609 307 93.6246C297.302 114.739 279.922 140.237 257.14 165.077L258.92 166.765C281.827 141.79 299.372 116.08 309.204 94.6735C314.117 83.9767 317.135 74.2889 317.898 66.2661C318.659 58.2661 317.192 51.68 312.82 47.5326L311.162 49.3405ZM257.14 165.077C234.357 189.917 210.553 209.322 190.515 220.628C180.49 226.285 171.469 229.88 164.03 231.148C156.569 232.419 150.935 231.318 147.363 227.931L145.705 229.739C150.078 233.886 156.64 234.916 164.435 233.587C172.252 232.255 181.546 228.52 191.697 222.792C212.013 211.328 236.013 191.741 258.92 166.765L257.14 165.077Z" fill="#FEE899"/>
<g filter="url(#filter1_d_274_621)">
<circle cx="1260.48" cy="355.189" r="68.0329" transform="rotate(-162.86 1260.48 355.189)" fill="#100730"/>
<g filter="url(#filter2_f_274_621)">
<path d="M1268.81 291.297C1239.01 288.768 1210.43 307.181 1201.26 336.926C1190.83 370.744 1209.38 406.585 1242.77 417.73C1243.56 417.995 1244.02 418.844 1243.77 419.644C1243.52 420.445 1242.68 420.894 1241.87 420.647L1241.25 420.455C1235.53 418.691 1230.22 416.238 1225.37 413.214C1198.94 397.702 1185.63 365.563 1195.05 335.011C1206.05 299.335 1243.89 279.333 1279.57 290.336L1281.85 291.038C1282.65 291.285 1283.1 292.134 1282.85 292.935C1282.6 293.735 1281.75 294.183 1280.95 293.952C1277.19 292.872 1272.19 291.701 1268.81 291.297Z" fill="#422A93"/>
</g>
</g>
<circle cx="493.315" cy="129.315" r="20.7291" transform="rotate(45 493.315 129.315)" fill="#100730"/>
<g filter="url(#filter3_f_274_621)">
<path d="M481.973 145.339C489.64 150.263 499.959 149.372 506.666 142.666C514.291 135.041 514.399 122.746 506.99 114.989C506.814 114.804 506.812 114.511 506.993 114.331C507.173 114.15 507.466 114.15 507.646 114.331L507.786 114.471C509.076 115.76 510.158 117.178 511.034 118.683C515.944 126.624 514.955 137.178 508.066 144.066C500.023 152.11 486.981 152.11 478.938 144.066L478.424 143.553C478.244 143.372 478.244 143.08 478.424 142.899C478.605 142.719 478.897 142.719 479.081 142.896C479.94 143.722 481.119 144.749 481.973 145.339Z" fill="#422A93"/>
</g>
<g style="mix-blend-mode:multiply">
<circle cx="696" cy="384" r="793" fill="url(#paint51_radial_274_621)"/>
</g>
<path d="M692.025 411C668.874 479.671 639.113 553.679 576.51 624.244C528.218 678.367 460.395 730.509 361 772.465H546.798C644.423 650.375 672.794 524.82 692.025 411Z" fill="#0FC7D2"/>
<path d="M692.005 772.487V726.363C692.005 716.701 692.005 707.074 692.005 697.483V626.474C692.005 617.136 700 607.766 700 598.5L692.005 411C672.774 524.82 644.403 650.375 546.778 772.541L692.005 772.487Z" fill="#9FDF6C"/>
<path d="M692.025 598.568C692.025 607.82 692.025 617.122 692.025 626.474V697.483C692.025 707.06 692.025 716.686 692.025 726.363V772.487H837.232C831.418 765.22 825.848 757.942 820.521 750.654C818.835 748.352 817.168 746.046 815.521 743.737C810.614 736.816 805.901 729.896 801.38 722.975C799.88 720.659 798.38 718.353 796.93 716.047C794.01 711.429 791.17 706.807 788.41 702.181C781.516 690.635 775.116 679.089 769.209 667.543C766.842 662.924 764.545 658.302 762.319 653.676C753.418 635.21 745.648 616.775 738.798 598.417C736.231 591.532 733.787 584.677 731.467 577.85C730.7 575.57 729.94 573.286 729.187 570.998C727.7 566.43 726.257 561.873 724.857 557.327C723.457 552.78 722.123 548.241 720.857 543.709C719.547 539.174 718.297 534.649 717.077 530.135C716.477 527.869 715.88 525.614 715.286 523.37C713.526 516.608 711.86 509.872 710.286 503.161C709.226 498.679 708.2 494.216 707.206 489.771C705.713 483.095 704.289 476.442 702.936 469.81C702.036 465.394 701.159 460.992 700.306 456.604C699.452 452.216 698.622 447.843 697.816 443.485C697.009 439.155 696.222 434.825 695.456 430.495C694.296 424 693.175 417.542 692.095 411.119V598.568H692.025Z" fill="#FDC500"/>
<path d="M692.005 726.363C692.005 716.701 692.005 707.074 692.005 697.483C692.012 707.067 692.012 716.693 692.005 726.363Z" fill="#FDC500"/>
<path d="M692.016 626.474C692.016 617.136 692.016 607.834 692.016 598.568C692.022 607.827 692.022 617.129 692.016 626.474Z" fill="#FDC500"/>
<path d="M697.746 443.409C698.559 447.738 699.389 452.112 700.236 456.528C701.082 460.944 701.959 465.346 702.866 469.734C704.199 476.359 705.623 483.012 707.136 489.695C708.129 494.147 709.156 498.61 710.216 503.085C711.81 509.796 713.476 516.532 715.216 523.294C715.81 525.546 716.407 527.801 717.007 530.059C718.227 534.573 719.477 539.098 720.787 543.633C722.097 548.169 723.427 552.704 724.787 557.251C726.147 561.797 727.627 566.354 729.117 570.922C729.87 573.21 730.631 575.494 731.397 577.774C733.717 584.63 736.161 591.485 738.728 598.341C745.578 616.743 753.348 635.144 762.249 653.6C764.469 658.219 766.765 662.841 769.139 667.467C775.059 679.013 781.459 690.559 788.34 702.105C791.1 706.731 793.94 711.353 796.86 715.971C798.32 718.277 799.86 720.583 801.31 722.899C805.831 729.827 810.544 736.747 815.451 743.661C817.091 745.97 818.758 748.276 820.451 750.578C825.785 757.866 831.355 765.144 837.162 772.411H1023C923.626 730.531 855.813 678.41 807.531 624.266C744.938 553.679 715.176 479.682 692.025 411.021C693.119 417.444 694.239 423.903 695.386 430.397C696.146 434.713 696.932 439.05 697.746 443.409Z" fill="#DE3D64"/>
<path d="M837.212 772.486C831.398 765.22 825.828 757.942 820.501 750.653C825.835 757.942 831.405 765.22 837.212 772.486Z" fill="#DE3D64"/>
<path d="M815.511 743.737C810.604 736.817 805.89 729.896 801.37 722.976C805.89 729.903 810.604 736.824 815.511 743.737Z" fill="#DE3D64"/>
<path d="M796.92 716.048C794 711.429 791.16 706.807 788.399 702.182C791.16 706.807 794 711.429 796.92 716.048Z" fill="#DE3D64"/>
<path d="M769.199 667.51C766.832 662.891 764.535 658.269 762.309 653.644C764.515 658.269 766.812 662.891 769.199 667.51Z" fill="#DE3D64"/>
<rect x="640" y="377" width="99" height="153" fill="url(#paint52_linear_274_621)"/>
<circle cx="292.607" cy="558.841" r="52.0477" transform="rotate(-45 292.607 558.841)" fill="#100730"/>
<g filter="url(#filter4_f_274_621)">
<path d="M332.841 587.32C345.205 568.07 342.967 542.159 326.128 525.32C306.983 506.175 276.112 505.904 256.635 524.506C256.172 524.949 255.436 524.952 254.983 524.499C254.529 524.046 254.529 523.311 254.983 522.858L255.334 522.507C258.572 519.269 262.132 516.551 265.911 514.351C285.85 502.024 312.348 504.508 329.644 521.803C349.841 542 349.841 574.745 329.644 594.941L328.355 596.23C327.902 596.684 327.167 596.684 326.714 596.23C326.261 595.777 326.261 595.043 326.705 594.582C328.78 592.425 331.359 589.463 332.841 587.32Z" fill="#422A93"/>
</g>
<ellipse cx="66" cy="548" rx="89" ry="89" transform="rotate(-135 66 548)" fill="url(#paint53_linear_274_621)"/>
<path fill-rule="evenodd" clip-rule="evenodd" d="M66 459C67.8495 459 69.6859 459.056 71.5074 459.168C79.3692 459.648 81.0066 470.089 75.6991 475.909C65.4418 487.156 59.1868 502.116 59.1868 518.538C59.1868 553.488 87.5191 581.82 122.469 581.82C125.241 581.82 127.972 581.642 130.65 581.296C138.467 580.287 146.111 587.61 142.002 594.336C126.369 619.922 98.179 637 66 637C16.8467 637 -23 597.153 -23 548C-23 541.263 -22.2515 534.701 -20.8332 528.393C-19.4722 522.339 -11.99 520.532 -6.10323 522.492C-2.92564 523.55 0.473621 524.123 4.0067 524.123C21.668 524.123 35.9853 509.806 35.9853 492.145C35.9853 487.431 34.9652 482.955 33.1338 478.926C30.5683 473.282 31.5881 465.661 37.4605 463.674C46.4193 460.643 56.0177 459 66 459ZM75.2068 518.538C75.2068 496.995 89.6199 478.819 109.329 473.126C111.521 472.493 113.871 472.923 115.762 474.201C139.435 490.195 155 517.28 155 548C155 548.466 154.996 548.931 154.989 549.395C154.954 551.679 153.961 553.853 152.186 555.291C144.067 561.863 133.728 565.8 122.469 565.8C96.3668 565.8 75.2068 544.64 75.2068 518.538ZM-6.28356 496.065C-8.29741 498.863 -8.36786 502.793 -5.61984 504.874C-2.9439 506.901 0.390976 508.103 4.0067 508.103C12.8204 508.103 19.9653 500.958 19.9653 492.145C19.9653 487.936 18.3358 484.107 15.6733 481.256C13.3203 478.736 9.41844 479.212 6.84338 481.504C1.95437 485.857 -2.45145 490.741 -6.28356 496.065ZM43.2897 606.372C56.8831 606.372 67.9028 595.352 67.9028 581.759C67.9028 568.165 56.8831 557.146 43.2897 557.146C29.6963 557.146 18.6766 568.165 18.6766 581.759C18.6766 595.352 29.6963 606.372 43.2897 606.372ZM51.8828 581.759C51.8828 586.504 48.0355 590.352 43.2897 590.352C38.5439 590.352 34.6966 586.504 34.6966 581.759C34.6966 577.013 38.5439 573.166 43.2897 573.166C48.0355 573.166 51.8828 577.013 51.8828 581.759Z" fill="url(#paint54_linear_274_621)"/>
<circle cx="991.211" cy="160.048" r="29.3174" transform="rotate(150 991.211 160.048)" fill="#100730"/>
<g filter="url(#filter5_f_274_621)">
<path d="M973.471 138.688C963.938 147.359 961.378 161.783 968.085 173.4C975.71 186.607 992.467 191.255 1005.78 183.973C1006.09 183.8 1006.49 183.906 1006.67 184.218C1006.85 184.531 1006.75 184.93 1006.43 185.111L1006.19 185.251C1003.96 186.541 1001.63 187.501 999.249 188.146C986.603 191.947 972.548 186.732 965.659 174.8C957.615 160.867 962.389 143.051 976.322 135.007L977.211 134.494C977.524 134.313 977.923 134.42 978.104 134.733C978.284 135.045 978.177 135.445 977.868 135.631C976.425 136.502 974.59 137.738 973.471 138.688Z" fill="#422A93"/>
</g>
</g>
<defs>
<filter id="filter0_f_274_621" x="21" y="6" width="1349" height="757" filterUnits="userSpaceOnUse" color-interpolation-filters="sRGB">
<feFlood flood-opacity="0" result="BackgroundImageFix"/>
<feBlend mode="normal" in="SourceGraphic" in2="BackgroundImageFix" result="shape"/>
<feGaussianBlur stdDeviation="2" result="effect1_foregroundBlur_274_621"/>
</filter>
<filter id="filter1_d_274_621" x="1188.03" y="287.138" width="144.496" height="144.103" filterUnits="userSpaceOnUse" color-interpolation-filters="sRGB">
<feFlood flood-opacity="0" result="BackgroundImageFix"/>
<feColorMatrix in="SourceAlpha" type="matrix" values="0 0 0 0 0 0 0 0 0 0 0 0 0 0 0 0 0 0 127 0" result="hardAlpha"/>
<feOffset dy="4"/>
<feGaussianBlur stdDeviation="2"/>
<feComposite in2="hardAlpha" operator="out"/>
<feColorMatrix type="matrix" values="0 0 0 0 0 0 0 0 0 0 0 0 0 0 0 0 0 0 0.25 0"/>
<feBlend mode="normal" in2="BackgroundImageFix" result="effect1_dropShadow_274_621"/>
<feBlend mode="normal" in="SourceGraphic" in2="effect1_dropShadow_274_621" result="shape"/>
</filter>
<filter id="filter2_f_274_621" x="1188.03" y="283.315" width="98.8867" height="141.399" filterUnits="userSpaceOnUse" color-interpolation-filters="sRGB">
<feFlood flood-opacity="0" result="BackgroundImageFix"/>
<feBlend mode="normal" in="SourceGraphic" in2="BackgroundImageFix" result="shape"/>
<feGaussianBlur stdDeviation="2" result="effect1_foregroundBlur_274_621"/>
</filter>
<filter id="filter3_f_274_621" x="475.461" y="111.367" width="41.466" height="41.5598" filterUnits="userSpaceOnUse" color-interpolation-filters="sRGB">
<feFlood flood-opacity="0" result="BackgroundImageFix"/>
<feBlend mode="normal" in="SourceGraphic" in2="BackgroundImageFix" result="shape"/>
<feGaussianBlur stdDeviation="1.41412" result="effect1_foregroundBlur_274_621"/>
</filter>
<filter id="filter4_f_274_621" x="250.643" y="502.656" width="98.1484" height="97.9141" filterUnits="userSpaceOnUse" color-interpolation-filters="sRGB">
<feFlood flood-opacity="0" result="BackgroundImageFix"/>
<feBlend mode="normal" in="SourceGraphic" in2="BackgroundImageFix" result="shape"/>
<feGaussianBlur stdDeviation="2" result="effect1_foregroundBlur_274_621"/>
</filter>
<filter id="filter5_f_274_621" x="957.751" y="130.406" width="53.0107" height="62.9639" filterUnits="userSpaceOnUse" color-interpolation-filters="sRGB">
<feFlood flood-opacity="0" result="BackgroundImageFix"/>
<feBlend mode="normal" in="SourceGraphic" in2="BackgroundImageFix" result="shape"/>
<feGaussianBlur stdDeviation="2" result="effect1_foregroundBlur_274_621"/>
</filter>
<linearGradient id="paint0_linear_274_621" x1="251.825" y1="509.794" x2="68.6354" y2="555.466" gradientUnits="userSpaceOnUse">
<stop offset="0.338542" stop-color="#4F319C"/>
<stop offset="1" stop-color="#5B39B2" stop-opacity="0"/>
</linearGradient>
<linearGradient id="paint1_linear_274_621" x1="423.007" y1="552.458" x2="263.044" y2="652.741" gradientUnits="userSpaceOnUse">
<stop offset="0.338542" stop-color="#4F319C"/>
<stop offset="1" stop-color="#5B39B2" stop-opacity="0"/>
</linearGradient>
<linearGradient id="paint2_linear_274_621" x1="633.244" y1="452.448" x2="518.02" y2="564.342" gradientUnits="userSpaceOnUse">
<stop offset="0.338542" stop-color="#4F319C"/>
<stop offset="1" stop-color="#5B39B2" stop-opacity="0"/>
</linearGradient>
<linearGradient id="paint3_linear_274_621" x1="482.201" y1="602.745" x2="366.977" y2="714.639" gradientUnits="userSpaceOnUse">
<stop offset="0.338542" stop-color="#4F319C"/>
<stop offset="1" stop-color="#5B39B2" stop-opacity="0"/>
</linearGradient>
<linearGradient id="paint4_linear_274_621" x1="350.201" y1="732.745" x2="234.977" y2="844.639" gradientUnits="userSpaceOnUse">
<stop offset="0.338542" stop-color="#4F319C"/>
<stop offset="1" stop-color="#5B39B2" stop-opacity="0"/>
</linearGradient>
<linearGradient id="paint5_linear_274_621" x1="642.537" y1="398.165" x2="539.491" y2="420.2" gradientUnits="userSpaceOnUse">
<stop offset="0.338542" stop-color="#4F319C"/>
<stop offset="1" stop-color="#5B39B2" stop-opacity="0"/>
</linearGradient>
<linearGradient id="paint6_linear_274_621" x1="174.241" y1="319.356" x2="-12.5374" y2="291.818" gradientUnits="userSpaceOnUse">
<stop offset="0.338542" stop-color="#4F319C"/>
<stop offset="1" stop-color="#5B39B2" stop-opacity="0"/>
</linearGradient>
<linearGradient id="paint7_linear_274_621" x1="291.374" y1="281.346" x2="85.0875" y2="220.779" gradientUnits="userSpaceOnUse">
<stop offset="0.338542" stop-color="#4F319C"/>
<stop offset="1" stop-color="#5B39B2" stop-opacity="0"/>
</linearGradient>
<linearGradient id="paint8_linear_274_621" x1="504.686" y1="335.23" x2="338.585" y2="285.772" gradientUnits="userSpaceOnUse">
<stop offset="0.338542" stop-color="#4F319C"/>
<stop offset="1" stop-color="#5B39B2" stop-opacity="0"/>
</linearGradient>
<linearGradient id="paint9_linear_274_621" x1="523.786" y1="385.413" x2="408.204" y2="380.469" gradientUnits="userSpaceOnUse">
<stop offset="0.338542" stop-color="#4F319C"/>
<stop offset="1" stop-color="#5B39B2" stop-opacity="0"/>
</linearGradient>
<linearGradient id="paint10_linear_274_621" x1="276.785" y1="386.629" x2="161.203" y2="381.685" gradientUnits="userSpaceOnUse">
<stop offset="0.338542" stop-color="#4F319C"/>
<stop offset="1" stop-color="#5B39B2" stop-opacity="0"/>
</linearGradient>
<linearGradient id="paint11_linear_274_621" x1="86.6488" y1="386.605" x2="-93.4753" y2="377.354" gradientUnits="userSpaceOnUse">
<stop offset="0.338542" stop-color="#4F319C"/>
<stop offset="1" stop-color="#5B39B2" stop-opacity="0"/>
</linearGradient>
<linearGradient id="paint12_linear_274_621" x1="388.515" y1="78.1648" x2="115.033" y2="-197.913" gradientUnits="userSpaceOnUse">
<stop offset="0.338542" stop-color="#4F319C"/>
<stop offset="1" stop-color="#5B39B2" stop-opacity="0"/>
</linearGradient>
<linearGradient id="paint13_linear_274_621" x1="386.097" y1="207.898" x2="146.939" y2="63.2876" gradientUnits="userSpaceOnUse">
<stop offset="0.338542" stop-color="#4F319C"/>
<stop offset="1" stop-color="#5B39B2" stop-opacity="0"/>
</linearGradient>
<linearGradient id="paint14_linear_274_621" x1="565.69" y1="315.051" x2="465.021" y2="254.179" gradientUnits="userSpaceOnUse">
<stop offset="0.338542" stop-color="#4F319C"/>
<stop offset="1" stop-color="#5B39B2" stop-opacity="0"/>
</linearGradient>
<linearGradient id="paint15_linear_274_621" x1="567.723" y1="262.175" x2="487.954" y2="175.708" gradientUnits="userSpaceOnUse">
<stop offset="0.338542" stop-color="#4F319C"/>
<stop offset="1" stop-color="#5B39B2" stop-opacity="0"/>
</linearGradient>
<linearGradient id="paint16_linear_274_621" x1="561.502" y1="156.008" x2="489.986" y2="32.1768" gradientUnits="userSpaceOnUse">
<stop offset="0.338542" stop-color="#4F319C"/>
<stop offset="1" stop-color="#5B39B2" stop-opacity="0"/>
</linearGradient>
<linearGradient id="paint17_linear_274_621" x1="659.863" y1="323.117" x2="593.483" y2="197.385" gradientUnits="userSpaceOnUse">
<stop offset="0.338542" stop-color="#4F319C"/>
<stop offset="1" stop-color="#5B39B2" stop-opacity="0"/>
</linearGradient>
<linearGradient id="paint18_linear_274_621" x1="656.078" y1="229.494" x2="627.237" y2="121.539" gradientUnits="userSpaceOnUse">
<stop offset="0.338542" stop-color="#4F319C"/>
<stop offset="1" stop-color="#5B39B2" stop-opacity="0"/>
</linearGradient>
<linearGradient id="paint19_linear_274_621" x1="606.029" y1="57.4942" x2="577.188" y2="-50.4607" gradientUnits="userSpaceOnUse">
<stop offset="0.338542" stop-color="#4F319C"/>
<stop offset="1" stop-color="#5B39B2" stop-opacity="0"/>
</linearGradient>
<linearGradient id="paint20_linear_274_621" x1="638.279" y1="354.634" x2="587.126" y2="323.704" gradientUnits="userSpaceOnUse">
<stop offset="0.338542" stop-color="#4F319C"/>
<stop offset="1" stop-color="#5B39B2" stop-opacity="0"/>
</linearGradient>
<linearGradient id="paint21_linear_274_621" x1="250.045" y1="210.765" x2="-188.586" y2="18.2006" gradientUnits="userSpaceOnUse">
<stop offset="0.338542" stop-color="#4F319C"/>
<stop offset="1" stop-color="#5B39B2" stop-opacity="0"/>
</linearGradient>
<linearGradient id="paint22_linear_274_621" x1="173.431" y1="690.819" x2="-338.666" y2="903.128" gradientUnits="userSpaceOnUse">
<stop offset="0.338542" stop-color="#4F319C"/>
<stop offset="1" stop-color="#5B39B2" stop-opacity="0"/>
</linearGradient>
<linearGradient id="paint23_linear_274_621" x1="1082.17" y1="91.2633" x2="1392.19" y2="-168.193" gradientUnits="userSpaceOnUse">
<stop offset="0.338542" stop-color="#4F319C"/>
<stop offset="1" stop-color="#5B39B2" stop-opacity="0"/>
</linearGradient>
<linearGradient id="paint24_linear_274_621" x1="998.288" y1="257.688" x2="1263.87" y2="154.871" gradientUnits="userSpaceOnUse">
<stop offset="0.338542" stop-color="#4F319C"/>
<stop offset="1" stop-color="#5B39B2" stop-opacity="0"/>
</linearGradient>
<linearGradient id="paint25_linear_274_621" x1="1172.83" y1="277.073" x2="1570.56" y2="204.659" gradientUnits="userSpaceOnUse">
<stop offset="0.338542" stop-color="#4F319C"/>
<stop offset="1" stop-color="#5B39B2" stop-opacity="0"/>
</linearGradient>
<linearGradient id="paint26_linear_274_621" x1="1173.06" y1="583.554" x2="1415.63" y2="691.901" gradientUnits="userSpaceOnUse">
<stop offset="0.338542" stop-color="#4F319C"/>
<stop offset="1" stop-color="#5B39B2" stop-opacity="0"/>
</linearGradient>
<linearGradient id="paint27_linear_274_621" x1="1030.33" y1="639.844" x2="1283.72" y2="829.644" gradientUnits="userSpaceOnUse">
<stop offset="0.338542" stop-color="#4F319C"/>
<stop offset="1" stop-color="#5B39B2" stop-opacity="0"/>
</linearGradient>
<linearGradient id="paint28_linear_274_621" x1="503.922" y1="437.851" x2="373.735" y2="503.275" gradientUnits="userSpaceOnUse">
<stop offset="0.338542" stop-color="#4F319C"/>
<stop offset="1" stop-color="#5B39B2" stop-opacity="0"/>
</linearGradient>
<linearGradient id="paint29_linear_274_621" x1="690.804" y1="152.596" x2="696.561" y2="4.79932" gradientUnits="userSpaceOnUse">
<stop offset="0.338542" stop-color="#4F319C"/>
<stop offset="1" stop-color="#5B39B2" stop-opacity="0"/>
</linearGradient>
<linearGradient id="paint30_linear_274_621" x1="771.534" y1="100.41" x2="827.688" y2="-69.7413" gradientUnits="userSpaceOnUse">
<stop offset="0.338542" stop-color="#4F319C"/>
<stop offset="1" stop-color="#5B39B2" stop-opacity="0"/>
</linearGradient>
<linearGradient id="paint31_linear_274_621" x1="710.329" y1="317.406" x2="754.116" y2="175.425" gradientUnits="userSpaceOnUse">
<stop offset="0.338542" stop-color="#4F319C"/>
<stop offset="1" stop-color="#5B39B2" stop-opacity="0"/>
</linearGradient>
<linearGradient id="paint32_linear_274_621" x1="729.775" y1="329.228" x2="799.773" y2="198.17" gradientUnits="userSpaceOnUse">
<stop offset="0.338542" stop-color="#4F319C"/>
<stop offset="1" stop-color="#5B39B2" stop-opacity="0"/>
</linearGradient>
<linearGradient id="paint33_linear_274_621" x1="750.442" y1="355.16" x2="853.55" y2="293.017" gradientUnits="userSpaceOnUse">
<stop offset="0.338542" stop-color="#4F319C"/>
<stop offset="1" stop-color="#5B39B2" stop-opacity="0"/>
</linearGradient>
<linearGradient id="paint34_linear_274_621" x1="755.991" y1="368.893" x2="853.214" y2="346.698" gradientUnits="userSpaceOnUse">
<stop offset="0.338542" stop-color="#4F319C"/>
<stop offset="1" stop-color="#5B39B2" stop-opacity="0"/>
</linearGradient>
<linearGradient id="paint35_linear_274_621" x1="866.223" y1="341.607" x2="963.446" y2="319.412" gradientUnits="userSpaceOnUse">
<stop offset="0.338542" stop-color="#4F319C"/>
<stop offset="1" stop-color="#5B39B2" stop-opacity="0"/>
</linearGradient>
<linearGradient id="paint36_linear_274_621" x1="827.391" y1="153.132" x2="906.466" y2="27.3428" gradientUnits="userSpaceOnUse">
<stop offset="0.338542" stop-color="#4F319C"/>
<stop offset="1" stop-color="#5B39B2" stop-opacity="0"/>
</linearGradient>
<linearGradient id="paint37_linear_274_621" x1="853.094" y1="177.831" x2="1012.81" y2="-18.1858" gradientUnits="userSpaceOnUse">
<stop offset="0.338542" stop-color="#4F319C"/>
<stop offset="1" stop-color="#5B39B2" stop-opacity="0"/>
</linearGradient>
<linearGradient id="paint38_linear_274_621" x1="749.857" y1="405.721" x2="892.013" y2="446.571" gradientUnits="userSpaceOnUse">
<stop offset="0.338542" stop-color="#4F319C"/>
<stop offset="1" stop-color="#5B39B2" stop-opacity="0"/>
</linearGradient>
<linearGradient id="paint39_linear_274_621" x1="1131.51" y1="440.146" x2="1373.03" y2="463.013" gradientUnits="userSpaceOnUse">
<stop offset="0.338542" stop-color="#4F319C"/>
<stop offset="1" stop-color="#5B39B2" stop-opacity="0"/>
</linearGradient>
<linearGradient id="paint40_linear_274_621" x1="1219.4" y1="385.603" x2="1419.46" y2="391.529" gradientUnits="userSpaceOnUse">
<stop offset="0.338542" stop-color="#4F319C"/>
<stop offset="1" stop-color="#5B39B2" stop-opacity="0"/>
</linearGradient>
<linearGradient id="paint41_linear_274_621" x1="1120.9" y1="352.893" x2="1320.89" y2="344.918" gradientUnits="userSpaceOnUse">
<stop offset="0.338542" stop-color="#4F319C"/>
<stop offset="1" stop-color="#5B39B2" stop-opacity="0"/>
</linearGradient>
<linearGradient id="paint42_linear_274_621" x1="785.076" y1="476.607" x2="861.63" y2="535.17" gradientUnits="userSpaceOnUse">
<stop offset="0.338542" stop-color="#4F319C"/>
<stop offset="1" stop-color="#5B39B2" stop-opacity="0"/>
</linearGradient>
<linearGradient id="paint43_linear_274_621" x1="873.119" y1="481.533" x2="962.85" y2="593.108" gradientUnits="userSpaceOnUse">
<stop offset="0.338542" stop-color="#4F319C"/>
<stop offset="1" stop-color="#5B39B2" stop-opacity="0"/>
</linearGradient>
<linearGradient id="paint44_linear_274_621" x1="1027.69" y1="582.455" x2="1081.39" y2="654.009" gradientUnits="userSpaceOnUse">
<stop offset="0.338542" stop-color="#4F319C"/>
<stop offset="1" stop-color="#5B39B2" stop-opacity="0"/>
</linearGradient>
<linearGradient id="paint45_linear_274_621" x1="977.038" y1="462.982" x2="1001.72" y2="530.472" gradientUnits="userSpaceOnUse">
<stop offset="0.338542" stop-color="#4F319C"/>
<stop offset="1" stop-color="#5B39B2" stop-opacity="0"/>
</linearGradient>
<linearGradient id="paint46_linear_274_621" x1="1118.49" y1="499.778" x2="1141.94" y2="560.827" gradientUnits="userSpaceOnUse">
<stop offset="0.338542" stop-color="#4F319C"/>
<stop offset="1" stop-color="#5B39B2" stop-opacity="0"/>
</linearGradient>
<linearGradient id="paint47_linear_274_621" x1="875.634" y1="570.314" x2="926.203" y2="615.537" gradientUnits="userSpaceOnUse">
<stop offset="0.338542" stop-color="#4F319C"/>
<stop offset="1" stop-color="#5B39B2" stop-opacity="0"/>
</linearGradient>
<linearGradient id="paint48_linear_274_621" x1="962.593" y1="655.188" x2="1043.44" y2="726.901" gradientUnits="userSpaceOnUse">
<stop offset="0.338542" stop-color="#4F319C"/>
<stop offset="1" stop-color="#5B39B2" stop-opacity="0"/>
</linearGradient>
<linearGradient id="paint49_linear_274_621" x1="319.359" y1="131.725" x2="151.295" y2="131.725" gradientUnits="userSpaceOnUse">
<stop offset="0.147202" stop-color="#9FDF6C"/>
<stop offset="1" stop-color="#FDC500"/>
</linearGradient>
<linearGradient id="paint50_linear_274_621" x1="366.207" y1="142.178" x2="77.15" y2="121.822" gradientUnits="userSpaceOnUse">
<stop stop-color="#FCF0C5"/>
<stop offset="0.609375" stop-color="#FDC500"/>
<stop offset="0.996089" stop-color="#FDB600"/>
</linearGradient>
<radialGradient id="paint51_radial_274_621" cx="0" cy="0" r="1" gradientUnits="userSpaceOnUse" gradientTransform="translate(696 384) rotate(90) scale(793)">
<stop offset="0.78125" stop-color="#190E3D" stop-opacity="0"/>
<stop offset="1" stop-color="#190E3D"/>
</radialGradient>
<linearGradient id="paint52_linear_274_621" x1="689.5" y1="377" x2="689.5" y2="530" gradientUnits="userSpaceOnUse">
<stop offset="0.26388" stop-color="#190E3D"/>
<stop offset="1" stop-color="#190E3D" stop-opacity="0"/>
</linearGradient>
<linearGradient id="paint53_linear_274_621" x1="155" y1="547.751" x2="2.92717" y2="547.751" gradientUnits="userSpaceOnUse">
<stop offset="0.147202" stop-color="#FDC500"/>
<stop offset="1" stop-color="#FD8630"/>
</linearGradient>
<linearGradient id="paint54_linear_274_621" x1="135.972" y1="494.6" x2="-81.9241" y2="671.372" gradientUnits="userSpaceOnUse">
<stop offset="0.286458" stop-color="#DE3D64"/>
<stop offset="1" stop-color="#FD8731"/>
</linearGradient>
<clipPath id="clip0_274_621">
<rect width="1366" height="768" fill="white"/>
</clipPath>
</defs>
</svg>
